999
dxflib 2.0.0.7
  0
SECTION
  2
HEADER
  9
$ACADVER
  1
AC1015
  9
$HANDSEED
  5
FFFF
  0
ENDSEC
  9
$DIMASZ
 40
2.5
  9
$DIMADEC
 70
2
  9
$DIMGAP
 40
0.625
  9
$AUPREC
 70
2
  9
$LUNITS
 70
2
  9
$DIMEXO
 40
0.625
  9
$INSUNITS
 70
4
  9
$DIMLUNIT
 70
2
  9
$DIMTXT
 40
2.5
  9
$LUPREC
 70
4
  9
$PSVPSCALE
 40
0.4
  9
$DIMSTYLE
  2
Standard
  9
$PLIMMAX
 10
297.0
 20
210.0
 30
0.0
  9
$PLIMMIN
 10
0.0
 20
0.0
 30
0.0
  9
$PINSBASE
 10
26.5000000000000071
 20
73.0000000000000142
 30
0.0
  9
$DIMEXE
 40
1.25
  9
$DIMAUNIT
 70
0
  9
$AUNITS
 70
0
  0
ENDSEC
  0
SECTION
  2
TABLES
  0
TABLE
  2
VPORT
  5
8
100
AcDbSymbolTable
 70
1
  0
VPORT
  5
30
100
AcDbSymbolTableRecord
100
AcDbViewportTableRecord
  2
*Active
 70
0
 10
0.0
 20
0.0
 11
1.0
 21
1.0
 12
286.3055555555554861
 22
148.5
 13
0.0
 23
0.0
 14
10.0
 24
10.0
 15
10.0
 25
10.0
 16
0.0
 26
0.0
 36
1.0
 17
0.0
 27
0.0
 37
0.0
 40
297.0
 41
1.92798353909465
 42
50.0
 43
0.0
 44
0.0
 50
0.0
 51
0.0
 71
0
 72
100
 73
1
 74
3
 75
1
 76
1
 77
0
 78
0
281
0
 65
1
110
0.0
120
0.0
130
0.0
111
1.0
121
0.0
131
0.0
112
0.0
122
1.0
132
0.0
 79
0
146
0.0
  0
ENDTAB
  0
TABLE
  2
LTYPE
  5
5
100
AcDbSymbolTable
 70
3
  0
LTYPE
  5
14
100
AcDbSymbolTableRecord
100
AcDbLinetypeTableRecord
  2
ByBlock
 70
0
  3

 72
65
 73
0
 40
0.0
  0
LTYPE
  5
15
100
AcDbSymbolTableRecord
100
AcDbLinetypeTableRecord
  2
ByLayer
 70
0
  3

 72
65
 73
0
 40
0.0
  0
LTYPE
  5
16
100
AcDbSymbolTableRecord
100
AcDbLinetypeTableRecord
  2
CONTINUOUS
 70
0
  3
Solid line
 72
65
 73
0
 40
0.0
  0
LTYPE
  5
31
100
AcDbSymbolTableRecord
100
AcDbLinetypeTableRecord
  2
DOT
 70
0
  0
LTYPE
  5
32
100
AcDbSymbolTableRecord
100
AcDbLinetypeTableRecord
  2
DOT2
 70
0
  0
LTYPE
  5
33
100
AcDbSymbolTableRecord
100
AcDbLinetypeTableRecord
  2
DOTX2
 70
0
  0
LTYPE
  5
34
100
AcDbSymbolTableRecord
100
AcDbLinetypeTableRecord
  2
DASHED
 70
0
  0
LTYPE
  5
35
100
AcDbSymbolTableRecord
100
AcDbLinetypeTableRecord
  2
DASHED2
 70
0
  0
LTYPE
  5
36
100
AcDbSymbolTableRecord
100
AcDbLinetypeTableRecord
  2
DASHEDX2
 70
0
  0
LTYPE
  5
37
100
AcDbSymbolTableRecord
100
AcDbLinetypeTableRecord
  2
DASHDOT
 70
0
  0
LTYPE
  5
38
100
AcDbSymbolTableRecord
100
AcDbLinetypeTableRecord
  2
DASHDOT2
 70
0
  0
LTYPE
  5
39
100
AcDbSymbolTableRecord
100
AcDbLinetypeTableRecord
  2
DASHDOTX2
 70
0
  0
LTYPE
  5
3A
100
AcDbSymbolTableRecord
100
AcDbLinetypeTableRecord
  2
DIVIDE
 70
0
  0
LTYPE
  5
3B
100
AcDbSymbolTableRecord
100
AcDbLinetypeTableRecord
  2
DIVIDE2
 70
0
  0
LTYPE
  5
3C
100
AcDbSymbolTableRecord
100
AcDbLinetypeTableRecord
  2
DIVIDEX2
 70
0
  0
LTYPE
  5
3D
100
AcDbSymbolTableRecord
100
AcDbLinetypeTableRecord
  2
CENTER
 70
0
  0
LTYPE
  5
3E
100
AcDbSymbolTableRecord
100
AcDbLinetypeTableRecord
  2
CENTER2
 70
0
  0
LTYPE
  5
3F
100
AcDbSymbolTableRecord
100
AcDbLinetypeTableRecord
  2
CENTERX2
 70
0
  0
LTYPE
  5
40
100
AcDbSymbolTableRecord
100
AcDbLinetypeTableRecord
  2
BORDER
 70
0
  0
LTYPE
  5
41
100
AcDbSymbolTableRecord
100
AcDbLinetypeTableRecord
  2
BORDER2
 70
0
  0
LTYPE
  5
42
100
AcDbSymbolTableRecord
100
AcDbLinetypeTableRecord
  2
BORDERX2
 70
0
  0
ENDTAB
  0
TABLE
  2
LAYER
  5
2
100
AcDbSymbolTable
 70
4
  0
LAYER
  5
10
100
AcDbSymbolTableRecord
100
AcDbLayerTableRecord
  2
0
 70
0
 62
7
  6
CONTINUOUS
370
0
390
F
  0
LAYER
  5
43
100
AcDbSymbolTableRecord
100
AcDbLayerTableRecord
  2
axes
 70
0
 62
1
  6
DASHDOT
370
18
390
F
  0
LAYER
  5
44
100
AcDbSymbolTableRecord
100
AcDbLayerTableRecord
  2
contour
 70
0
 62
7
  6
CONTINUOUS
370
18
390
F
  0
LAYER
  5
45
100
AcDbSymbolTableRecord
100
AcDbLayerTableRecord
  2
body
 70
0
 62
5
  6
CONTINUOUS
370
0
390
F
  0
ENDTAB
  0
TABLE
  2
STYLE
  5
3
100
AcDbSymbolTable
 70
1
  0
STYLE
  5
11
100
AcDbSymbolTableRecord
100
AcDbTextStyleTableRecord
  2
Standard
 70
0
 40
0.0
 41
1.0
 50
0.0
 71
0
 42
2.5
  3
txt
  4

  0
ENDTAB
  0
TABLE
  2
VIEW
  5
6
100
AcDbSymbolTable
 70
0
  0
ENDTAB
  0
TABLE
  2
UCS
  5
7
100
AcDbSymbolTable
 70
0
  0
ENDTAB
  0
TABLE
  2
APPID
  5
9
100
AcDbSymbolTable
 70
1
  0
APPID
  5
12
100
AcDbSymbolTableRecord
100
AcDbRegAppTableRecord
  2
ACAD
 70
0
  0
ENDTAB
  0
TABLE
  2
DIMSTYLE
  5
A
100
AcDbSymbolTable
 70
1
100
AcDbDimStyleTable
 71
0
  0
DIMSTYLE
105
27
100
AcDbSymbolTableRecord
100
AcDbDimStyleTableRecord
  2
Standard
 70
0
  0
ENDTAB
  0
TABLE
  2
BLOCK_RECORD
  5
1
100
AcDbSymbolTable
 70
1
  0
BLOCK_RECORD
  5
1F
100
AcDbSymbolTableRecord
100
AcDbBlockTableRecord
  2
*Model_Space
340
22
  0
BLOCK_RECORD
  5
1B
100
AcDbSymbolTableRecord
100
AcDbBlockTableRecord
  2
*Paper_Space
340
1E
  0
BLOCK_RECORD
  5
23
100
AcDbSymbolTableRecord
100
AcDbBlockTableRecord
  2
*Paper_Space0
340
26
  0
BLOCK_RECORD
  5
46
330
1
100
AcDbSymbolTableRecord
100
AcDbBlockTableRecord
  2
part1
340
0
  0
ENDTAB
  0
ENDSEC
  0
SECTION
  2
BLOCKS
  0
BLOCK
  5
20
100
AcDbEntity
  8
0
100
AcDbBlockBegin
  2
*Model_Space
 70
0
 10
0.0
 20
0.0
 30
0.0
  3
*Model_Space
  1

  0
ENDBLK
  5
21
100
AcDbEntity
  8
0
100
AcDbBlockEnd
  0
BLOCK
  5
1C
100
AcDbEntity
 67
1
  8
0
100
AcDbBlockBegin
  2
*Paper_Space
 70
0
 10
0.0
 20
0.0
 30
0.0
  3
*Paper_Space
  1

  0
ENDBLK
  5
1D
100
AcDbEntity
 67
1
  8
0
100
AcDbBlockEnd
  0
BLOCK
  5
24
100
AcDbEntity
  8
0
100
AcDbBlockBegin
  2
*Paper_Space0
 70
0
 10
0.0
 20
0.0
 30
0.0
  3
*Paper_Space0
  1

  0
ENDBLK
  5
25
100
AcDbEntity
  8
0
100
AcDbBlockEnd
  0
BLOCK
  5
47
100
AcDbEntity
  8
0
100
AcDbBlockBegin
  2
part1
 70
0
 10
0.0
 20
0.0
 30
0.0
  3
part1
  1

  0
HATCH
  5
48
  8
body
 62
256
370
-1
  6
ByLayer
100
AcDbEntity
100
AcDbHatch
 10
0.0
 20
0.0
 30
0.0
210
0.0
220
0.0
230
1.0
  2
SOLID
 70
1
 71
0
 91
1
 92
1
 93
18
 72
1
 10
14.3844718719116997
 20
20.0
 11
0.0
 21
20.0
 72
2
 10
0.0
 20
-0.0000000000000071
 40
19.9999999999999929
 50
90.0
 51
180.0
 73
1
 72
2
 10
0.0
 20
0.0
 40
19.9999999999999929
 50
180.0
 51
270.0
 73
1
 72
1
 10
0.0
 20
-20.0000000000000036
 11
14.3844718719116997
 21
-20.0
 72
2
 10
14.3844718719116997
 20
0.0
 40
20.0
 50
270.0
 51
297.2660444507327497
 73
1
 72
2
 10
35.0
 20
-40.0
 40
25.0
 50
242.7339555492671366
 51
297.2660444507328066
 73
0
 72
2
 10
55.6155281280883003
 20
0.0000000000000071
 40
20.0
 50
242.7339555492671366
 51
270.0
 73
1
 72
1
 10
55.6155281280883003
 20
-19.9999999999999929
 11
70.0
 21
-20.0
 72
2
 10
70.0
 20
0.0
 40
20.0
 50
270.0
 51
0.0
 73
1
 72
2
 10
70.0
 20
0.0
 40
20.0
 50
0.0
 51
90.0
 73
1
 72
1
 10
70.0
 20
20.0
 11
55.6155281280883003
 21
19.9999999999999929
 72
2
 10
55.6155281280883003
 20
-0.0000000000000071
 40
20.0
 50
90.0
 51
117.266044450732835
 73
1
 72
2
 10
35.0
 20
40.0
 40
25.0
 50
62.7339555492671934
 51
117.2660444507328492
 73
0
 72
2
 10
14.3844718719116997
 20
0.0
 40
20.0
 50
62.7339555492672432
 51
90.0
 73
1
 72
2
 10
0.0
 20
0.0
 40
10.0
 50
0.0
 51
180.0
 73
1
 72
2
 10
0.0
 20
0.0
 40
10.0
 50
180.0
 51
0.0
 73
1
 72
2
 10
70.0
 20
-0.0000000000000071
 40
10.0
 50
360.0
 51
180.0
 73
1
 72
2
 10
70.0
 20
0.0000000000000142
 40
10.0
 50
180.0
 51
0.0
 73
1
 97
0
 75
0
 76
1
 98
0
  0
LINE
  5
49
100
AcDbEntity
100
AcDbLine
  8
axes
 62
256
370
-1
  6
ByLayer
 10
-30.0
 20
0.0
 30
0.0
 11
100.0
 21
0.0
 31
0.0
  0
LINE
  5
4A
100
AcDbEntity
100
AcDbLine
  8
contour
 62
256
370
-1
  6
ByLayer
 10
14.3844718719116997
 20
20.0
 30
0.0
 11
0.0
 21
20.0
 31
0.0
  0
ARC
  5
4B
100
AcDbEntity
  8
contour
 62
256
370
-1
  6
ByLayer
100
AcDbCircle
 10
14.3844718719116997
 20
0.0
 30
0.0
 40
20.0
100
AcDbArc
 50
62.7339555492672432
 51
90.0
  0
ARC
  5
4C
100
AcDbEntity
  8
contour
 62
256
370
-1
  6
ByLayer
100
AcDbCircle
 10
35.0
 20
40.0
 30
0.0
 40
25.0
100
AcDbArc
 50
242.7339555492671366
 51
297.2660444507328066
  0
LINE
  5
4D
100
AcDbEntity
100
AcDbLine
  8
contour
 62
256
370
-1
  6
ByLayer
 10
55.6155281280883003
 20
19.9999999999999929
 30
0.0
 11
70.0
 21
20.0
 31
0.0
  0
ARC
  5
4E
100
AcDbEntity
  8
contour
 62
256
370
-1
  6
ByLayer
100
AcDbCircle
 10
55.6155281280883003
 20
-0.0000000000000071
 30
0.0
 40
20.0
100
AcDbArc
 50
90.0
 51
117.266044450732835
  0
ARC
  5
4F
100
AcDbEntity
  8
contour
 62
256
370
-1
  6
ByLayer
100
AcDbCircle
 10
0.0
 20
-0.0000000000000071
 30
0.0
 40
19.9999999999999929
100
AcDbArc
 50
90.0
 51
180.0
  0
ARC
  5
50
100
AcDbEntity
  8
contour
 62
256
370
-1
  6
ByLayer
100
AcDbCircle
 10
70.0
 20
0.0
 30
0.0
 40
20.0
100
AcDbArc
 50
0.0
 51
90.0
  0
LINE
  5
51
100
AcDbEntity
100
AcDbLine
  8
contour
 62
256
370
-1
  6
ByLayer
 10
14.3844718719116997
 20
-20.0
 30
0.0
 11
0.0
 21
-20.0000000000000036
 31
0.0
  0
ARC
  5
52
100
AcDbEntity
  8
contour
 62
256
370
-1
  6
ByLayer
100
AcDbCircle
 10
14.3844718719116997
 20
0.0
 30
0.0
 40
20.0
100
AcDbArc
 50
270.0
 51
297.2660444507327497
  0
ARC
  5
53
100
AcDbEntity
  8
contour
 62
256
370
-1
  6
ByLayer
100
AcDbCircle
 10
35.0
 20
-40.0
 30
0.0
 40
25.0
100
AcDbArc
 50
62.7339555492672076
 51
117.2660444507328776
  0
LINE
  5
54
100
AcDbEntity
100
AcDbLine
  8
contour
 62
256
370
-1
  6
ByLayer
 10
55.6155281280883003
 20
-19.9999999999999929
 30
0.0
 11
70.0
 21
-20.0
 31
0.0
  0
ARC
  5
55
100
AcDbEntity
  8
contour
 62
256
370
-1
  6
ByLayer
100
AcDbCircle
 10
55.6155281280883003
 20
0.0000000000000071
 30
0.0
 40
20.0
100
AcDbArc
 50
242.7339555492671366
 51
270.0
  0
ARC
  5
56
100
AcDbEntity
  8
contour
 62
256
370
-1
  6
ByLayer
100
AcDbCircle
 10
0.0
 20
0.0
 30
0.0
 40
19.9999999999999929
100
AcDbArc
 50
180.0
 51
270.0
  0
ARC
  5
57
100
AcDbEntity
  8
contour
 62
256
370
-1
  6
ByLayer
100
AcDbCircle
 10
70.0
 20
0.0
 30
0.0
 40
20.0
100
AcDbArc
 50
270.0
 51
0.0
  0
ARC
  5
58
100
AcDbEntity
  8
contour
 62
256
370
-1
  6
ByLayer
100
AcDbCircle
 10
0.0
 20
0.0
 30
0.0
 40
10.0
100
AcDbArc
 50
0.0
 51
180.0
  0
ARC
  5
59
100
AcDbEntity
  8
contour
 62
256
370
-1
  6
ByLayer
100
AcDbCircle
 10
70.0
 20
-0.0000000000000071
 30
0.0
 40
10.0
100
AcDbArc
 50
360.0
 51
180.0
  0
ARC
  5
5A
100
AcDbEntity
  8
contour
 62
256
370
-1
  6
ByLayer
100
AcDbCircle
 10
0.0
 20
0.0
 30
0.0
 40
10.0
100
AcDbArc
 50
180.0
 51
0.0
  0
ARC
  5
5B
100
AcDbEntity
  8
contour
 62
256
370
-1
  6
ByLayer
100
AcDbCircle
 10
70.0
 20
0.0000000000000142
 30
0.0
 40
10.0
100
AcDbArc
 50
180.0
 51
0.0
  0
LINE
  5
5C
100
AcDbEntity
100
AcDbLine
  8
axes
 62
256
370
-1
  6
ByLayer
 10
0.0
 20
30.0
 30
0.0
 11
0.0
 21
-30.0
 31
0.0
  0
LINE
  5
5D
100
AcDbEntity
100
AcDbLine
  8
axes
 62
256
370
-1
  6
ByLayer
 10
70.0
 20
30.0
 30
0.0
 11
70.0
 21
-30.0
 31
0.0
  0
ENDBLK
  5
5E
100
AcDbEntity
  8
0
100
AcDbBlockEnd
  0
ENDSEC
  0
SECTION
  2
ENTITIES
  0
INSERT
  5
5F
100
AcDbEntity
100
AcDbBlockReference
  8
axes
 62
256
370
-1
  6
ByLayer
  2
part1
 10
30.0
 20
30.0
 30
0.0
 70
5
 71
3
 44
120.0
 45
50.0
  0
ENDSEC
  0
SECTION
  2
OBJECTS
  0
DICTIONARY
  5
C
100
AcDbDictionary
280
0
281
1
  3
ACAD_GROUP
350
D
  3
ACAD_LAYOUT
350
1A
  3
ACAD_MLINESTYLE
350
17
  3
ACAD_PLOTSETTINGS
350
19
  3
ACAD_PLOTSTYLENAME
350
E
  3
AcDbVariableDictionary
350
60
  0
DICTIONARY
  5
D
100
AcDbDictionary
280
0
281
1
  0
ACDBDICTIONARYWDFLT
  5
E
100
AcDbDictionary
281
1
  3
Normal
350
F
100
AcDbDictionaryWithDefault
340
F
  0
ACDBPLACEHOLDER
  5
F
  0
DICTIONARY
  5
17
100
AcDbDictionary
280
0
281
1
  3
Standard
350
18
  0
MLINESTYLE
  5
18
100
AcDbMlineStyle
  2
STANDARD
 70
0
  3

 62
256
 51
90.0
 52
90.0
 71
2
 49
0.5
 62
256
  6
BYLAYER
 49
-0.5
 62
256
  6
BYLAYER
  0
DICTIONARY
  5
19
100
AcDbDictionary
280
0
281
1
  0
DICTIONARY
  5
1A
100
AcDbDictionary
281
1
  3
Layout1
350
1E
  3
Layout2
350
26
  3
Model
350
22
  0
LAYOUT
  5
1E
100
AcDbPlotSettings
  1

  2
C:\Program Files\AutoCAD 2002\plotters\DWF ePlot (optimized for plotting).pc3
  4

  6

 40
0.0
 41
0.0
 42
0.0
 43
0.0
 44
0.0
 45
0.0
 46
0.0
 47
0.0
 48
0.0
 49
0.0
140
0.0
141
0.0
142
1.0
143
1.0
 70
688
 72
0
 73
0
 74
5
  7

 75
16
147
1.0
148
0.0
149
0.0
100
AcDbLayout
  1
Layout1
 70
1
 71
1
 10
0.0
 20
0.0
 11
420.0
 21
297.0
 12
0.0
 22
0.0
 32
0.0
 14
100000000000000000000.0
 24
100000000000000000000.0
 34
100000000000000000000.0
 15
-100000000000000000000.0
 25
-100000000000000000000.0
 35
-100000000000000000000.0
146
0.0
 13
0.0
 23
0.0
 33
0.0
 16
1.0
 26
0.0
 36
0.0
 17
0.0
 27
1.0
 37
0.0
 76
0
330
1B
  0
LAYOUT
  5
22
100
AcDbPlotSettings
  1

  2
C:\Program Files\AutoCAD 2002\plotters\DWF ePlot (optimized for plotting).pc3
  4

  6

 40
0.0
 41
0.0
 42
0.0
 43
0.0
 44
0.0
 45
0.0
 46
0.0
 47
0.0
 48
0.0
 49
0.0
140
0.0
141
0.0
142
1.0
143
1.0
 70
1712
 72
0
 73
0
 74
0
  7

 75
0
147
1.0
148
0.0
149
0.0
100
AcDbLayout
  1
Model
 70
1
 71
0
 10
0.0
 20
0.0
 11
12.0
 21
9.0
 12
0.0
 22
0.0
 32
0.0
 14
0.0
 24
0.0
 34
0.0
 15
0.0
 25
0.0
 35
0.0
146
0.0
 13
0.0
 23
0.0
 33
0.0
 16
1.0
 26
0.0
 36
0.0
 17
0.0
 27
1.0
 37
0.0
 76
0
330
1F
  0
LAYOUT
  5
26
100
AcDbPlotSettings
  1

  2
C:\Program Files\AutoCAD 2002\plotters\DWF ePlot (optimized for plotting).pc3
  4

  6

 40
0.0
 41
0.0
 42
0.0
 43
0.0
 44
0.0
 45
0.0
 46
0.0
 47
0.0
 48
0.0
 49
0.0
140
0.0
141
0.0
142
1.0
143
1.0
 70
688
 72
0
 73
0
 74
5
  7

 75
16
147
1.0
148
0.0
149
0.0
100
AcDbLayout
  1
Layout2
 70
1
 71
2
 10
0.0
 20
0.0
 11
12.0
 21
9.0
 12
0.0
 22
0.0
 32
0.0
 14
0.0
 24
0.0
 34
0.0
 15
0.0
 25
0.0
 35
0.0
146
0.0
 13
0.0
 23
0.0
 33
0.0
 16
1.0
 26
0.0
 36
0.0
 17
0.0
 27
1.0
 37
0.0
 76
0
330
23
  0
DICTIONARY
  5
60
100
AcDbDictionary
281
1
  3
DIMASSOC
350
62
  3
HIDETEXT
350
61
  0
DICTIONARYVAR
  5
61
100
DictionaryVariables
280
0
  1
2
  0
DICTIONARYVAR
  5
62
100
DictionaryVariables
280
0
  1
1
  0
ENDSEC
  0
EOF
