999
dxflib 2.0.0.7
  0
SECTION
  2
HEADER
  9
$ACADVER
  1
AC1015
  9
$HANDSEED
  5
FFFF
  0
ENDSEC
  9
$DIMASZ
 40
2.5
  9
$DIMGAP
 40
0.625
  9
$DIMEXO
 40
0.625
  9
$INSUNITS
 70
4
  9
$DIMTXT
 40
2.5
  9
$DIMSTYLE
  2
Standard
  9
$PLIMMAX
 10
210.0
 20
297.0
 30
0.0
  9
$PLIMMIN
 10
0.0
 20
0.0
 30
0.0
  9
$DIMEXE
 40
1.25
  0
ENDSEC
  0
SECTION
  2
TABLES
  0
TABLE
  2
VPORT
  5
8
100
AcDbSymbolTable
 70
1
  0
VPORT
  5
30
100
AcDbSymbolTableRecord
100
AcDbViewportTableRecord
  2
*Active
 70
0
 10
0.0
 20
0.0
 11
1.0
 21
1.0
 12
286.3055555555554861
 22
148.5
 13
0.0
 23
0.0
 14
10.0
 24
10.0
 15
10.0
 25
10.0
 16
0.0
 26
0.0
 36
1.0
 17
0.0
 27
0.0
 37
0.0
 40
297.0
 41
1.92798353909465
 42
50.0
 43
0.0
 44
0.0
 50
0.0
 51
0.0
 71
0
 72
100
 73
1
 74
3
 75
1
 76
1
 77
0
 78
0
281
0
 65
1
110
0.0
120
0.0
130
0.0
111
1.0
121
0.0
131
0.0
112
0.0
122
1.0
132
0.0
 79
0
146
0.0
  0
ENDTAB
  0
TABLE
  2
LTYPE
  5
5
100
AcDbSymbolTable
 70
3
  0
LTYPE
  5
14
100
AcDbSymbolTableRecord
100
AcDbLinetypeTableRecord
  2
ByBlock
 70
0
  3

 72
65
 73
0
 40
0.0
  0
LTYPE
  5
15
100
AcDbSymbolTableRecord
100
AcDbLinetypeTableRecord
  2
ByLayer
 70
0
  3

 72
65
 73
0
 40
0.0
  0
LTYPE
  5
16
100
AcDbSymbolTableRecord
100
AcDbLinetypeTableRecord
  2
CONTINUOUS
 70
0
  3
Solid line
 72
65
 73
0
 40
0.0
  0
LTYPE
  5
31
100
AcDbSymbolTableRecord
100
AcDbLinetypeTableRecord
  2
DOT
 70
0
  0
LTYPE
  5
32
100
AcDbSymbolTableRecord
100
AcDbLinetypeTableRecord
  2
DOT2
 70
0
  0
LTYPE
  5
33
100
AcDbSymbolTableRecord
100
AcDbLinetypeTableRecord
  2
DOTX2
 70
0
  0
LTYPE
  5
34
100
AcDbSymbolTableRecord
100
AcDbLinetypeTableRecord
  2
DASHED
 70
0
  0
LTYPE
  5
35
100
AcDbSymbolTableRecord
100
AcDbLinetypeTableRecord
  2
DASHED2
 70
0
  0
LTYPE
  5
36
100
AcDbSymbolTableRecord
100
AcDbLinetypeTableRecord
  2
DASHEDX2
 70
0
  0
LTYPE
  5
37
100
AcDbSymbolTableRecord
100
AcDbLinetypeTableRecord
  2
DASHDOT
 70
0
  0
LTYPE
  5
38
100
AcDbSymbolTableRecord
100
AcDbLinetypeTableRecord
  2
DASHDOT2
 70
0
  0
LTYPE
  5
39
100
AcDbSymbolTableRecord
100
AcDbLinetypeTableRecord
  2
DASHDOTX2
 70
0
  0
LTYPE
  5
3A
100
AcDbSymbolTableRecord
100
AcDbLinetypeTableRecord
  2
DIVIDE
 70
0
  0
LTYPE
  5
3B
100
AcDbSymbolTableRecord
100
AcDbLinetypeTableRecord
  2
DIVIDE2
 70
0
  0
LTYPE
  5
3C
100
AcDbSymbolTableRecord
100
AcDbLinetypeTableRecord
  2
DIVIDEX2
 70
0
  0
LTYPE
  5
3D
100
AcDbSymbolTableRecord
100
AcDbLinetypeTableRecord
  2
CENTER
 70
0
  0
LTYPE
  5
3E
100
AcDbSymbolTableRecord
100
AcDbLinetypeTableRecord
  2
CENTER2
 70
0
  0
LTYPE
  5
3F
100
AcDbSymbolTableRecord
100
AcDbLinetypeTableRecord
  2
CENTERX2
 70
0
  0
LTYPE
  5
40
100
AcDbSymbolTableRecord
100
AcDbLinetypeTableRecord
  2
BORDER
 70
0
  0
LTYPE
  5
41
100
AcDbSymbolTableRecord
100
AcDbLinetypeTableRecord
  2
BORDER2
 70
0
  0
LTYPE
  5
42
100
AcDbSymbolTableRecord
100
AcDbLinetypeTableRecord
  2
BORDERX2
 70
0
  0
ENDTAB
  0
TABLE
  2
LAYER
  5
2
100
AcDbSymbolTable
 70
2
  0
LAYER
  5
10
100
AcDbSymbolTableRecord
100
AcDbLayerTableRecord
  2
0
 70
0
 62
7
  6
CONTINUOUS
370
0
390
F
  0
LAYER
  5
43
100
AcDbSymbolTableRecord
100
AcDbLayerTableRecord
  2
contour
 70
0
 62
7
  6
CONTINUOUS
370
35
390
F
  0
ENDTAB
  0
TABLE
  2
STYLE
  5
3
100
AcDbSymbolTable
 70
1
  0
STYLE
  5
11
100
AcDbSymbolTableRecord
100
AcDbTextStyleTableRecord
  2
Standard
 70
0
 40
0.0
 41
1.0
 50
0.0
 71
0
 42
2.5
  3
txt
  4

  0
ENDTAB
  0
TABLE
  2
VIEW
  5
6
100
AcDbSymbolTable
 70
0
  0
ENDTAB
  0
TABLE
  2
UCS
  5
7
100
AcDbSymbolTable
 70
0
  0
ENDTAB
  0
TABLE
  2
APPID
  5
9
100
AcDbSymbolTable
 70
1
  0
APPID
  5
12
100
AcDbSymbolTableRecord
100
AcDbRegAppTableRecord
  2
ACAD
 70
0
  0
ENDTAB
  0
TABLE
  2
DIMSTYLE
  5
A
100
AcDbSymbolTable
 70
1
100
AcDbDimStyleTable
 71
0
  0
DIMSTYLE
105
27
100
AcDbSymbolTableRecord
100
AcDbDimStyleTableRecord
  2
Standard
 70
0
  0
ENDTAB
  0
TABLE
  2
BLOCK_RECORD
  5
1
100
AcDbSymbolTable
 70
1
  0
BLOCK_RECORD
  5
1F
100
AcDbSymbolTableRecord
100
AcDbBlockTableRecord
  2
*Model_Space
340
22
  0
BLOCK_RECORD
  5
1B
100
AcDbSymbolTableRecord
100
AcDbBlockTableRecord
  2
*Paper_Space
340
1E
  0
BLOCK_RECORD
  5
23
100
AcDbSymbolTableRecord
100
AcDbBlockTableRecord
  2
*Paper_Space0
340
26
  0
ENDTAB
  0
ENDSEC
  0
SECTION
  2
BLOCKS
  0
BLOCK
  5
20
100
AcDbEntity
  8
0
100
AcDbBlockBegin
  2
*Model_Space
 70
0
 10
0.0
 20
0.0
 30
0.0
  3
*Model_Space
  1

  0
ENDBLK
  5
21
100
AcDbEntity
  8
0
100
AcDbBlockEnd
  0
BLOCK
  5
1C
100
AcDbEntity
 67
1
  8
0
100
AcDbBlockBegin
  2
*Paper_Space
 70
0
 10
0.0
 20
0.0
 30
0.0
  3
*Paper_Space
  1

  0
ENDBLK
  5
1D
100
AcDbEntity
 67
1
  8
0
100
AcDbBlockEnd
  0
BLOCK
  5
24
100
AcDbEntity
  8
0
100
AcDbBlockBegin
  2
*Paper_Space0
 70
0
 10
0.0
 20
0.0
 30
0.0
  3
*Paper_Space0
  1

  0
ENDBLK
  5
25
100
AcDbEntity
  8
0
100
AcDbBlockEnd
  0
ENDSEC
  0
SECTION
  2
ENTITIES
  0
IMAGE
  5
44
  8
0
 62
256
370
-1
  6
ByLayer
100
AcDbEntity
100
AcDbRasterImage
 90
0
 10
-262.4946368953187061
 20
67.6532569317831758
 30
0.0
 11
1.0
 21
0.0
 31
0.0
 12
0.0000000000000001
 22
1.0
 32
0.0
 13
300.0
 23
202.0
340
45
 70
15
280
0
281
50
282
50
283
0
  0
LINE
  5
46
100
AcDbEntity
100
AcDbLine
  8
contour
 62
256
370
-1
  6
ByLayer
 10
145.7842356687897336
 20
238.1608280254775707
 30
0.0
 11
150.6747611464967349
 21
238.2384554140126056
 31
0.0
  0
LINE
  5
47
100
AcDbEntity
100
AcDbLine
  8
contour
 62
256
370
-1
  6
ByLayer
 10
150.6747611464967349
 20
238.2384554140126056
 30
0.0
 11
151.4510350318470557
 21
237.3845541401272499
 31
0.0
  0
LINE
  5
48
100
AcDbEntity
100
AcDbLine
  8
contour
 62
256
370
-1
  6
ByLayer
 10
151.4510350318470557
 20
237.3845541401272499
 30
0.0
 11
152.1496815286623416
 21
236.7635350318469989
 31
0.0
  0
LINE
  5
49
100
AcDbEntity
100
AcDbLine
  8
contour
 62
256
370
-1
  6
ByLayer
 10
152.1496815286623416
 20
236.7635350318469989
 30
0.0
 11
153.0812101910827039
 21
237.3069267515922149
 31
0.0
  0
LINE
  5
4A
100
AcDbEntity
100
AcDbLine
  8
contour
 62
256
370
-1
  6
ByLayer
 10
153.0812101910827039
 20
237.3069267515922149
 30
0.0
 11
153.7798566878979898
 21
238.0832006369425358
 31
0.0
  0
LINE
  5
4B
100
AcDbEntity
100
AcDbLine
  8
contour
 62
256
370
-1
  6
ByLayer
 10
153.7798566878979898
 20
238.0832006369425358
 30
0.0
 11
158.4374999999999147
 21
237.5398089171973197
 31
0.0
  0
LINE
  5
4C
100
AcDbEntity
100
AcDbLine
  8
contour
 62
256
370
-1
  6
ByLayer
 10
158.4374999999999147
 20
237.5398089171973197
 30
0.0
 11
159.7571656050954516
 21
236.4530254777068592
 31
0.0
  0
LINE
  5
4D
100
AcDbEntity
100
AcDbLine
  8
contour
 62
256
370
-1
  6
ByLayer
 10
159.7571656050954516
 20
236.4530254777068592
 30
0.0
 11
159.9124203821655215
 21
234.3570859872610015
 31
0.0
  0
LINE
  5
4E
100
AcDbEntity
100
AcDbLine
  8
contour
 62
256
370
-1
  6
ByLayer
 10
159.9124203821655215
 20
234.3570859872610015
 30
0.0
 11
158.6703821656049911
 21
234.0465764331208902
 31
0.0
  0
LINE
  5
4F
100
AcDbEntity
100
AcDbLine
  8
contour
 62
256
370
-1
  6
ByLayer
 10
158.6703821656049911
 20
234.0465764331208902
 30
0.0
 11
158.9808917197451308
 21
232.1835191082801089
 31
0.0
  0
LINE
  5
50
100
AcDbEntity
100
AcDbLine
  8
contour
 62
256
370
-1
  6
ByLayer
 10
158.9808917197451308
 20
232.1835191082801089
 30
0.0
 11
161.6202229299362045
 21
232.1058917197450739
 31
0.0
  0
LINE
  5
51
100
AcDbEntity
100
AcDbLine
  8
contour
 62
256
370
-1
  6
ByLayer
 10
161.6202229299362045
 20
232.1058917197450739
 30
0.0
 11
162.6293789808916301
 21
231.2519904458597466
 31
0.0
  0
LINE
  5
52
100
AcDbEntity
100
AcDbLine
  8
contour
 62
256
370
-1
  6
ByLayer
 10
162.6293789808916301
 20
231.2519904458597466
 30
0.0
 11
164.9582006369425926
 21
231.7953821656049627
 31
0.0
  0
LINE
  5
53
100
AcDbEntity
100
AcDbLine
  8
contour
 62
256
370
-1
  6
ByLayer
 10
164.9582006369425926
 20
231.7953821656049627
 30
0.0
 11
167.1317675159234568
 21
232.3387738853501787
 31
0.0
  0
LINE
  5
54
100
AcDbEntity
100
AcDbLine
  8
contour
 62
256
370
-1
  6
ByLayer
 10
167.1317675159234568
 20
232.3387738853501787
 30
0.0
 11
168.8395700636941683
 21
232.3387738853501787
 31
0.0
  0
LINE
  5
55
100
AcDbEntity
100
AcDbLine
  8
contour
 62
256
370
-1
  6
ByLayer
 10
168.8395700636941683
 20
232.3387738853501787
 30
0.0
 11
169.6158439490444891
 21
232.3387738853501787
 31
0.0
  0
LINE
  5
56
100
AcDbEntity
100
AcDbLine
  8
contour
 62
256
370
-1
  6
ByLayer
 10
169.6158439490444891
 20
232.3387738853501787
 30
0.0
 11
170.8578821656049911
 21
231.484872611464823
 31
0.0
  0
LINE
  5
57
100
AcDbEntity
100
AcDbLine
  8
contour
 62
256
370
-1
  6
ByLayer
 10
170.8578821656049911
 20
231.484872611464823
 30
0.0
 11
171.6341560509553119
 21
231.5624999999998579
 31
0.0
  0
LINE
  5
58
100
AcDbEntity
100
AcDbLine
  8
contour
 62
256
370
-1
  6
ByLayer
 10
171.6341560509553119
 20
231.5624999999998579
 30
0.0
 11
172.177547770700528
 21
232.0282643312100674
 31
0.0
  0
LINE
  5
59
100
AcDbEntity
100
AcDbLine
  8
contour
 62
256
370
-1
  6
ByLayer
 10
172.177547770700528
 20
232.0282643312100674
 30
0.0
 11
172.5656847133757026
 21
232.4164012738852136
 31
0.0
  0
LINE
  5
5A
100
AcDbEntity
100
AcDbLine
  8
contour
 62
256
370
-1
  6
ByLayer
 10
172.5656847133757026
 20
232.4164012738852136
 30
0.0
 11
172.9538216560508488
 21
232.5716560509552835
 31
0.0
  0
LINE
  5
5B
100
AcDbEntity
100
AcDbLine
  8
contour
 62
256
370
-1
  6
ByLayer
 10
172.9538216560508488
 20
232.5716560509552835
 30
0.0
 11
174.8168789808916301
 21
234.5899681528661063
 31
0.0
  0
LINE
  5
5C
100
AcDbEntity
100
AcDbLine
  8
contour
 62
256
370
-1
  6
ByLayer
 10
174.8168789808916301
 20
234.5899681528661063
 30
0.0
 11
174.5839968152865254
 21
235.3662420382164271
 31
0.0
  0
LINE
  5
5D
100
AcDbEntity
100
AcDbLine
  8
contour
 62
256
370
-1
  6
ByLayer
 10
174.5839968152865254
 20
235.3662420382164271
 30
0.0
 11
173.3419585987260234
 21
235.2109872611463572
 31
0.0
  0
LINE
  5
5E
100
AcDbEntity
100
AcDbLine
  8
contour
 62
256
370
-1
  6
ByLayer
 10
173.3419585987260234
 20
235.2109872611463572
 30
0.0
 11
172.7209394904457724
 21
235.6767515923565384
 31
0.0
  0
LINE
  5
5F
100
AcDbEntity
100
AcDbLine
  8
contour
 62
256
370
-1
  6
ByLayer
 10
172.7209394904457724
 20
235.6767515923565384
 30
0.0
 11
172.5656847133757026
 21
236.8411624203820338
 31
0.0
  0
LINE
  5
60
100
AcDbEntity
100
AcDbLine
  8
contour
 62
256
370
-1
  6
ByLayer
 10
172.5656847133757026
 20
236.8411624203820338
 30
0.0
 11
173.0314490445858837
 21
237.7726910828023961
 31
0.0
  0
LINE
  5
61
100
AcDbEntity
100
AcDbLine
  8
contour
 62
256
370
-1
  6
ByLayer
 10
173.0314490445858837
 20
237.7726910828023961
 30
0.0
 11
173.9629777070062744
 21
238.1608280254775707
 31
0.0
  0
LINE
  5
62
100
AcDbEntity
100
AcDbLine
  8
contour
 62
256
370
-1
  6
ByLayer
 10
173.9629777070062744
 20
238.1608280254775707
 30
0.0
 11
177.1457006369425642
 21
236.608280254776929
 31
0.0
  0
LINE
  5
63
100
AcDbEntity
100
AcDbLine
  8
contour
 62
256
370
-1
  6
ByLayer
 10
177.1457006369425642
 20
236.608280254776929
 30
0.0
 11
178.542993630573136
 21
238.0055732484075008
 31
0.0
  0
LINE
  5
64
100
AcDbEntity
100
AcDbLine
  8
contour
 62
256
370
-1
  6
ByLayer
 10
178.542993630573136
 20
238.0055732484075008
 30
0.0
 11
178.6206210191081709
 21
238.8594745222928566
 31
0.0
  0
LINE
  5
65
100
AcDbEntity
100
AcDbLine
  8
contour
 62
256
370
-1
  6
ByLayer
 10
178.6206210191081709
 20
238.8594745222928566
 30
0.0
 11
178.2324840764330247
 21
240.4896496815285332
 31
0.0
  0
LINE
  5
66
100
AcDbEntity
100
AcDbLine
  8
contour
 62
256
370
-1
  6
ByLayer
 10
178.2324840764330247
 20
240.4896496815285332
 30
0.0
 11
179.164012738853387
 21
241.9645700636941399
 31
0.0
  0
LINE
  5
67
100
AcDbEntity
100
AcDbLine
  8
contour
 62
256
370
-1
  6
ByLayer
 10
179.164012738853387
 20
241.9645700636941399
 30
0.0
 11
181.2599522292992447
 21
242.6632165605094258
 31
0.0
  0
LINE
  5
68
100
AcDbEntity
100
AcDbLine
  8
contour
 62
256
370
-1
  6
ByLayer
 10
181.2599522292992447
 20
242.6632165605094258
 30
0.0
 11
182.4243630573247401
 21
244.83678343949029
 31
0.0
  0
LINE
  5
69
100
AcDbEntity
100
AcDbLine
  8
contour
 62
256
370
-1
  6
ByLayer
 10
182.4243630573247401
 20
244.83678343949029
 30
0.0
 11
184.1321656050954232
 21
246.9327229299361477
 31
0.0
  0
LINE
  5
6A
100
AcDbEntity
100
AcDbLine
  8
contour
 62
256
370
-1
  6
ByLayer
 10
184.1321656050954232
 20
246.9327229299361477
 30
0.0
 11
186.6938694267514904
 21
246.0788216560508204
 31
0.0
  0
LINE
  5
6B
100
AcDbEntity
100
AcDbLine
  8
contour
 62
256
370
-1
  6
ByLayer
 10
186.6938694267514904
 20
246.0788216560508204
 30
0.0
 11
189.7989649681527453
 21
246.8550955414011412
 31
0.0
  0
LINE
  5
6C
100
AcDbEntity
100
AcDbLine
  8
contour
 62
256
370
-1
  6
ByLayer
 10
189.7989649681527453
 20
246.8550955414011412
 30
0.0
 11
191.894904458598603
 21
246.8550955414011412
 31
0.0
  0
LINE
  5
6D
100
AcDbEntity
100
AcDbLine
  8
contour
 62
256
370
-1
  6
ByLayer
 10
191.894904458598603
 20
246.8550955414011412
 30
0.0
 11
191.7396496815285616
 21
245.4578025477705694
 31
0.0
  0
LINE
  5
6E
100
AcDbEntity
100
AcDbLine
  8
contour
 62
256
370
-1
  6
ByLayer
 10
191.7396496815285616
 20
245.4578025477705694
 30
0.0
 11
191.1186305732482822
 21
244.6039012738852136
 31
0.0
  0
LINE
  5
6F
100
AcDbEntity
100
AcDbLine
  8
contour
 62
256
370
-1
  6
ByLayer
 10
191.1186305732482822
 20
244.6039012738852136
 30
0.0
 11
191.1186305732482822
 21
243.4394904458597182
 31
0.0
  0
LINE
  5
70
100
AcDbEntity
100
AcDbLine
  8
contour
 62
256
370
-1
  6
ByLayer
 10
191.1186305732482822
 20
243.4394904458597182
 30
0.0
 11
190.4976114649680312
 21
242.0421974522291464
 31
0.0
  0
LINE
  5
71
100
AcDbEntity
100
AcDbLine
  8
contour
 62
256
370
-1
  6
ByLayer
 10
190.4976114649680312
 20
242.0421974522291464
 30
0.0
 11
191.8172770700635681
 21
241.4211783439488954
 31
0.0
  0
LINE
  5
72
100
AcDbEntity
100
AcDbLine
  8
contour
 62
256
370
-1
  6
ByLayer
 10
191.8172770700635681
 20
241.4211783439488954
 30
0.0
 11
193.3698248407642097
 21
241.9645700636941399
 31
0.0
  0
LINE
  5
73
100
AcDbEntity
100
AcDbLine
  8
contour
 62
256
370
-1
  6
ByLayer
 10
193.3698248407642097
 20
241.9645700636941399
 30
0.0
 11
194.2237261146495655
 21
243.051353503184572
 31
0.0
  0
LINE
  5
74
100
AcDbEntity
100
AcDbLine
  8
contour
 62
256
370
-1
  6
ByLayer
 10
194.2237261146495655
 20
243.051353503184572
 30
0.0
 11
196.3196656050954232
 21
243.2842356687896768
 31
0.0
  0
LINE
  5
75
100
AcDbEntity
100
AcDbLine
  8
contour
 62
256
370
-1
  6
ByLayer
 10
196.3196656050954232
 20
243.2842356687896768
 30
0.0
 11
197.716958598725995
 21
243.8276273885348928
 31
0.0
  0
LINE
  5
76
100
AcDbEntity
100
AcDbLine
  8
contour
 62
256
370
-1
  6
ByLayer
 10
197.716958598725995
 20
243.8276273885348928
 30
0.0
 11
198.4156050955412809
 21
245.0696656050953948
 31
0.0
  0
LINE
  5
77
100
AcDbEntity
100
AcDbLine
  8
contour
 62
256
370
-1
  6
ByLayer
 10
198.4156050955412809
 20
245.0696656050953948
 30
0.0
 11
199.5800159235667763
 21
245.7683121019106807
 31
0.0
  0
LINE
  5
78
100
AcDbEntity
100
AcDbLine
  8
contour
 62
256
370
-1
  6
ByLayer
 10
199.5800159235667763
 20
245.7683121019106807
 30
0.0
 11
202.4522292993629264
 21
246.1564490445858553
 31
0.0
  0
LINE
  5
79
100
AcDbEntity
100
AcDbLine
  8
contour
 62
256
370
-1
  6
ByLayer
 10
202.4522292993629264
 20
246.1564490445858553
 30
0.0
 11
204.2376592356686729
 21
245.9235668789807505
 31
0.0
  0
LINE
  5
7A
100
AcDbEntity
100
AcDbLine
  8
contour
 62
256
370
-1
  6
ByLayer
 10
204.2376592356686729
 20
245.9235668789807505
 30
0.0
 11
205.0915605095540286
 21
244.3710191082801089
 31
0.0
  0
LINE
  5
7B
100
AcDbEntity
100
AcDbLine
  8
contour
 62
256
370
-1
  6
ByLayer
 10
205.0915605095540286
 20
244.3710191082801089
 30
0.0
 11
205.9454617834393844
 21
242.9737261146495371
 31
0.0
  0
LINE
  5
7C
100
AcDbEntity
100
AcDbLine
  8
contour
 62
256
370
-1
  6
ByLayer
 10
205.9454617834393844
 20
242.9737261146495371
 30
0.0
 11
210.0597133757960648
 21
242.5855891719743909
 31
0.0
  0
LINE
  5
7D
100
AcDbEntity
100
AcDbLine
  8
contour
 62
256
370
-1
  6
ByLayer
 10
210.0597133757960648
 20
242.5855891719743909
 30
0.0
 11
213.6305732484075293
 21
242.8960987261145021
 31
0.0
  0
LINE
  5
7E
100
AcDbEntity
100
AcDbLine
  8
contour
 62
256
370
-1
  6
ByLayer
 10
213.6305732484075293
 20
242.8960987261145021
 30
0.0
 11
215.105493630573136
 21
243.2066082802546418
 31
0.0
  0
LINE
  5
7F
100
AcDbEntity
100
AcDbLine
  8
contour
 62
256
370
-1
  6
ByLayer
 10
215.105493630573136
 20
243.2066082802546418
 30
0.0
 11
216.4251592356686729
 21
244.5262738853501787
 31
0.0
  0
LINE
  5
80
100
AcDbEntity
100
AcDbLine
  8
contour
 62
256
370
-1
  6
ByLayer
 10
216.4251592356686729
 20
244.5262738853501787
 30
0.0
 11
220.6170382165603883
 21
246.8550955414011412
 31
0.0
  0
LINE
  5
81
100
AcDbEntity
100
AcDbLine
  8
contour
 62
256
370
-1
  6
ByLayer
 10
220.6170382165603883
 20
246.8550955414011412
 30
0.0
 11
222.5577229299361761
 21
247.7089968152864685
 31
0.0
  0
LINE
  5
82
100
AcDbEntity
100
AcDbLine
  8
contour
 62
256
370
-1
  6
ByLayer
 10
222.5577229299361761
 20
247.7089968152864685
 30
0.0
 11
225.1970541401272499
 21
249.4944267515922149
 31
0.0
  0
LINE
  5
83
100
AcDbEntity
100
AcDbLine
  8
contour
 62
256
370
-1
  6
ByLayer
 10
225.1970541401272499
 20
249.4944267515922149
 30
0.0
 11
227.9140127388533585
 21
249.8049363057323262
 31
0.0
  0
LINE
  5
84
100
AcDbEntity
100
AcDbLine
  8
contour
 62
256
370
-1
  6
ByLayer
 10
227.9140127388533585
 20
249.8049363057323262
 30
0.0
 11
230.0875796178342512
 21
248.3300159235667479
 31
0.0
  0
LINE
  5
85
100
AcDbEntity
100
AcDbLine
  8
contour
 62
256
370
-1
  6
ByLayer
 10
230.0875796178342512
 20
248.3300159235667479
 30
0.0
 11
233.3479299363056043
 21
244.6815286624202486
 31
0.0
  0
LINE
  5
86
100
AcDbEntity
100
AcDbLine
  8
contour
 62
256
370
-1
  6
ByLayer
 10
233.3479299363056043
 20
244.6815286624202486
 30
0.0
 11
240.4120222929934982
 21
245.0696656050953948
 31
0.0
  0
LINE
  5
87
100
AcDbEntity
100
AcDbLine
  8
contour
 62
256
370
-1
  6
ByLayer
 10
240.4120222929934982
 20
245.0696656050953948
 30
0.0
 11
240.4896496815285332
 21
246.5445859872610015
 31
0.0
  0
LINE
  5
88
100
AcDbEntity
100
AcDbLine
  8
contour
 62
256
370
-1
  6
ByLayer
 10
240.4896496815285332
 20
246.5445859872610015
 30
0.0
 11
240.2567675159234284
 21
247.7089968152864685
 31
0.0
  0
LINE
  5
89
100
AcDbEntity
100
AcDbLine
  8
contour
 62
256
370
-1
  6
ByLayer
 10
240.2567675159234284
 20
247.7089968152864685
 30
0.0
 11
241.886942675159105
 21
248.4076433121017544
 31
0.0
  0
LINE
  5
8A
100
AcDbEntity
100
AcDbLine
  8
contour
 62
256
370
-1
  6
ByLayer
 10
241.886942675159105
 20
248.4076433121017544
 30
0.0
 11
243.2842356687896768
 21
250.5035828025476121
 31
0.0
  0
LINE
  5
8B
100
AcDbEntity
100
AcDbLine
  8
contour
 62
256
370
-1
  6
ByLayer
 10
243.2842356687896768
 20
250.5035828025476121
 30
0.0
 11
238.9371019108278915
 21
251.5127388535030377
 31
0.0
  0
LINE
  5
8C
100
AcDbEntity
100
AcDbLine
  8
contour
 62
256
370
-1
  6
ByLayer
 10
238.9371019108278915
 20
251.5127388535030377
 30
0.0
 11
236.9964171974521037
 21
252.4442675159234284
 31
0.0
  0
LINE
  5
8D
100
AcDbEntity
100
AcDbLine
  8
contour
 62
256
370
-1
  6
ByLayer
 10
236.9964171974521037
 20
252.4442675159234284
 30
0.0
 11
237.3845541401272499
 21
255.4717356687896483
 31
0.0
  0
LINE
  5
8E
100
AcDbEntity
100
AcDbLine
  8
contour
 62
256
370
-1
  6
ByLayer
 10
237.3845541401272499
 20
255.4717356687896483
 30
0.0
 11
240.2567675159234284
 21
260.9056528662418941
 31
0.0
  0
LINE
  5
8F
100
AcDbEntity
100
AcDbLine
  8
contour
 62
256
370
-1
  6
ByLayer
 10
240.2567675159234284
 20
260.9056528662418941
 30
0.0
 11
241.4988057324839303
 21
262.9239649681526885
 31
0.0
  0
LINE
  5
90
100
AcDbEntity
100
AcDbLine
  8
contour
 62
256
370
-1
  6
ByLayer
 10
241.4988057324839303
 20
262.9239649681526885
 30
0.0
 11
245.6906847133756457
 21
264.3212579617832603
 31
0.0
  0
LINE
  5
91
100
AcDbEntity
100
AcDbLine
  8
contour
 62
256
370
-1
  6
ByLayer
 10
245.6906847133756457
 20
264.3212579617832603
 30
0.0
 11
247.0103503184711826
 21
266.1066878980890351
 31
0.0
  0
LINE
  5
92
100
AcDbEntity
100
AcDbLine
  8
contour
 62
256
370
-1
  6
ByLayer
 10
247.0103503184711826
 20
266.1066878980890351
 30
0.0
 11
250.9693471337578217
 21
267.1158439490444039
 31
0.0
  0
LINE
  5
93
100
AcDbEntity
100
AcDbLine
  8
contour
 62
256
370
-1
  6
ByLayer
 10
250.9693471337578217
 20
267.1158439490444039
 30
0.0
 11
253.3757961783437906
 21
266.7277070063692577
 31
0.0
  0
LINE
  5
94
100
AcDbEntity
100
AcDbLine
  8
contour
 62
256
370
-1
  6
ByLayer
 10
253.3757961783437906
 20
266.7277070063692577
 30
0.0
 11
254.2296974522291464
 21
265.6409235668788256
 31
0.0
  0
LINE
  5
95
100
AcDbEntity
100
AcDbLine
  8
contour
 62
256
370
-1
  6
ByLayer
 10
254.2296974522291464
 20
265.6409235668788256
 30
0.0
 11
256.1703821656049627
 21
264.3988853503183236
 31
0.0
  0
LINE
  5
96
100
AcDbEntity
100
AcDbLine
  8
contour
 62
256
370
-1
  6
ByLayer
 10
256.1703821656049627
 20
264.3988853503183236
 30
0.0
 11
257.7229299363056043
 21
263.6226114649679744
 31
0.0
  0
LINE
  5
97
100
AcDbEntity
100
AcDbLine
  8
contour
 62
256
370
-1
  6
ByLayer
 10
257.7229299363056043
 20
263.6226114649679744
 30
0.0
 11
258.0334394904456872
 21
260.8280254777068308
 31
0.0
  0
LINE
  5
98
100
AcDbEntity
100
AcDbLine
  8
contour
 62
256
370
-1
  6
ByLayer
 10
258.0334394904456872
 20
260.8280254777068308
 30
0.0
 11
258.0334394904456872
 21
259.1202229299361761
 31
0.0
  0
LINE
  5
99
100
AcDbEntity
100
AcDbLine
  8
contour
 62
256
370
-1
  6
ByLayer
 10
258.0334394904456872
 20
259.1202229299361761
 30
0.0
 11
259.3531050955412525
 21
257.0242834394903184
 31
0.0
  0
LINE
  5
9A
100
AcDbEntity
100
AcDbLine
  8
contour
 62
256
370
-1
  6
ByLayer
 10
259.3531050955412525
 20
257.0242834394903184
 30
0.0
 11
260.3622611464966781
 21
259.1202229299361761
 31
0.0
  0
LINE
  5
9B
100
AcDbEntity
100
AcDbLine
  8
contour
 62
256
370
-1
  6
ByLayer
 10
260.3622611464966781
 20
259.1202229299361761
 30
0.0
 11
261.9148089171973197
 21
260.7503980891718243
 31
0.0
  0
LINE
  5
9C
100
AcDbEntity
100
AcDbLine
  8
contour
 62
256
370
-1
  6
ByLayer
 10
261.9148089171973197
 20
260.7503980891718243
 30
0.0
 11
264.4765127388533301
 21
258.5768312101909601
 31
0.0
  0
LINE
  5
9D
100
AcDbEntity
100
AcDbLine
  8
contour
 62
256
370
-1
  6
ByLayer
 10
264.4765127388533301
 20
258.5768312101909601
 30
0.0
 11
267.7368630573246833
 21
256.8690286624202486
 31
0.0
  0
LINE
  5
9E
100
AcDbEntity
100
AcDbLine
  8
contour
 62
256
370
-1
  6
ByLayer
 10
267.7368630573246833
 20
256.8690286624202486
 30
0.0
 11
266.3395700636941115
 21
255.859872611464823
 31
0.0
  0
LINE
  5
9F
100
AcDbEntity
100
AcDbLine
  8
contour
 62
256
370
-1
  6
ByLayer
 10
266.3395700636941115
 20
255.859872611464823
 30
0.0
 11
267.0382165605093974
 21
254.2296974522291464
 31
0.0
  0
LINE
  5
A0
100
AcDbEntity
100
AcDbLine
  8
contour
 62
256
370
-1
  6
ByLayer
 10
267.0382165605093974
 20
254.2296974522291464
 30
0.0
 11
269.1341560509552551
 21
253.1429140127387143
 31
0.0
  0
LINE
  5
A1
100
AcDbEntity
100
AcDbLine
  8
contour
 62
256
370
-1
  6
ByLayer
 10
269.1341560509552551
 20
253.1429140127387143
 30
0.0
 11
271.4629777070061891
 21
253.9968152866240416
 31
0.0
  0
LINE
  5
A2
100
AcDbEntity
100
AcDbLine
  8
contour
 62
256
370
-1
  6
ByLayer
 10
271.4629777070061891
 20
253.9968152866240416
 30
0.0
 11
273.4036624203820338
 21
255.238853503184572
 31
0.0
  0
LINE
  5
A3
100
AcDbEntity
100
AcDbLine
  8
contour
 62
256
370
-1
  6
ByLayer
 10
273.4036624203820338
 20
255.238853503184572
 30
0.0
 11
274.4128184713374026
 21
256.7914012738851852
 31
0.0
  0
LINE
  5
A4
100
AcDbEntity
100
AcDbLine
  8
contour
 62
256
370
-1
  6
ByLayer
 10
274.4128184713374026
 20
256.7914012738851852
 30
0.0
 11
272.7826433121017544
 21
257.8005573248406108
 31
0.0
  0
LINE
  5
A5
100
AcDbEntity
100
AcDbLine
  8
contour
 62
256
370
-1
  6
ByLayer
 10
272.7826433121017544
 20
257.8005573248406108
 30
0.0
 11
271.0748407643310429
 21
258.8097133757960364
 31
0.0
  0
LINE
  5
A6
100
AcDbEntity
100
AcDbLine
  8
contour
 62
256
370
-1
  6
ByLayer
 10
271.0748407643310429
 20
258.8097133757960364
 30
0.0
 11
271.0748407643310429
 21
260.2846337579616147
 31
0.0
  0
LINE
  5
A7
100
AcDbEntity
100
AcDbLine
  8
contour
 62
256
370
-1
  6
ByLayer
 10
271.0748407643310429
 20
260.2846337579616147
 30
0.0
 11
273.1707802547769006
 21
261.060907643311964
 31
0.0
  0
LINE
  5
A8
100
AcDbEntity
100
AcDbLine
  8
contour
 62
256
370
-1
  6
ByLayer
 10
273.1707802547769006
 20
261.060907643311964
 30
0.0
 11
276.7416401273883935
 21
260.9056528662418941
 31
0.0
  0
LINE
  5
A9
100
AcDbEntity
100
AcDbLine
  8
contour
 62
256
370
-1
  6
ByLayer
 10
276.7416401273883935
 20
260.9056528662418941
 30
0.0
 11
279.2257165605093974
 21
258.8097133757960364
 31
0.0
  0
LINE
  5
AA
100
AcDbEntity
100
AcDbLine
  8
contour
 62
256
370
-1
  6
ByLayer
 10
279.2257165605093974
 20
258.8097133757960364
 30
0.0
 11
282.2531847133756173
 21
256.9466560509552551
 31
0.0
  0
LINE
  5
AB
100
AcDbEntity
100
AcDbLine
  8
contour
 62
256
370
-1
  6
ByLayer
 10
282.2531847133756173
 20
256.9466560509552551
 30
0.0
 11
285.3582802547769006
 21
255.0059713375794672
 31
0.0
  0
LINE
  5
AC
100
AcDbEntity
100
AcDbLine
  8
contour
 62
256
370
-1
  6
ByLayer
 10
285.3582802547769006
 20
255.0059713375794672
 30
0.0
 11
287.2989649681526885
 21
255.7046178343947531
 31
0.0
  0
LINE
  5
AD
100
AcDbEntity
100
AcDbLine
  8
contour
 62
256
370
-1
  6
ByLayer
 10
287.2989649681526885
 20
255.7046178343947531
 30
0.0
 11
285.97929936305718
 21
257.9558121019106807
 31
0.0
  0
LINE
  5
AE
100
AcDbEntity
100
AcDbLine
  8
contour
 62
256
370
-1
  6
ByLayer
 10
285.97929936305718
 20
257.9558121019106807
 30
0.0
 11
285.1253980891718243
 21
260.2070063694266082
 31
0.0
  0
LINE
  5
AF
100
AcDbEntity
100
AcDbLine
  8
contour
 62
256
370
-1
  6
ByLayer
 10
285.1253980891718243
 20
260.2070063694266082
 30
0.0
 11
283.1847133757960364
 21
261.6819267515921865
 31
0.0
  0
LINE
  5
B0
100
AcDbEntity
100
AcDbLine
  8
contour
 62
256
370
-1
  6
ByLayer
 10
283.1847133757960364
 20
261.6819267515921865
 30
0.0
 11
281.3992834394902616
 21
262.6910828025476121
 31
0.0
  0
LINE
  5
B1
100
AcDbEntity
100
AcDbLine
  8
contour
 62
256
370
-1
  6
ByLayer
 10
281.3992834394902616
 20
262.6910828025476121
 30
0.0
 11
279.3033439490444039
 21
265.0199044585985462
 31
0.0
  0
LINE
  5
B2
100
AcDbEntity
100
AcDbLine
  8
contour
 62
256
370
-1
  6
ByLayer
 10
279.3033439490444039
 20
265.0199044585985462
 30
0.0
 11
277.8284235668788256
 21
266.1066878980890351
 31
0.0
  0
LINE
  5
B3
100
AcDbEntity
100
AcDbLine
  8
contour
 62
256
370
-1
  6
ByLayer
 10
277.8284235668788256
 20
266.1066878980890351
 30
0.0
 11
276.4311305732482538
 21
266.9605891719743909
 31
0.0
  0
LINE
  5
B4
100
AcDbEntity
100
AcDbLine
  8
contour
 62
256
370
-1
  6
ByLayer
 10
276.4311305732482538
 20
266.9605891719743909
 30
0.0
 11
276.6640127388533301
 21
268.3578821656049627
 31
0.0
  0
LINE
  5
B5
100
AcDbEntity
100
AcDbLine
  8
contour
 62
256
370
-1
  6
ByLayer
 10
276.6640127388533301
 20
268.3578821656049627
 30
0.0
 11
278.5270700636941115
 21
267.9697452229297596
 31
0.0
  0
LINE
  5
B6
100
AcDbEntity
100
AcDbLine
  8
contour
 62
256
370
-1
  6
ByLayer
 10
278.5270700636941115
 20
267.9697452229297596
 30
0.0
 11
280.1572452229297596
 21
266.805334394904321
 31
0.0
  0
LINE
  5
B7
100
AcDbEntity
100
AcDbLine
  8
contour
 62
256
370
-1
  6
ByLayer
 10
280.1572452229297596
 20
266.805334394904321
 30
0.0
 11
282.9518312101909032
 21
265.3304140127386859
 31
0.0
  0
LINE
  5
B8
100
AcDbEntity
100
AcDbLine
  8
contour
 62
256
370
-1
  6
ByLayer
 10
282.9518312101909032
 20
265.3304140127386859
 30
0.0
 11
284.4267515923565384
 21
264.0107484076431774
 31
0.0
  0
LINE
  5
B9
100
AcDbEntity
100
AcDbLine
  8
contour
 62
256
370
-1
  6
ByLayer
 10
284.4267515923565384
 20
264.0107484076431774
 30
0.0
 11
288.6186305732482538
 21
262.5358280254775423
 31
0.0
  0
LINE
  5
BA
100
AcDbEntity
100
AcDbLine
  8
contour
 62
256
370
-1
  6
ByLayer
 10
288.6186305732482538
 20
262.5358280254775423
 30
0.0
 11
289.550159235668616
 21
260.9056528662418941
 31
0.0
  0
LINE
  5
BB
100
AcDbEntity
100
AcDbLine
  8
contour
 62
256
370
-1
  6
ByLayer
 10
289.550159235668616
 20
260.9056528662418941
 30
0.0
 11
290.2488057324839019
 21
258.4992038216558967
 31
0.0
  0
LINE
  5
BC
100
AcDbEntity
100
AcDbLine
  8
contour
 62
256
370
-1
  6
ByLayer
 10
290.2488057324839019
 20
258.4992038216558967
 30
0.0
 11
292.1118630573246833
 21
256.5585191082801089
 31
0.0
  0
LINE
  5
BD
100
AcDbEntity
100
AcDbLine
  8
contour
 62
256
370
-1
  6
ByLayer
 10
292.1118630573246833
 20
256.5585191082801089
 30
0.0
 11
294.1301751592354776
 21
255.4717356687896483
 31
0.0
  0
LINE
  5
BE
100
AcDbEntity
100
AcDbLine
  8
contour
 62
256
370
-1
  6
ByLayer
 10
294.1301751592354776
 20
255.4717356687896483
 30
0.0
 11
297.1576433121017544
 21
254.7730891719743624
 31
0.0
  0
LINE
  5
BF
100
AcDbEntity
100
AcDbLine
  8
contour
 62
256
370
-1
  6
ByLayer
 10
297.1576433121017544
 20
254.7730891719743624
 30
0.0
 11
300.3403662420380442
 21
254.4625796178342512
 31
0.0
  0
LINE
  5
C0
100
AcDbEntity
100
AcDbLine
  8
contour
 62
256
370
-1
  6
ByLayer
 10
300.3403662420380442
 20
254.4625796178342512
 30
0.0
 11
303.9888535031845436
 21
253.9191878980890351
 31
0.0
  0
LINE
  5
C1
100
AcDbEntity
100
AcDbLine
  8
contour
 62
256
370
-1
  6
ByLayer
 10
303.9888535031845436
 20
253.9191878980890351
 30
0.0
 11
307.0939490445858269
 21
253.0652866242036794
 31
0.0
  0
LINE
  5
C2
100
AcDbEntity
100
AcDbLine
  8
contour
 62
256
370
-1
  6
ByLayer
 10
307.0939490445858269
 20
253.0652866242036794
 30
0.0
 11
309.1122611464966212
 21
250.9693471337578217
 31
0.0
  0
LINE
  5
C3
100
AcDbEntity
100
AcDbLine
  8
contour
 62
256
370
-1
  6
ByLayer
 10
309.1122611464966212
 20
250.9693471337578217
 30
0.0
 11
310.5871815286622564
 21
248.4076433121017544
 31
0.0
  0
LINE
  5
C4
100
AcDbEntity
100
AcDbLine
  8
contour
 62
256
370
-1
  6
ByLayer
 10
310.5871815286622564
 20
248.4076433121017544
 30
0.0
 11
311.5963375796176251
 21
247.4761146496813922
 31
0.0
  0
LINE
  5
C5
100
AcDbEntity
100
AcDbLine
  8
contour
 62
256
370
-1
  6
ByLayer
 10
311.5963375796176251
 20
247.4761146496813922
 30
0.0
 11
313.5370222929934698
 21
247.6313694267514336
 31
0.0
  0
LINE
  5
C6
100
AcDbEntity
100
AcDbLine
  8
contour
 62
256
370
-1
  6
ByLayer
 10
313.5370222929934698
 20
247.6313694267514336
 30
0.0
 11
316.3316082802546134
 21
245.7683121019106807
 31
0.0
  0
LINE
  5
C7
100
AcDbEntity
100
AcDbLine
  8
contour
 62
256
370
-1
  6
ByLayer
 10
316.3316082802546134
 20
245.7683121019106807
 30
0.0
 11
319.5143312101909032
 21
244.7591560509552835
 31
0.0
  0
LINE
  5
C8
100
AcDbEntity
100
AcDbLine
  8
contour
 62
256
370
-1
  6
ByLayer
 10
319.5143312101909032
 20
244.7591560509552835
 30
0.0
 11
321.6102707006367609
 21
243.594745222929788
 31
0.0
  0
LINE
  5
C9
100
AcDbEntity
100
AcDbLine
  8
contour
 62
256
370
-1
  6
ByLayer
 10
321.6102707006367609
 20
243.594745222929788
 30
0.0
 11
323.0075636942673327
 21
241.6540605095540002
 31
0.0
  0
LINE
  5
CA
100
AcDbEntity
100
AcDbLine
  8
contour
 62
256
370
-1
  6
ByLayer
 10
323.0075636942673327
 20
241.6540605095540002
 30
0.0
 11
322.3089171974520468
 21
239.4804936305731076
 31
0.0
  0
LINE
  5
CB
100
AcDbEntity
100
AcDbLine
  8
contour
 62
256
370
-1
  6
ByLayer
 10
322.3089171974520468
 20
239.4804936305731076
 30
0.0
 11
319.9024681528660494
 21
238.8594745222928566
 31
0.0
  0
LINE
  5
CC
100
AcDbEntity
100
AcDbLine
  8
contour
 62
256
370
-1
  6
ByLayer
 10
319.9024681528660494
 20
238.8594745222928566
 30
0.0
 11
319.2814490445858269
 21
237.5398089171973197
 31
0.0
  0
LINE
  5
CD
100
AcDbEntity
100
AcDbLine
  8
contour
 62
256
370
-1
  6
ByLayer
 10
319.2814490445858269
 20
237.5398089171973197
 30
0.0
 11
319.4367038216558399
 21
235.2109872611463572
 31
0.0
  0
LINE
  5
CE
100
AcDbEntity
100
AcDbLine
  8
contour
 62
256
370
-1
  6
ByLayer
 10
319.4367038216558399
 20
235.2109872611463572
 30
0.0
 11
318.5051751592354776
 21
232.8821656050953948
 31
0.0
  0
LINE
  5
CF
100
AcDbEntity
100
AcDbLine
  8
contour
 62
256
370
-1
  6
ByLayer
 10
318.5051751592354776
 20
232.8821656050953948
 30
0.0
 11
319.126194267515757
 21
229.699442675159105
 31
0.0
  0
LINE
  5
D0
100
AcDbEntity
100
AcDbLine
  8
contour
 62
256
370
-1
  6
ByLayer
 10
319.126194267515757
 20
229.699442675159105
 30
0.0
 11
319.126194267515757
 21
226.9824840764329963
 31
0.0
  0
LINE
  5
D1
100
AcDbEntity
100
AcDbLine
  8
contour
 62
256
370
-1
  6
ByLayer
 10
319.126194267515757
 20
226.9824840764329963
 30
0.0
 11
316.5644904458596898
 21
225.3523089171973197
 31
0.0
  0
LINE
  5
D2
100
AcDbEntity
100
AcDbLine
  8
contour
 62
256
370
-1
  6
ByLayer
 10
316.5644904458596898
 20
225.3523089171973197
 30
0.0
 11
314.9343152866240416
 21
223.0234872611463572
 31
0.0
  0
LINE
  5
D3
100
AcDbEntity
100
AcDbLine
  8
contour
 62
256
370
-1
  6
ByLayer
 10
314.9343152866240416
 20
223.0234872611463572
 30
0.0
 11
314.7014331210189084
 21
221.0051751592355345
 31
0.0
  0
LINE
  5
D4
100
AcDbEntity
100
AcDbLine
  8
contour
 62
256
370
-1
  6
ByLayer
 10
314.7014331210189084
 20
221.0051751592355345
 30
0.0
 11
313.1488853503182668
 21
218.9868630573247117
 31
0.0
  0
LINE
  5
D5
100
AcDbEntity
100
AcDbLine
  8
contour
 62
256
370
-1
  6
ByLayer
 10
313.1488853503182668
 20
218.9868630573247117
 30
0.0
 11
312.9936305732481969
 21
216.9685509554138889
 31
0.0
  0
LINE
  5
D6
100
AcDbEntity
100
AcDbLine
  8
contour
 62
256
370
-1
  6
ByLayer
 10
312.9936305732481969
 20
216.9685509554138889
 30
0.0
 11
310.8200636942673327
 21
215.648885350318352
 31
0.0
  0
LINE
  5
D7
100
AcDbEntity
100
AcDbLine
  8
contour
 62
256
370
-1
  6
ByLayer
 10
310.8200636942673327
 20
215.648885350318352
 30
0.0
 11
310.1214171974520468
 21
213.2424363057323546
 31
0.0
  0
LINE
  5
D8
100
AcDbEntity
100
AcDbLine
  8
contour
 62
256
370
-1
  6
ByLayer
 10
310.1214171974520468
 20
213.2424363057323546
 30
0.0
 11
308.4912420382163987
 21
210.1373407643310998
 31
0.0
  0
LINE
  5
D9
100
AcDbEntity
100
AcDbLine
  8
contour
 62
256
370
-1
  6
ByLayer
 10
308.4912420382163987
 20
210.1373407643310998
 30
0.0
 11
308.5688694267514052
 21
207.6532643312100674
 31
0.0
  0
LINE
  5
DA
100
AcDbEntity
100
AcDbLine
  8
contour
 62
256
370
-1
  6
ByLayer
 10
308.5688694267514052
 20
207.6532643312100674
 30
0.0
 11
310.5871815286622564
 21
205.24681528662407
 31
0.0
  0
LINE
  5
DB
100
AcDbEntity
100
AcDbLine
  8
contour
 62
256
370
-1
  6
ByLayer
 10
310.5871815286622564
 20
205.24681528662407
 30
0.0
 11
310.4319267515921865
 21
199.5023885350317414
 31
0.0
  0
LINE
  5
DC
100
AcDbEntity
100
AcDbLine
  8
contour
 62
256
370
-1
  6
ByLayer
 10
310.4319267515921865
 20
199.5023885350317414
 30
0.0
 11
312.3726114649679744
 21
197.8722133757960648
 31
0.0
  0
LINE
  5
DD
100
AcDbEntity
100
AcDbLine
  8
contour
 62
256
370
-1
  6
ByLayer
 10
312.3726114649679744
 20
197.8722133757960648
 30
0.0
 11
318.1946656050953379
 21
198.1827229299361761
 31
0.0
  0
LINE
  5
DE
100
AcDbEntity
100
AcDbLine
  8
contour
 62
256
370
-1
  6
ByLayer
 10
318.1946656050953379
 20
198.1827229299361761
 30
0.0
 11
321.8431528662418373
 21
197.8722133757960648
 31
0.0
  0
LINE
  5
DF
100
AcDbEntity
100
AcDbLine
  8
contour
 62
256
370
-1
  6
ByLayer
 10
321.8431528662418373
 20
197.8722133757960648
 30
0.0
 11
325.5692675159234
 21
196.2420382165603883
 31
0.0
  0
LINE
  5
E0
100
AcDbEntity
100
AcDbLine
  8
contour
 62
256
370
-1
  6
ByLayer
 10
325.5692675159234
 20
196.2420382165603883
 30
0.0
 11
330.1492834394902616
 21
195.2328821656049911
 31
0.0
  0
LINE
  5
E1
100
AcDbEntity
100
AcDbLine
  8
contour
 62
256
370
-1
  6
ByLayer
 10
330.1492834394902616
 20
195.2328821656049911
 30
0.0
 11
333.5673869044585444
 21
194.4340414777069554
 31
0.0
  0
LINE
  5
E2
100
AcDbEntity
100
AcDbLine
  8
contour
 62
256
370
-1
  6
ByLayer
 10
333.5673869044585444
 20
194.4340414777069554
 30
0.0
 11
333.2468031592355828
 21
188.4230962547770218
 31
0.0
  0
LINE
  5
E3
100
AcDbEntity
100
AcDbLine
  8
contour
 62
256
370
-1
  6
ByLayer
 10
333.2468031592355828
 20
188.4230962547770218
 30
0.0
 11
338.6165808917197069
 21
185.938572229299325
 31
0.0
  0
LINE
  5
E4
100
AcDbEntity
100
AcDbLine
  8
contour
 62
256
370
-1
  6
ByLayer
 10
338.6165808917197069
 20
185.938572229299325
 30
0.0
 11
343.9062126878980052
 21
182.8930266496815022
 31
0.0
  0
LINE
  5
E5
100
AcDbEntity
100
AcDbLine
  8
contour
 62
256
370
-1
  6
ByLayer
 10
343.9062126878980052
 20
182.8930266496815022
 30
0.0
 11
346.3105907770699901
 21
179.286459515923525
 31
0.0
  0
LINE
  5
E6
100
AcDbEntity
100
AcDbLine
  8
contour
 62
256
370
-1
  6
ByLayer
 10
346.3105907770699901
 20
179.286459515923525
 30
0.0
 11
351.5200766369426333
 21
180.1680648152865842
 31
0.0
  0
LINE
  5
E7
100
AcDbEntity
100
AcDbLine
  8
contour
 62
256
370
-1
  6
ByLayer
 10
351.5200766369426333
 20
180.1680648152865842
 30
0.0
 11
355.8479571974521605
 21
181.530545732484029
 31
0.0
  0
LINE
  5
E8
100
AcDbEntity
100
AcDbLine
  8
contour
 62
256
370
-1
  6
ByLayer
 10
355.8479571974521605
 20
181.530545732484029
 30
0.0
 11
356.4891246878980269
 21
186.9804694012738366
 31
0.0
  0
LINE
  5
E9
100
AcDbEntity
100
AcDbLine
  8
contour
 62
256
370
-1
  6
ByLayer
 10
356.4891246878980269
 20
186.9804694012738366
 30
0.0
 11
360.9772971210190349
 21
187.7017828280254435
 31
0.0
  0
LINE
  5
EA
100
AcDbEntity
100
AcDbLine
  8
contour
 62
256
370
-1
  6
ByLayer
 10
360.9772971210190349
 20
187.7017828280254435
 30
0.0
 11
361.4581727388534205
 21
191.0679121528661994
 31
0.0
  0
LINE
  5
EB
100
AcDbEntity
100
AcDbLine
  8
contour
 62
256
370
-1
  6
ByLayer
 10
361.4581727388534205
 20
191.0679121528661994
 30
0.0
 11
363.0610914649680581
 21
193.7928739872611175
 31
0.0
  0
LINE
  5
EC
100
AcDbEntity
100
AcDbLine
  8
contour
 62
256
370
-1
  6
ByLayer
 10
363.0610914649680581
 20
193.7928739872611175
 30
0.0
 11
366.5073667261145829
 21
194.4340414777069554
 31
0.0
  0
LINE
  5
ED
100
AcDbEntity
100
AcDbLine
  8
contour
 62
256
370
-1
  6
ByLayer
 10
366.5073667261145829
 20
194.4340414777069554
 30
0.0
 11
368.7514529426750869
 21
192.1098093248407395
 31
0.0
  0
LINE
  5
EE
100
AcDbEntity
100
AcDbLine
  8
contour
 62
256
370
-1
  6
ByLayer
 10
368.7514529426750869
 20
192.1098093248407395
 30
0.0
 11
372.0374363312101309
 21
189.4649934267515619
 31
0.0
  0
LINE
  5
EF
100
AcDbEntity
100
AcDbLine
  8
contour
 62
256
370
-1
  6
ByLayer
 10
372.0374363312101309
 20
189.4649934267515619
 30
0.0
 11
373.3197713121018637
 21
188.4230962547770218
 31
0.0
  0
LINE
  5
F0
100
AcDbEntity
100
AcDbLine
  8
contour
 62
256
370
-1
  6
ByLayer
 10
373.3197713121018637
 20
188.4230962547770218
 30
0.0
 11
374.3616684840763469
 21
186.8201775286623842
 31
0.0
  0
LINE
  5
F1
100
AcDbEntity
100
AcDbLine
  8
contour
 62
256
370
-1
  6
ByLayer
 10
374.3616684840763469
 20
186.8201775286623842
 30
0.0
 11
373.0793335031846709
 21
182.8128807133757618
 31
0.0
  0
LINE
  5
F2
100
AcDbEntity
100
AcDbLine
  8
contour
 62
256
370
-1
  6
ByLayer
 10
373.0793335031846709
 20
182.8128807133757618
 30
0.0
 11
372.1977282038216117
 21
177.603394853503147
 31
0.0
  0
LINE
  5
F3
100
AcDbEntity
100
AcDbLine
  8
contour
 62
256
370
-1
  6
ByLayer
 10
372.1977282038216117
 20
177.603394853503147
 30
0.0
 11
370.2742257324840125
 21
173.3556602292993318
 31
0.0
  0
LINE
  5
F4
100
AcDbEntity
100
AcDbLine
  8
contour
 62
256
370
-1
  6
ByLayer
 10
370.2742257324840125
 20
173.3556602292993318
 30
0.0
 11
371.4764147770699765
 21
170.871136203821635
 31
0.0
  0
LINE
  5
F5
100
AcDbEntity
100
AcDbLine
  8
contour
 62
256
370
-1
  6
ByLayer
 10
371.4764147770699765
 20
170.871136203821635
 30
0.0
 11
368.7514529426750869
 21
169.1880715414012286
 31
0.0
  0
LINE
  5
F6
100
AcDbEntity
100
AcDbLine
  8
contour
 62
256
370
-1
  6
ByLayer
 10
368.7514529426750869
 20
169.1880715414012286
 30
0.0
 11
369.3124744968152413
 21
166.6234015796177914
 31
0.0
  0
LINE
  5
F7
100
AcDbEntity
100
AcDbLine
  8
contour
 62
256
370
-1
  6
ByLayer
 10
369.3124744968152413
 20
166.6234015796177914
 30
0.0
 11
367.5492638980891229
 21
164.6998991082802206
 31
0.0
  0
LINE
  5
F8
100
AcDbEntity
100
AcDbLine
  8
contour
 62
256
370
-1
  6
ByLayer
 10
367.5492638980891229
 20
164.6998991082802206
 30
0.0
 11
369.4727663694266653
 21
160.6124563566878578
 31
0.0
  0
LINE
  5
F9
100
AcDbEntity
100
AcDbLine
  8
contour
 62
256
370
-1
  6
ByLayer
 10
369.4727663694266653
 20
160.6124563566878578
 30
0.0
 11
372.8388956942674213
 21
160.5323104203821458
 31
0.0
  0
LINE
  5
FA
100
AcDbEntity
100
AcDbLine
  8
contour
 62
256
370
-1
  6
ByLayer
 10
372.8388956942674213
 20
160.5323104203821458
 30
0.0
 11
374.5219603566878277
 21
158.2882242038216134
 31
0.0
  0
LINE
  5
FB
100
AcDbEntity
100
AcDbLine
  8
contour
 62
256
370
-1
  6
ByLayer
 10
374.5219603566878277
 20
158.2882242038216134
 30
0.0
 11
374.6822522292993085
 21
152.3574249171974202
 31
0.0
  0
LINE
  5
FC
100
AcDbEntity
100
AcDbLine
  8
contour
 62
256
370
-1
  6
ByLayer
 10
374.6822522292993085
 20
152.3574249171974202
 30
0.0
 11
372.8388956942674213
 21
150.8346521273884946
 31
0.0
  0
LINE
  5
FD
100
AcDbEntity
100
AcDbLine
  8
contour
 62
256
370
-1
  6
ByLayer
 10
372.8388956942674213
 20
150.8346521273884946
 30
0.0
 11
369.5529123057324341
 21
150.5942143184713018
 31
0.0
  0
LINE
  5
FE
100
AcDbEntity
100
AcDbLine
  8
contour
 62
256
370
-1
  6
ByLayer
 10
369.5529123057324341
 20
150.5942143184713018
 30
0.0
 11
366.7478045350317757
 21
151.0750899363057158
 31
0.0
  0
LINE
  5
FF
100
AcDbEntity
100
AcDbLine
  8
contour
 62
256
370
-1
  6
ByLayer
 10
366.7478045350317757
 20
151.0750899363057158
 30
0.0
 11
362.6603617834394413
 21
150.5140683821655898
 31
0.0
  0
LINE
  5
100
100
AcDbEntity
100
AcDbLine
  8
contour
 62
256
370
-1
  6
ByLayer
 10
362.6603617834394413
 20
150.5140683821655898
 30
0.0
 11
361.0574430573247469
 21
152.4375708535031606
 31
0.0
  0
LINE
  5
101
100
AcDbEntity
100
AcDbLine
  8
contour
 62
256
370
-1
  6
ByLayer
 10
361.0574430573247469
 20
152.4375708535031606
 30
0.0
 11
358.0920434140126645
 21
154.1206355159235386
 31
0.0
  0
LINE
  5
102
100
AcDbEntity
100
AcDbLine
  8
contour
 62
256
370
-1
  6
ByLayer
 10
358.0920434140126645
 20
154.1206355159235386
 30
0.0
 11
358.1721893503183765
 21
159.5705591847133462
 31
0.0
  0
LINE
  5
103
100
AcDbEntity
100
AcDbLine
  8
contour
 62
256
370
-1
  6
ByLayer
 10
358.1721893503183765
 20
159.5705591847133462
 30
0.0
 11
354.6457681528661965
 21
157.8874945222929682
 31
0.0
  0
LINE
  5
104
100
AcDbEntity
100
AcDbLine
  8
contour
 62
256
370
-1
  6
ByLayer
 10
354.6457681528661965
 20
157.8874945222929682
 30
0.0
 11
352.3215359999999237
 21
157.8874945222929682
 31
0.0
  0
LINE
  5
105
100
AcDbEntity
100
AcDbLine
  8
contour
 62
256
370
-1
  6
ByLayer
 10
352.3215359999999237
 20
157.8874945222929682
 30
0.0
 11
350.2377416560509005
 21
155.8037001783439166
 31
0.0
  0
LINE
  5
106
100
AcDbEntity
100
AcDbLine
  8
contour
 62
256
370
-1
  6
ByLayer
 10
350.2377416560509005
 20
155.8037001783439166
 30
0.0
 11
348.7951148025476868
 21
155.5632623694267238
 31
0.0
  0
LINE
  5
107
100
AcDbEntity
100
AcDbLine
  8
contour
 62
256
370
-1
  6
ByLayer
 10
348.7951148025476868
 20
155.5632623694267238
 30
0.0
 11
348.7951148025476868
 21
153.719905834394865
 31
0.0
  0
LINE
  5
108
100
AcDbEntity
100
AcDbLine
  8
contour
 62
256
370
-1
  6
ByLayer
 10
348.7951148025476868
 20
153.719905834394865
 30
0.0
 11
346.0701529681527973
 21
150.4339224458598494
 31
0.0
  0
LINE
  5
109
100
AcDbEntity
100
AcDbLine
  8
contour
 62
256
370
-1
  6
ByLayer
 10
346.0701529681527973
 20
150.4339224458598494
 30
0.0
 11
346.7914663949043756
 21
145.7053122038216202
 31
0.0
  0
LINE
  5
10A
100
AcDbEntity
100
AcDbLine
  8
contour
 62
256
370
-1
  6
ByLayer
 10
346.7914663949043756
 20
145.7053122038216202
 30
0.0
 11
346.8716123312101445
 21
140.4958263439490054
 31
0.0
  0
LINE
  5
10B
100
AcDbEntity
100
AcDbLine
  8
contour
 62
256
370
-1
  6
ByLayer
 10
346.8716123312101445
 20
140.4958263439490054
 30
0.0
 11
350.8789091464967669
 21
141.2171397707006122
 31
0.0
  0
LINE
  5
10C
100
AcDbEntity
100
AcDbLine
  8
contour
 62
256
370
-1
  6
ByLayer
 10
350.8789091464967669
 20
141.2171397707006122
 30
0.0
 11
353.9244547261145613
 21
138.4120319999999822
 31
0.0
  0
LINE
  5
10D
100
AcDbEntity
100
AcDbLine
  8
contour
 62
256
370
-1
  6
ByLayer
 10
353.9244547261145613
 20
138.4120319999999822
 30
0.0
 11
353.4435791082801757
 21
135.286340484076419
 31
0.0
  0
LINE
  5
10E
100
AcDbEntity
100
AcDbLine
  8
contour
 62
256
370
-1
  6
ByLayer
 10
353.4435791082801757
 20
135.286340484076419
 30
0.0
 11
350.6384713375795741
 21
131.9202111592356346
 31
0.0
  0
LINE
  5
10F
100
AcDbEntity
100
AcDbLine
  8
contour
 62
256
370
-1
  6
ByLayer
 10
350.6384713375795741
 20
131.9202111592356346
 30
0.0
 11
352.7222656815285973
 21
128.5540818343948786
 31
0.0
  0
LINE
  5
110
100
AcDbEntity
100
AcDbLine
  8
contour
 62
256
370
-1
  6
ByLayer
 10
352.7222656815285973
 20
128.5540818343948786
 30
0.0
 11
354.6457681528661965
 21
124.46663908280253
 31
0.0
  0
LINE
  5
111
100
AcDbEntity
100
AcDbLine
  8
contour
 62
256
370
-1
  6
ByLayer
 10
354.6457681528661965
 20
124.46663908280253
 30
0.0
 11
352.1612441273884428
 21
120.4593422675159076
 31
0.0
  0
LINE
  5
112
100
AcDbEntity
100
AcDbLine
  8
contour
 62
256
370
-1
  6
ByLayer
 10
352.1612441273884428
 20
120.4593422675159076
 30
0.0
 11
345.8297151592356045
 21
120.860071949044567
 31
0.0
  0
LINE
  5
113
100
AcDbEntity
100
AcDbLine
  8
contour
 62
256
370
-1
  6
ByLayer
 10
345.8297151592356045
 20
120.860071949044567
 30
0.0
 11
345.26869360509545
 21
122.3828447388534784
 31
0.0
  0
LINE
  5
114
100
AcDbEntity
100
AcDbLine
  8
contour
 62
256
370
-1
  6
ByLayer
 10
345.26869360509545
 20
122.3828447388534784
 30
0.0
 11
345.26869360509545
 21
125.2680984458598488
 31
0.0
  0
LINE
  5
115
100
AcDbEntity
100
AcDbLine
  8
contour
 62
256
370
-1
  6
ByLayer
 10
345.26869360509545
 20
125.2680984458598488
 30
0.0
 11
342.6238777070063293
 21
125.9894118726114414
 31
0.0
  0
LINE
  5
116
100
AcDbEntity
100
AcDbLine
  8
contour
 62
256
370
-1
  6
ByLayer
 10
342.6238777070063293
 20
125.9894118726114414
 30
0.0
 11
341.5819805350317893
 21
127.5923305987260932
 31
0.0
  0
LINE
  5
117
100
AcDbEntity
100
AcDbLine
  8
contour
 62
256
370
-1
  6
ByLayer
 10
341.5819805350317893
 20
127.5923305987260932
 30
0.0
 11
341.2613967898088276
 21
129.9165627515923234
 31
0.0
  0
LINE
  5
118
100
AcDbEntity
100
AcDbLine
  8
contour
 62
256
370
-1
  6
ByLayer
 10
341.2613967898088276
 20
129.9165627515923234
 30
0.0
 11
341.5018345987260773
 21
131.5194814777069894
 31
0.0
  0
LINE
  5
119
100
AcDbEntity
100
AcDbLine
  8
contour
 62
256
370
-1
  6
ByLayer
 10
341.5018345987260773
 20
131.5194814777069894
 30
0.0
 11
337.9754134012738405
 21
134.244443312101879
 31
0.0
  0
LINE
  5
11A
100
AcDbEntity
100
AcDbLine
  8
contour
 62
256
370
-1
  6
ByLayer
 10
337.9754134012738405
 20
134.244443312101879
 30
0.0
 11
334.2887003312101228
 21
132.9621083312101746
 31
0.0
  0
LINE
  5
11B
100
AcDbEntity
100
AcDbLine
  8
contour
 62
256
370
-1
  6
ByLayer
 10
334.2887003312101228
 20
132.9621083312101746
 30
0.0
 11
330.1211116433120196
 21
130.878313987261123
 31
0.0
  0
LINE
  5
11C
100
AcDbEntity
100
AcDbLine
  8
contour
 62
256
370
-1
  6
ByLayer
 10
330.1211116433120196
 20
130.878313987261123
 30
0.0
 11
325.7130851464967805
 21
130.7981680509553826
 31
0.0
  0
LINE
  5
11D
100
AcDbEntity
100
AcDbLine
  8
contour
 62
256
370
-1
  6
ByLayer
 10
325.7130851464967805
 20
130.7981680509553826
 30
0.0
 11
325.4726473375795308
 21
125.9894118726114414
 31
0.0
  0
LINE
  5
11E
100
AcDbEntity
100
AcDbLine
  8
contour
 62
256
370
-1
  6
ByLayer
 10
325.4726473375795308
 20
125.9894118726114414
 30
0.0
 11
322.2668098853502556
 21
125.2680984458598488
 31
0.0
  0
LINE
  5
11F
100
AcDbEntity
100
AcDbLine
  8
contour
 62
256
370
-1
  6
ByLayer
 10
322.2668098853502556
 20
125.2680984458598488
 30
0.0
 11
316.4161565350318028
 21
124.8673687643311894
 31
0.0
  0
LINE
  5
120
100
AcDbEntity
100
AcDbLine
  8
contour
 62
256
370
-1
  6
ByLayer
 10
316.4161565350318028
 20
124.8673687643311894
 30
0.0
 11
311.6875462929935452
 21
127.832768407643286
 31
0.0
  0
LINE
  5
121
100
AcDbEntity
100
AcDbLine
  8
contour
 62
256
370
-1
  6
ByLayer
 10
311.6875462929935452
 20
127.832768407643286
 30
0.0
 11
309.4434600764330412
 21
132.2407949044585678
 31
0.0
  0
LINE
  5
122
100
AcDbEntity
100
AcDbLine
  8
contour
 62
256
370
-1
  6
ByLayer
 10
309.4434600764330412
 20
132.2407949044585678
 30
0.0
 11
306.9589360509553444
 21
133.9238595668789458
 31
0.0
  0
LINE
  5
123
100
AcDbEntity
100
AcDbLine
  8
contour
 62
256
370
-1
  6
ByLayer
 10
306.9589360509553444
 20
133.9238595668789458
 30
0.0
 11
306.7986441783438636
 21
138.2517401273885014
 31
0.0
  0
LINE
  5
124
100
AcDbEntity
100
AcDbLine
  8
contour
 62
256
370
-1
  6
ByLayer
 10
306.7986441783438636
 20
138.2517401273885014
 30
0.0
 11
305.9971848152865732
 21
139.8546588535031674
 31
0.0
  0
LINE
  5
125
100
AcDbEntity
100
AcDbLine
  8
contour
 62
256
370
-1
  6
ByLayer
 10
305.9971848152865732
 20
139.8546588535031674
 30
0.0
 11
306.8787901146496324
 21
145.0641447133757822
 31
0.0
  0
LINE
  5
126
100
AcDbEntity
100
AcDbLine
  8
contour
 62
256
370
-1
  6
ByLayer
 10
306.8787901146496324
 20
145.0641447133757822
 30
0.0
 11
303.2722229808916836
 21
141.6980153885349978
 31
0.0
  0
LINE
  5
127
100
AcDbEntity
100
AcDbLine
  8
contour
 62
256
370
-1
  6
ByLayer
 10
303.2722229808916836
 20
141.6980153885349978
 30
0.0
 11
299.3450721019107732
 21
145.6251662675159082
 31
0.0
  0
LINE
  5
128
100
AcDbEntity
100
AcDbLine
  8
contour
 62
256
370
-1
  6
ByLayer
 10
299.3450721019107732
 20
145.6251662675159082
 30
0.0
 11
296.299526522292922
 21
143.621517859872597
 31
0.0
  0
LINE
  5
129
100
AcDbEntity
100
AcDbLine
  8
contour
 62
256
370
-1
  6
ByLayer
 10
296.299526522292922
 20
143.621517859872597
 30
0.0
 11
295.017191541401246
 21
140.5759722802547458
 31
0.0
  0
LINE
  5
12A
100
AcDbEntity
100
AcDbLine
  8
contour
 62
256
370
-1
  6
ByLayer
 10
295.017191541401246
 20
140.5759722802547458
 30
0.0
 11
294.1355862420381868
 21
137.9311563821655682
 31
0.0
  0
LINE
  5
12B
100
AcDbEntity
100
AcDbLine
  8
contour
 62
256
370
-1
  6
ByLayer
 10
294.1355862420381868
 20
137.9311563821655682
 30
0.0
 11
295.097337477706958
 21
134.805464866242005
 31
0.0
  0
LINE
  5
12C
100
AcDbEntity
100
AcDbLine
  8
contour
 62
256
370
-1
  6
ByLayer
 10
295.097337477706958
 20
134.805464866242005
 30
0.0
 11
296.21938058598721
 21
130.5577302420381898
 31
0.0
  0
LINE
  5
12D
100
AcDbEntity
100
AcDbLine
  8
contour
 62
256
370
-1
  6
ByLayer
 10
296.21938058598721
 20
130.5577302420381898
 30
0.0
 11
296.139234649681498
 21
126.9511631082802268
 31
0.0
  0
LINE
  5
12E
100
AcDbEntity
100
AcDbLine
  8
contour
 62
256
370
-1
  6
ByLayer
 10
296.139234649681498
 20
126.9511631082802268
 30
0.0
 11
294.4561699872610916
 21
124.1460553375795968
 31
0.0
  0
LINE
  5
12F
100
AcDbEntity
100
AcDbLine
  8
contour
 62
256
370
-1
  6
ByLayer
 10
294.4561699872610916
 20
124.1460553375795968
 30
0.0
 11
293.5745646878980324
 21
119.2571532229299152
 31
0.0
  0
LINE
  5
130
100
AcDbEntity
100
AcDbLine
  8
contour
 62
256
370
-1
  6
ByLayer
 10
293.5745646878980324
 20
119.2571532229299152
 30
0.0
 11
291.2503325350318164
 21
117.4137966878980706
 31
0.0
  0
LINE
  5
131
100
AcDbEntity
100
AcDbLine
  8
contour
 62
256
370
-1
  6
ByLayer
 10
291.2503325350318164
 20
117.4137966878980706
 30
0.0
 11
290.1282894267515644
 21
114.1278132993630408
 31
0.0
  0
LINE
  5
132
100
AcDbEntity
100
AcDbLine
  8
contour
 62
256
370
-1
  6
ByLayer
 10
290.1282894267515644
 20
114.1278132993630408
 30
0.0
 11
287.0827438471337132
 21
112.2043108280254557
 31
0.0
  0
LINE
  5
133
100
AcDbEntity
100
AcDbLine
  8
contour
 62
256
370
-1
  6
ByLayer
 10
287.0827438471337132
 20
112.2043108280254557
 30
0.0
 11
283.6364685859871884
 21
108.4374518216560261
 31
0.0
  0
LINE
  5
134
100
AcDbEntity
100
AcDbLine
  8
contour
 62
256
370
-1
  6
ByLayer
 10
283.6364685859871884
 20
108.4374518216560261
 30
0.0
 11
283.3158848407642836
 21
104.3500090700636775
 31
0.0
  0
LINE
  5
135
100
AcDbEntity
100
AcDbLine
  8
contour
 62
256
370
-1
  6
ByLayer
 10
283.3158848407642836
 20
104.3500090700636775
 30
0.0
 11
280.751214878980818
 21
102.8272362802547519
 31
0.0
  0
LINE
  5
136
100
AcDbEntity
100
AcDbLine
  8
contour
 62
256
370
-1
  6
ByLayer
 10
280.751214878980818
 20
102.8272362802547519
 30
0.0
 11
279.0681502165604684
 21
101.7051931719744999
 31
0.0
  0
LINE
  5
137
100
AcDbEntity
100
AcDbLine
  8
contour
 62
256
370
-1
  6
ByLayer
 10
279.0681502165604684
 20
101.7051931719744999
 30
0.0
 11
280.9115067515922988
 21
101.1441716178343739
 31
0.0
  0
LINE
  5
138
100
AcDbEntity
100
AcDbLine
  8
contour
 62
256
370
-1
  6
ByLayer
 10
280.9115067515922988
 20
101.1441716178343739
 30
0.0
 11
284.9989495031846332
 21
101.2243175541401143
 31
0.0
  0
LINE
  5
139
100
AcDbEntity
100
AcDbLine
  8
contour
 62
256
370
-1
  6
ByLayer
 10
284.9989495031846332
 20
101.2243175541401143
 30
0.0
 11
286.6018682292993276
 21
99.7015447643311887
 31
0.0
  0
LINE
  5
13A
100
AcDbEntity
100
AcDbLine
  8
contour
 62
256
370
-1
  6
ByLayer
 10
286.6018682292993276
 20
99.7015447643311887
 30
0.0
 11
285.2393873121018828
 21
98.7397935286624033
 31
0.0
  0
LINE
  5
13B
100
AcDbEntity
100
AcDbLine
  8
contour
 62
256
370
-1
  6
ByLayer
 10
285.2393873121018828
 20
98.7397935286624033
 30
0.0
 11
282.5144254777069364
 21
97.4574585477706847
 31
0.0
  0
LINE
  5
13C
100
AcDbEntity
100
AcDbLine
  8
contour
 62
256
370
-1
  6
ByLayer
 10
282.5144254777069364
 20
97.4574585477706847
 30
0.0
 11
280.1100473885349516
 21
96.8964369936305587
 31
0.0
  0
LINE
  5
13D
100
AcDbEntity
100
AcDbLine
  8
contour
 62
256
370
-1
  6
ByLayer
 10
280.1100473885349516
 20
96.8964369936305587
 30
0.0
 11
279.1482961528661804
 21
94.4920589044585739
 31
0.0
  0
LINE
  5
13E
100
AcDbEntity
100
AcDbLine
  8
contour
 62
256
370
-1
  6
ByLayer
 10
279.1482961528661804
 20
94.4920589044585739
 30
0.0
 11
281.0717986242037796
 21
91.8472430063694105
 31
0.0
  0
LINE
  5
13F
100
AcDbEntity
100
AcDbLine
  8
contour
 62
256
370
-1
  6
ByLayer
 10
281.0717986242037796
 20
91.8472430063694105
 30
0.0
 11
282.995301095541322
 21
89.6031567898089065
 31
0.0
  0
LINE
  5
140
100
AcDbEntity
100
AcDbLine
  8
contour
 62
256
370
-1
  6
ByLayer
 10
282.995301095541322
 20
89.6031567898089065
 30
0.0
 11
283.5563226496814764
 21
87.5193624458598549
 31
0.0
  0
LINE
  5
141
100
AcDbEntity
100
AcDbLine
  8
contour
 62
256
370
-1
  6
ByLayer
 10
283.5563226496814764
 20
87.5193624458598549
 30
0.0
 11
282.1136957961782628
 21
85.0348384203821439
 31
0.0
  0
LINE
  5
142
100
AcDbEntity
100
AcDbLine
  8
contour
 62
256
370
-1
  6
ByLayer
 10
282.1136957961782628
 20
85.0348384203821439
 30
0.0
 11
280.751214878980818
 21
80.3062281783439289
 31
0.0
  0
LINE
  5
143
100
AcDbEntity
100
AcDbLine
  8
contour
 62
256
370
-1
  6
ByLayer
 10
280.751214878980818
 20
80.3062281783439289
 30
0.0
 11
277.224793681528638
 21
80.7069578598726025
 31
0.0
  0
LINE
  5
144
100
AcDbEntity
100
AcDbLine
  8
contour
 62
256
370
-1
  6
ByLayer
 10
277.224793681528638
 20
80.7069578598726025
 30
0.0
 11
274.9807074649680771
 21
81.5084172229299213
 31
0.0
  0
LINE
  5
145
100
AcDbEntity
100
AcDbLine
  8
contour
 62
256
370
-1
  6
ByLayer
 10
274.9807074649680771
 20
81.5084172229299213
 30
0.0
 11
272.896913121019054
 21
81.2679794140127285
 31
0.0
  0
LINE
  5
146
100
AcDbEntity
100
AcDbLine
  8
contour
 62
256
370
-1
  6
ByLayer
 10
272.896913121019054
 20
81.2679794140127285
 30
0.0
 11
271.6145781401273211
 21
81.2679794140127285
 31
0.0
  0
LINE
  5
147
100
AcDbEntity
100
AcDbLine
  8
contour
 62
256
370
-1
  6
ByLayer
 10
271.6145781401273211
 20
81.2679794140127285
 30
0.0
 11
273.3777887388534396
 21
85.1149843566878843
 31
0.0
  0
LINE
  5
148
100
AcDbEntity
100
AcDbLine
  8
contour
 62
256
370
-1
  6
ByLayer
 10
273.3777887388534396
 20
85.1149843566878843
 30
0.0
 11
271.69472407643309
 21
88.0803839999999809
 31
0.0
  0
LINE
  5
149
100
AcDbEntity
100
AcDbLine
  8
contour
 62
256
370
-1
  6
ByLayer
 10
271.69472407643309
 20
88.0803839999999809
 30
0.0
 11
269.8513675414012027
 21
90.6450539617834181
 31
0.0
  0
LINE
  5
14A
100
AcDbEntity
100
AcDbLine
  8
contour
 62
256
370
-1
  6
ByLayer
 10
269.8513675414012027
 20
90.6450539617834181
 30
0.0
 11
268.6491784968152388
 21
94.6523507770700405
 31
0.0
  0
LINE
  5
14B
100
AcDbEntity
100
AcDbLine
  8
contour
 62
256
370
-1
  6
ByLayer
 10
268.6491784968152388
 20
94.6523507770700405
 30
0.0
 11
263.4396926369426524
 21
97.8581882292993441
 31
0.0
  0
LINE
  5
14C
100
AcDbEntity
100
AcDbLine
  8
contour
 62
256
370
-1
  6
ByLayer
 10
263.4396926369426524
 20
97.8581882292993441
 30
0.0
 11
265.9242166624203492
 21
100.8235878726114407
 31
0.0
  0
LINE
  5
14D
100
AcDbEntity
100
AcDbLine
  8
contour
 62
256
370
-1
  6
ByLayer
 10
265.9242166624203492
 20
100.8235878726114407
 30
0.0
 11
267.0462597707006012
 21
104.1897171974522109
 31
0.0
  0
LINE
  5
14E
100
AcDbEntity
100
AcDbLine
  8
contour
 62
256
370
-1
  6
ByLayer
 10
267.0462597707006012
 20
104.1897171974522109
 30
0.0
 11
262.9588170191082099
 21
105.4720521783439295
 31
0.0
  0
LINE
  5
14F
100
AcDbEntity
100
AcDbLine
  8
contour
 62
256
370
-1
  6
ByLayer
 10
262.9588170191082099
 20
105.4720521783439295
 30
0.0
 11
260.7147308025477059
 21
105.5521981146496557
 31
0.0
  0
LINE
  5
150
100
AcDbEntity
100
AcDbLine
  8
contour
 62
256
370
-1
  6
ByLayer
 10
260.7147308025477059
 20
105.5521981146496557
 30
0.0
 11
261.0353145477706676
 21
101.3044634904458405
 31
0.0
  0
LINE
  5
151
100
AcDbEntity
100
AcDbLine
  8
contour
 62
256
370
-1
  6
ByLayer
 10
261.0353145477706676
 20
101.3044634904458405
 30
0.0
 11
261.7566279745222459
 21
97.6177504203821513
 31
0.0
  0
LINE
  5
152
100
AcDbEntity
100
AcDbLine
  8
contour
 62
256
370
-1
  6
ByLayer
 10
261.7566279745222459
 20
97.6177504203821513
 30
0.0
 11
258.7110823949043947
 21
94.2516210955413811
 31
0.0
  0
LINE
  5
153
100
AcDbEntity
100
AcDbLine
  8
contour
 62
256
370
-1
  6
ByLayer
 10
258.7110823949043947
 20
94.2516210955413811
 30
0.0
 11
255.3449530700636387
 21
91.7670970700636701
 31
0.0
  0
LINE
  5
154
100
AcDbEntity
100
AcDbLine
  8
contour
 62
256
370
-1
  6
ByLayer
 10
255.3449530700636387
 20
91.7670970700636701
 30
0.0
 11
253.9824721528661939
 21
89.8435945987260993
 31
0.0
  0
LINE
  5
155
100
AcDbEntity
100
AcDbLine
  8
contour
 62
256
370
-1
  6
ByLayer
 10
253.9824721528661939
 20
89.8435945987260993
 30
0.0
 11
252.4596993630572683
 21
87.1186327643311955
 31
0.0
  0
LINE
  5
156
100
AcDbEntity
100
AcDbLine
  8
contour
 62
256
370
-1
  6
ByLayer
 10
252.4596993630572683
 20
87.1186327643311955
 30
0.0
 11
253.1008668535031347
 21
84.0730871847133585
 31
0.0
  0
LINE
  5
157
100
AcDbEntity
100
AcDbLine
  8
contour
 62
256
370
-1
  6
ByLayer
 10
253.1008668535031347
 20
84.0730871847133585
 30
0.0
 11
253.7420343439490011
 21
80.7871037961783287
 31
0.0
  0
LINE
  5
158
100
AcDbEntity
100
AcDbLine
  8
contour
 62
256
370
-1
  6
ByLayer
 10
253.7420343439490011
 20
80.7871037961783287
 30
0.0
 11
250.5361968917196975
 21
76.7798069808917063
 31
0.0
  0
LINE
  5
159
100
AcDbEntity
100
AcDbLine
  8
contour
 62
256
370
-1
  6
ByLayer
 10
250.5361968917196975
 20
76.7798069808917063
 30
0.0
 11
253.7420343439490011
 21
71.5703211210190915
 31
0.0
  0
LINE
  5
15A
100
AcDbEntity
100
AcDbLine
  8
contour
 62
256
370
-1
  6
ByLayer
 10
253.7420343439490011
 20
71.5703211210190915
 30
0.0
 11
250.1354672101910239
 21
71.4901751847133653
 31
0.0
  0
LINE
  5
15B
100
AcDbEntity
100
AcDbLine
  8
contour
 62
256
370
-1
  6
ByLayer
 10
250.1354672101910239
 20
71.4901751847133653
 30
0.0
 11
249.1737159745222527
 21
73.3335317197452099
 31
0.0
  0
LINE
  5
15C
100
AcDbEntity
100
AcDbLine
  8
contour
 62
256
370
-1
  6
ByLayer
 10
249.1737159745222527
 20
73.3335317197452099
 30
0.0
 11
247.6509431847133271
 21
76.4592232356687731
 31
0.0
  0
LINE
  5
15D
100
AcDbEntity
100
AcDbLine
  8
contour
 62
256
370
-1
  6
ByLayer
 10
247.6509431847133271
 20
76.4592232356687731
 30
0.0
 11
248.2921106751591935
 21
79.7452066242038029
 31
0.0
  0
LINE
  5
15E
100
AcDbEntity
100
AcDbLine
  8
contour
 62
256
370
-1
  6
ByLayer
 10
248.2921106751591935
 20
79.7452066242038029
 30
0.0
 11
249.6545915923566383
 21
81.0275416050955215
 31
0.0
  0
LINE
  5
15F
100
AcDbEntity
100
AcDbLine
  8
contour
 62
256
370
-1
  6
ByLayer
 10
249.6545915923566383
 20
81.0275416050955215
 30
0.0
 11
249.2538619108279647
 21
83.5922115668789587
 31
0.0
  0
LINE
  5
160
100
AcDbEntity
100
AcDbLine
  8
contour
 62
256
370
-1
  6
ByLayer
 10
249.2538619108279647
 20
83.5922115668789587
 30
0.0
 11
249.1737159745222527
 21
84.8745465477706915
 31
0.0
  0
LINE
  5
161
100
AcDbEntity
100
AcDbLine
  8
contour
 62
256
370
-1
  6
ByLayer
 10
249.1737159745222527
 20
84.8745465477706915
 30
0.0
 11
246.0480244585986895
 21
86.4774652738853291
 31
0.0
  0
LINE
  5
162
100
AcDbEntity
100
AcDbLine
  8
contour
 62
256
370
-1
  6
ByLayer
 10
246.0480244585986895
 20
86.4774652738853291
 30
0.0
 11
245.7274407133757563
 21
88.5612596178343807
 31
0.0
  0
LINE
  5
163
100
AcDbEntity
100
AcDbLine
  8
contour
 62
256
370
-1
  6
ByLayer
 10
245.7274407133757563
 20
88.5612596178343807
 30
0.0
 11
243.5635004331209643
 21
89.6031567898089065
 31
0.0
  0
LINE
  5
164
100
AcDbEntity
100
AcDbLine
  8
contour
 62
256
370
-1
  6
ByLayer
 10
243.5635004331209643
 20
89.6031567898089065
 30
0.0
 11
243.8840841783438975
 21
91.4465133248407511
 31
0.0
  0
LINE
  5
165
100
AcDbEntity
100
AcDbLine
  8
contour
 62
256
370
-1
  6
ByLayer
 10
243.8840841783438975
 20
91.4465133248407511
 30
0.0
 11
247.4105053757961343
 21
91.2862214522292845
 31
0.0
  0
LINE
  5
166
100
AcDbEntity
100
AcDbLine
  8
contour
 62
256
370
-1
  6
ByLayer
 10
247.4105053757961343
 20
91.2862214522292845
 30
0.0
 11
248.3722566114649339
 21
90.0840324076432921
 31
0.0
  0
LINE
  5
167
100
AcDbEntity
100
AcDbLine
  8
contour
 62
256
370
-1
  6
ByLayer
 10
248.3722566114649339
 20
90.0840324076432921
 30
0.0
 11
250.1354672101910239
 21
91.2060755159235441
 31
0.0
  0
LINE
  5
168
100
AcDbEntity
100
AcDbLine
  8
contour
 62
256
370
-1
  6
ByLayer
 10
250.1354672101910239
 20
91.2060755159235441
 30
0.0
 11
252.0589696815286231
 21
92.4884104968152627
 31
0.0
  0
LINE
  5
169
100
AcDbEntity
100
AcDbLine
  8
contour
 62
256
370
-1
  6
ByLayer
 10
252.0589696815286231
 20
92.4884104968152627
 30
0.0
 11
253.5015965350318083
 21
95.0530804585987141
 31
0.0
  0
LINE
  5
16A
100
AcDbEntity
100
AcDbLine
  8
contour
 62
256
370
-1
  6
ByLayer
 10
253.5015965350318083
 20
95.0530804585987141
 30
0.0
 11
255.7456827515923123
 21
97.5376044840764109
 31
0.0
  0
LINE
  5
16B
100
AcDbEntity
100
AcDbLine
  8
contour
 62
256
370
-1
  6
ByLayer
 10
255.7456827515923123
 20
97.5376044840764109
 30
0.0
 11
257.1883096050954691
 21
99.7015447643311887
 31
0.0
  0
LINE
  5
16C
100
AcDbEntity
100
AcDbLine
  8
contour
 62
256
370
-1
  6
ByLayer
 10
257.1883096050954691
 20
99.7015447643311887
 30
0.0
 11
258.3103527133757211
 21
100.4228581910827813
 31
0.0
  0
LINE
  5
16D
100
AcDbEntity
100
AcDbLine
  8
contour
 62
256
370
-1
  6
ByLayer
 10
258.3103527133757211
 20
100.4228581910827813
 30
0.0
 11
257.9897689681528163
 21
103.4684037707006183
 31
0.0
  0
LINE
  5
16E
100
AcDbEntity
100
AcDbLine
  8
contour
 62
256
370
-1
  6
ByLayer
 10
257.9897689681528163
 20
103.4684037707006183
 30
0.0
 11
257.2684555414011243
 21
106.9948249681527983
 31
0.0
  0
LINE
  5
16F
100
AcDbEntity
100
AcDbLine
  8
contour
 62
256
370
-1
  6
ByLayer
 10
257.2684555414011243
 20
106.9948249681527983
 30
0.0
 11
252.2192615541399618
 21
108.7580355668789167
 31
0.0
  0
LINE
  5
170
100
AcDbEntity
100
AcDbLine
  8
contour
 62
256
370
-1
  6
ByLayer
 10
252.2192615541399618
 20
108.7580355668789167
 30
0.0
 11
251.3376562547769026
 21
109.7999327388534425
 31
0.0
  0
LINE
  5
171
100
AcDbEntity
100
AcDbLine
  8
contour
 62
256
370
-1
  6
ByLayer
 10
251.3376562547769026
 20
109.7999327388534425
 30
0.0
 11
250.6163428280253243
 21
112.2043108280254131
 31
0.0
  0
LINE
  5
172
100
AcDbEntity
100
AcDbLine
  8
contour
 62
256
370
-1
  6
ByLayer
 10
250.6163428280253243
 20
112.2043108280254131
 30
0.0
 11
248.6928403566877535
 21
113.7270836178343245
 31
0.0
  0
LINE
  5
173
100
AcDbEntity
100
AcDbLine
  8
contour
 62
256
370
-1
  6
ByLayer
 10
248.6928403566877535
 20
113.7270836178343245
 30
0.0
 11
246.2884622675157686
 21
116.5321913885349545
 31
0.0
  0
LINE
  5
174
100
AcDbEntity
100
AcDbLine
  8
contour
 62
256
370
-1
  6
ByLayer
 10
246.2884622675157686
 20
116.5321913885349545
 30
0.0
 11
243.4032085605093982
 21
117.5740885605094803
 31
0.0
  0
LINE
  5
175
100
AcDbEntity
100
AcDbLine
  8
contour
 62
256
370
-1
  6
ByLayer
 10
243.4032085605093982
 20
117.5740885605094803
 30
0.0
 11
241.7201438980890202
 21
120.2189044585986579
 31
0.0
  0
LINE
  5
176
100
AcDbEntity
100
AcDbLine
  8
contour
 62
256
370
-1
  6
ByLayer
 10
241.7201438980890202
 20
120.2189044585986579
 30
0.0
 11
240.1973711082800946
 21
121.8218231847132955
 31
0.0
  0
LINE
  5
177
100
AcDbEntity
100
AcDbLine
  8
contour
 62
256
370
-1
  6
ByLayer
 10
240.1973711082800946
 20
121.8218231847132955
 30
0.0
 11
240.6782467261145086
 21
124.0659094012738137
 31
0.0
  0
LINE
  5
178
100
AcDbEntity
100
AcDbLine
  8
contour
 62
256
370
-1
  6
ByLayer
 10
240.6782467261145086
 20
124.0659094012738137
 30
0.0
 11
238.9951820636941306
 21
125.5085362547769989
 31
0.0
  0
LINE
  5
179
100
AcDbEntity
100
AcDbLine
  8
contour
 62
256
370
-1
  6
ByLayer
 10
238.9951820636941306
 20
125.5085362547769989
 30
0.0
 11
240.9988304713374418
 21
128.6342277707005621
 31
0.0
  0
LINE
  5
17A
100
AcDbEntity
100
AcDbLine
  8
contour
 62
256
370
-1
  6
ByLayer
 10
240.9988304713374418
 20
128.6342277707005621
 30
0.0
 11
241.7201438980890202
 21
133.3628380127387629
 31
0.0
  0
LINE
  5
17B
100
AcDbEntity
100
AcDbLine
  8
contour
 62
256
370
-1
  6
ByLayer
 10
241.7201438980890202
 20
133.3628380127387629
 30
0.0
 11
240.9186845350317014
 21
136.9694051464967401
 31
0.0
  0
LINE
  5
17C
100
AcDbEntity
100
AcDbLine
  8
contour
 62
256
370
-1
  6
ByLayer
 10
240.9186845350317014
 20
136.9694051464967401
 30
0.0
 11
239.155473936305583
 21
139.9348047898088225
 31
0.0
  0
LINE
  5
17D
100
AcDbEntity
100
AcDbLine
  8
contour
 62
256
370
-1
  6
ByLayer
 10
239.155473936305583
 20
139.9348047898088225
 30
0.0
 11
235.6290527388533462
 21
138.8929076178343109
 31
0.0
  0
LINE
  5
17E
100
AcDbEntity
100
AcDbLine
  8
contour
 62
256
370
-1
  6
ByLayer
 10
235.6290527388533462
 20
138.8929076178343109
 30
0.0
 11
232.9040909044584566
 21
137.0495510828024521
 31
0.0
  0
LINE
  5
17F
100
AcDbEntity
100
AcDbLine
  8
contour
 62
256
370
-1
  6
ByLayer
 10
232.9040909044584566
 20
137.0495510828024521
 30
0.0
 11
231.4614640509552714
 21
135.1260486114648813
 31
0.0
  0
LINE
  5
180
100
AcDbEntity
100
AcDbLine
  8
contour
 62
256
370
-1
  6
ByLayer
 10
231.4614640509552714
 20
135.1260486114648813
 30
0.0
 11
232.2629234140125902
 21
133.3628380127387629
 31
0.0
  0
LINE
  5
181
100
AcDbEntity
100
AcDbLine
  8
contour
 62
256
370
-1
  6
ByLayer
 10
232.2629234140125902
 20
133.3628380127387629
 30
0.0
 11
231.301172178343819
 21
131.3591896050954517
 31
0.0
  0
LINE
  5
182
100
AcDbEntity
100
AcDbLine
  8
contour
 62
256
370
-1
  6
ByLayer
 10
231.301172178343819
 20
131.3591896050954517
 30
0.0
 11
228.7365022165603818
 21
129.1952493248406881
 31
0.0
  0
LINE
  5
183
100
AcDbEntity
100
AcDbLine
  8
contour
 62
256
370
-1
  6
ByLayer
 10
228.7365022165603818
 20
129.1952493248406881
 30
0.0
 11
227.2137294267514562
 21
127.0313090445859103
 31
0.0
  0
LINE
  5
184
100
AcDbEntity
100
AcDbLine
  8
contour
 62
256
370
-1
  6
ByLayer
 10
227.2137294267514562
 20
127.0313090445859103
 30
0.0
 11
225.2902269554138854
 21
125.8291199999999179
 31
0.0
  0
LINE
  5
185
100
AcDbEntity
100
AcDbLine
  8
contour
 62
256
370
-1
  6
ByLayer
 10
225.2902269554138854
 20
125.8291199999999179
 30
0.0
 11
221.7638057579616486
 21
124.8673687643311325
 31
0.0
  0
LINE
  5
186
100
AcDbEntity
100
AcDbLine
  8
contour
 62
256
370
-1
  6
ByLayer
 10
221.7638057579616486
 20
124.8673687643311325
 30
0.0
 11
218.7984061146495378
 21
123.5850337834394139
 31
0.0
  0
LINE
  5
187
100
AcDbEntity
100
AcDbLine
  8
contour
 62
256
370
-1
  6
ByLayer
 10
218.7984061146495378
 20
123.5850337834394139
 30
0.0
 11
218.2373845605094118
 21
121.5813853757961027
 31
0.0
  0
LINE
  5
188
100
AcDbEntity
100
AcDbLine
  8
contour
 62
256
370
-1
  6
ByLayer
 10
218.2373845605094118
 20
121.5813853757961027
 30
0.0
 11
219.9204492229297898
 21
119.4975910318470653
 31
0.0
  0
LINE
  5
189
100
AcDbEntity
100
AcDbLine
  8
contour
 62
256
370
-1
  6
ByLayer
 10
219.9204492229297898
 20
119.4975910318470653
 30
0.0
 11
221.843951694267389
 21
117.4939426242037541
 31
0.0
  0
LINE
  5
18A
100
AcDbEntity
100
AcDbLine
  8
contour
 62
256
370
-1
  6
ByLayer
 10
221.843951694267389
 20
117.4939426242037541
 30
0.0
 11
223.1262866751590934
 21
113.9675214267515173
 31
0.0
  0
LINE
  5
18B
100
AcDbEntity
100
AcDbLine
  8
contour
 62
256
370
-1
  6
ByLayer
 10
223.1262866751590934
 20
113.9675214267515173
 30
0.0
 11
222.0042435668788414
 21
110.6815380382164875
 31
0.0
  0
LINE
  5
18C
100
AcDbEntity
100
AcDbLine
  8
contour
 62
256
370
-1
  6
ByLayer
 10
222.0042435668788414
 20
110.6815380382164875
 30
0.0
 11
220.241032968152723
 21
108.4374518216559835
 31
0.0
  0
LINE
  5
18D
100
AcDbEntity
100
AcDbLine
  8
contour
 62
256
370
-1
  6
ByLayer
 10
220.241032968152723
 20
108.4374518216559835
 30
0.0
 11
217.8366548789807666
 21
106.4338034140126723
 31
0.0
  0
LINE
  5
18E
100
AcDbEntity
100
AcDbLine
  8
contour
 62
256
370
-1
  6
ByLayer
 10
217.8366548789807666
 20
106.4338034140126723
 30
0.0
 11
214.5506714904457226
 21
105.7926359235668201
 31
0.0
  0
LINE
  5
18F
100
AcDbEntity
100
AcDbLine
  8
contour
 62
256
370
-1
  6
ByLayer
 10
214.5506714904457226
 20
105.7926359235668201
 30
0.0
 11
215.2719849171973294
 21
103.1478200254776425
 31
0.0
  0
LINE
  5
190
100
AcDbEntity
100
AcDbLine
  8
contour
 62
256
370
-1
  6
ByLayer
 10
215.2719849171973294
 20
103.1478200254776425
 30
0.0
 11
214.2300877452227894
 21
100.9838797452228647
 31
0.0
  0
LINE
  5
191
100
AcDbEntity
100
AcDbLine
  8
contour
 62
256
370
-1
  6
ByLayer
 10
214.2300877452227894
 20
100.9838797452228647
 30
0.0
 11
213.2683365095540182
 21
98.5795016560508941
 31
0.0
  0
LINE
  5
192
100
AcDbEntity
100
AcDbLine
  8
contour
 62
256
370
-1
  6
ByLayer
 10
213.2683365095540182
 20
98.5795016560508941
 30
0.0
 11
211.1043962292992262
 21
96.6559991847133091
 31
0.0
  0
LINE
  5
193
100
AcDbEntity
100
AcDbLine
  8
contour
 62
256
370
-1
  6
ByLayer
 10
211.1043962292992262
 20
96.6559991847133091
 30
0.0
 11
207.8985587770699226
 21
95.8545398216559903
 31
0.0
  0
LINE
  5
194
100
AcDbEntity
100
AcDbLine
  8
contour
 62
256
370
-1
  6
ByLayer
 10
207.8985587770699226
 20
95.8545398216559903
 30
0.0
 11
206.7765156687896706
 21
94.6523507770700121
 31
0.0
  0
LINE
  5
195
100
AcDbEntity
100
AcDbLine
  8
contour
 62
256
370
-1
  6
ByLayer
 10
206.7765156687896706
 20
94.6523507770700121
 30
0.0
 11
203.5706782165603954
 21
93.3700157961782793
 31
0.0
  0
LINE
  5
196
100
AcDbEntity
100
AcDbLine
  8
contour
 62
256
370
-1
  6
ByLayer
 10
203.5706782165603954
 20
93.3700157961782793
 30
0.0
 11
203.7309700891718478
 21
90.8854917707005825
 31
0.0
  0
LINE
  5
197
100
AcDbEntity
100
AcDbLine
  8
contour
 62
256
370
-1
  6
ByLayer
 10
203.7309700891718478
 20
90.8854917707005825
 30
0.0
 11
203.1699485350317218
 21
89.2825730445859307
 31
0.0
  0
LINE
  5
198
100
AcDbEntity
100
AcDbLine
  8
contour
 62
256
370
-1
  6
ByLayer
 10
203.1699485350317218
 20
89.2825730445859307
 30
0.0
 11
201.4868838726113438
 21
88.2406758726114049
 31
0.0
  0
LINE
  5
199
100
AcDbEntity
100
AcDbLine
  8
contour
 62
256
370
-1
  6
ByLayer
 10
201.4868838726113438
 20
88.2406758726114049
 30
0.0
 11
198.7619220382164258
 21
88.4811136815286119
 31
0.0
  0
LINE
  5
19A
100
AcDbEntity
100
AcDbLine
  8
contour
 62
256
370
-1
  6
ByLayer
 10
198.7619220382164258
 20
88.4811136815286119
 30
0.0
 11
196.1171061401272766
 21
88.9619892993629975
 31
0.0
  0
LINE
  5
19B
100
AcDbEntity
100
AcDbLine
  8
contour
 62
256
370
-1
  6
ByLayer
 10
196.1171061401272766
 20
88.9619892993629975
 30
0.0
 11
194.3538955414011582
 21
89.2024271082802045
 31
0.0
  0
LINE
  5
19C
100
AcDbEntity
100
AcDbLine
  8
contour
 62
256
370
-1
  6
ByLayer
 10
194.3538955414011582
 20
89.2024271082802045
 30
0.0
 11
192.5906849426750398
 21
89.6031567898088639
 31
0.0
  0
LINE
  5
19D
100
AcDbEntity
100
AcDbLine
  8
contour
 62
256
370
-1
  6
ByLayer
 10
192.5906849426750398
 20
89.6031567898088639
 30
0.0
 11
190.667182471337469
 21
90.5649080254776493
 31
0.0
  0
LINE
  5
19E
100
AcDbEntity
100
AcDbLine
  8
contour
 62
256
370
-1
  6
ByLayer
 10
190.667182471337469
 20
90.5649080254776493
 30
0.0
 11
189.2245556178342838
 21
91.6068051974521751
 31
0.0
  0
LINE
  5
19F
100
AcDbEntity
100
AcDbLine
  8
contour
 62
256
370
-1
  6
ByLayer
 10
189.2245556178342838
 20
91.6068051974521751
 30
0.0
 11
187.7017828280253582
 21
93.1295779872610865
 31
0.0
  0
LINE
  5
1A0
100
AcDbEntity
100
AcDbLine
  8
contour
 62
256
370
-1
  6
ByLayer
 10
187.7017828280253582
 20
93.1295779872610865
 30
0.0
 11
185.2172588025476614
 21
92.4884104968152343
 31
0.0
  0
LINE
  5
1A1
100
AcDbEntity
100
AcDbLine
  8
contour
 62
256
370
-1
  6
ByLayer
 10
185.2172588025476614
 20
92.4884104968152343
 30
0.0
 11
184.3356535031846022
 21
92.7288483057324271
 31
0.0
  0
LINE
  5
1A2
100
AcDbEntity
100
AcDbLine
  8
contour
 62
256
370
-1
  6
ByLayer
 10
184.3356535031846022
 20
92.7288483057324271
 30
0.0
 11
182.0915672866240982
 21
94.7324967133757383
 31
0.0
  0
LINE
  5
1A3
100
AcDbEntity
100
AcDbLine
  8
contour
 62
256
370
-1
  6
ByLayer
 10
182.0915672866240982
 20
94.7324967133757383
 30
0.0
 11
181.4554089171974169
 21
91.4164585987260949
 31
0.0
  0
LINE
  5
1A4
100
AcDbEntity
100
AcDbLine
  8
contour
 62
256
370
-1
  6
ByLayer
 10
181.4554089171974169
 20
91.4164585987260949
 30
0.0
 11
177.6985681528662155
 21
91.4164585987260949
 31
0.0
  0
LINE
  5
1A5
100
AcDbEntity
100
AcDbLine
  8
contour
 62
256
370
-1
  6
ByLayer
 10
177.6985681528662155
 20
91.4164585987260949
 30
0.0
 11
175.319235668789787
 21
88.5362140127388386
 31
0.0
  0
LINE
  5
1A6
100
AcDbEntity
100
AcDbLine
  8
contour
 62
256
370
-1
  6
ByLayer
 10
175.319235668789787
 20
88.5362140127388386
 30
0.0
 11
173.4408152866241721
 21
86.9082496815286447
 31
0.0
  0
LINE
  5
1A7
100
AcDbEntity
100
AcDbLine
  8
contour
 62
256
370
-1
  6
ByLayer
 10
173.4408152866241721
 20
86.9082496815286447
 30
0.0
 11
169.3082904458598534
 21
87.6596178343948935
 31
0.0
  0
LINE
  5
1A8
100
AcDbEntity
100
AcDbLine
  8
contour
 62
256
370
-1
  6
ByLayer
 10
169.3082904458598534
 20
87.6596178343948935
 30
0.0
 11
164.1739414012738507
 21
88.0353019108280108
 31
0.0
  0
LINE
  5
1A9
100
AcDbEntity
100
AcDbLine
  8
contour
 62
256
370
-1
  6
ByLayer
 10
164.1739414012738507
 20
88.0353019108280108
 30
0.0
 11
163.1721171974521951
 21
85.5307414012738718
 31
0.0
  0
LINE
  5
1AA
100
AcDbEntity
100
AcDbLine
  8
contour
 62
256
370
-1
  6
ByLayer
 10
163.1721171974521951
 20
85.5307414012738718
 30
0.0
 11
160.4171006369426493
 21
85.7811974522292786
 31
0.0
  0
LINE
  5
1AB
100
AcDbEntity
100
AcDbLine
  8
contour
 62
256
370
-1
  6
ByLayer
 10
160.4171006369426493
 20
85.7811974522292786
 30
0.0
 11
158.7891363057324554
 21
83.6523210191082711
 31
0.0
  0
LINE
  5
1AC
100
AcDbEntity
100
AcDbLine
  8
contour
 62
256
370
-1
  6
ByLayer
 10
158.7891363057324554
 20
83.6523210191082711
 30
0.0
 11
156.7854878980891442
 21
83.9027770700636779
 31
0.0
  0
LINE
  5
1AD
100
AcDbEntity
100
AcDbLine
  8
contour
 62
256
370
-1
  6
ByLayer
 10
156.7854878980891442
 20
83.9027770700636779
 30
0.0
 11
155.5332076433120676
 21
84.9046012738853335
 31
0.0
  0
LINE
  5
1AE
100
AcDbEntity
100
AcDbLine
  8
contour
 62
256
370
-1
  6
ByLayer
 10
155.5332076433120676
 20
84.9046012738853335
 30
0.0
 11
153.5295592356687564
 21
84.9046012738853335
 31
0.0
  0
LINE
  5
1AF
100
AcDbEntity
100
AcDbLine
  8
contour
 62
256
370
-1
  6
ByLayer
 10
153.5295592356687564
 20
84.9046012738853335
 30
0.0
 11
153.2791031847133354
 21
83.6523210191082711
 31
0.0
  0
LINE
  5
1B0
100
AcDbEntity
100
AcDbLine
  8
contour
 62
256
370
-1
  6
ByLayer
 10
153.2791031847133354
 20
83.6523210191082711
 30
0.0
 11
151.1502267515923279
 21
83.7775490445859674
 31
0.0
  0
LINE
  5
1B1
100
AcDbEntity
100
AcDbLine
  8
contour
 62
256
370
-1
  6
ByLayer
 10
151.1502267515923279
 20
83.7775490445859674
 30
0.0
 11
150.5240866242037896
 21
86.6577936305732379
 31
0.0
  0
LINE
  5
1B2
100
AcDbEntity
100
AcDbLine
  8
contour
 62
256
370
-1
  6
ByLayer
 10
150.5240866242037896
 20
86.6577936305732379
 30
0.0
 11
148.5204382165604784
 21
88.6614420382165491
 31
0.0
  0
LINE
  5
1B3
100
AcDbEntity
100
AcDbLine
  8
contour
 62
256
370
-1
  6
ByLayer
 10
148.5204382165604784
 20
88.6614420382165491
 30
0.0
 11
147.6438420382165191
 21
91.4164585987260949
 31
0.0
  0
LINE
  5
1B4
100
AcDbEntity
100
AcDbLine
  8
contour
 62
256
370
-1
  6
ByLayer
 10
147.6438420382165191
 20
91.4164585987260949
 30
0.0
 11
146.1411057324840499
 21
94.5471592356687722
 31
0.0
  0
LINE
  5
1B5
100
AcDbEntity
100
AcDbLine
  8
contour
 62
256
370
-1
  6
ByLayer
 10
146.1411057324840499
 20
94.5471592356687722
 30
0.0
 11
145.2645095541400906
 21
97.6778598726114495
 31
0.0
  0
LINE
  5
1B6
100
AcDbEntity
100
AcDbLine
  8
contour
 62
256
370
-1
  6
ByLayer
 10
145.2645095541400906
 20
97.6778598726114495
 30
0.0
 11
142.1338089171974275
 21
99.6815082802547607
 31
0.0
  0
LINE
  5
1B7
100
AcDbEntity
100
AcDbLine
  8
contour
 62
256
370
-1
  6
ByLayer
 10
142.1338089171974275
 20
99.6815082802547607
 30
0.0
 11
141.0067566878980756
 21
102.0608407643311892
 31
0.0
  0
LINE
  5
1B8
100
AcDbEntity
100
AcDbLine
  8
contour
 62
256
370
-1
  6
ByLayer
 10
141.0067566878980756
 20
102.0608407643311892
 30
0.0
 11
138.2517401273885014
 21
100.6833324840764163
 31
0.0
  0
LINE
  5
1B9
100
AcDbEntity
100
AcDbLine
  8
contour
 62
256
370
-1
  6
ByLayer
 10
138.2517401273885014
 20
100.6833324840764163
 30
0.0
 11
136.3733197452229149
 21
101.8103847133757824
 31
0.0
  0
LINE
  5
1BA
100
AcDbEntity
100
AcDbLine
  8
contour
 62
256
370
-1
  6
ByLayer
 10
136.3733197452229149
 20
101.8103847133757824
 30
0.0
 11
138.6274242038216187
 21
104.5654012738853282
 31
0.0
  0
LINE
  5
1BB
100
AcDbEntity
100
AcDbLine
  8
contour
 62
256
370
-1
  6
ByLayer
 10
138.6274242038216187
 20
104.5654012738853282
 30
0.0
 11
138.2517401273885014
 21
109.0736101910827784
 31
0.0
  0
LINE
  5
1BC
100
AcDbEntity
100
AcDbLine
  8
contour
 62
256
370
-1
  6
ByLayer
 10
138.2517401273885014
 20
109.0736101910827784
 30
0.0
 11
133.4930751592356444
 21
108.9483821656050822
 31
0.0
  0
LINE
  5
1BD
100
AcDbEntity
100
AcDbLine
  8
contour
 62
256
370
-1
  6
ByLayer
 10
133.4930751592356444
 20
108.9483821656050822
 30
0.0
 11
131.7398828025477542
 21
109.5745222929936062
 31
0.0
  0
LINE
  5
1BE
100
AcDbEntity
100
AcDbLine
  8
contour
 62
256
370
-1
  6
ByLayer
 10
131.7398828025477542
 20
109.5745222929936062
 30
0.0
 11
131.8651108280254505
 21
112.4547668789808768
 31
0.0
  0
LINE
  5
1BF
100
AcDbEntity
100
AcDbLine
  8
contour
 62
256
370
-1
  6
ByLayer
 10
131.8651108280254505
 20
112.4547668789808768
 30
0.0
 11
133.1173910828025271
 21
114.207959235668767
 31
0.0
  0
LINE
  5
1C0
100
AcDbEntity
100
AcDbLine
  8
contour
 62
256
370
-1
  6
ByLayer
 10
133.1173910828025271
 20
114.207959235668767
 30
0.0
 11
133.3678471337579481
 21
118.2152560509553894
 31
0.0
  0
LINE
  5
1C1
100
AcDbEntity
100
AcDbLine
  8
contour
 62
256
370
-1
  6
ByLayer
 10
133.3678471337579481
 20
118.2152560509553894
 30
0.0
 11
134.995811464968142
 21
120.3441324840764111
 31
0.0
  0
LINE
  5
1C2
100
AcDbEntity
100
AcDbLine
  8
contour
 62
256
370
-1
  6
ByLayer
 10
134.995811464968142
 20
120.3441324840764111
 30
0.0
 11
135.8724076433120729
 21
122.7234649681528396
 31
0.0
  0
LINE
  5
1C3
100
AcDbEntity
100
AcDbLine
  8
contour
 62
256
370
-1
  6
ByLayer
 10
135.8724076433120729
 20
122.7234649681528396
 30
0.0
 11
135.4967235668789556
 21
125.1027974522292823
 31
0.0
  0
LINE
  5
1C4
100
AcDbEntity
100
AcDbLine
  8
contour
 62
256
370
-1
  6
ByLayer
 10
135.4967235668789556
 20
125.1027974522292823
 30
0.0
 11
132.8669350318471061
 21
126.8559898089171725
 31
0.0
  0
LINE
  5
1C5
100
AcDbEntity
100
AcDbLine
  8
contour
 62
256
370
-1
  6
ByLayer
 10
132.8669350318471061
 20
126.8559898089171725
 30
0.0
 11
130.3623745222929813
 21
128.2334980891719454
 31
0.0
  0
LINE
  5
1C6
100
AcDbEntity
100
AcDbLine
  8
contour
 62
256
370
-1
  6
ByLayer
 10
130.3623745222929813
 20
128.2334980891719454
 30
0.0
 11
130.9885146496814912
 21
130.8632866242037949
 31
0.0
  0
LINE
  5
1C7
100
AcDbEntity
100
AcDbLine
  8
contour
 62
256
370
-1
  6
ByLayer
 10
130.9885146496814912
 20
130.8632866242037949
 30
0.0
 11
132.4912509554139888
 21
131.4894267515923332
 31
0.0
  0
LINE
  5
1C8
100
AcDbEntity
100
AcDbLine
  8
contour
 62
256
370
-1
  6
ByLayer
 10
132.4912509554139888
 20
131.4894267515923332
 30
0.0
 11
133.8687592356687617
 21
133.1173910828025271
 31
0.0
  0
LINE
  5
1C9
100
AcDbEntity
100
AcDbLine
  8
contour
 62
256
370
-1
  6
ByLayer
 10
133.8687592356687617
 20
133.1173910828025271
 30
0.0
 11
132.1155668789808715
 21
133.7435312101910654
 31
0.0
  0
LINE
  5
1CA
100
AcDbEntity
100
AcDbLine
  8
contour
 62
256
370
-1
  6
ByLayer
 10
132.1155668789808715
 20
133.7435312101910654
 30
0.0
 11
129.8614624203821393
 21
134.745355414012721
 31
0.0
  0
LINE
  5
1CB
100
AcDbEntity
100
AcDbLine
  8
contour
 62
256
370
-1
  6
ByLayer
 10
129.8614624203821393
 20
134.745355414012721
 30
0.0
 11
124.3514292993630335
 21
135.4967235668789556
 31
0.0
  0
LINE
  5
1CC
100
AcDbEntity
100
AcDbLine
  8
contour
 62
256
370
-1
  6
ByLayer
 10
124.3514292993630335
 20
135.4967235668789556
 30
0.0
 11
119.8432203821655833
 21
135.4967235668789556
 31
0.0
  0
LINE
  5
1CD
100
AcDbEntity
100
AcDbLine
  8
contour
 62
256
370
-1
  6
ByLayer
 10
119.8432203821655833
 20
135.4967235668789556
 30
0.0
 11
116.8377477707006165
 21
134.8705834394904173
 31
0.0
  0
LINE
  5
1CE
100
AcDbEntity
100
AcDbLine
  8
contour
 62
256
370
-1
  6
ByLayer
 10
116.8377477707006165
 20
134.8705834394904173
 30
0.0
 11
112.579994904458573
 21
134.244443312101879
 31
0.0
  0
LINE
  5
1CF
100
AcDbEntity
100
AcDbLine
  8
contour
 62
256
370
-1
  6
ByLayer
 10
112.579994904458573
 20
134.244443312101879
 30
0.0
 11
111.953854777070049
 21
132.1155668789808715
 31
0.0
  0
LINE
  5
1D0
100
AcDbEntity
100
AcDbLine
  8
contour
 62
256
370
-1
  6
ByLayer
 10
111.953854777070049
 20
132.1155668789808715
 30
0.0
 11
110.325890445859855
 21
130.8632866242037949
 31
0.0
  0
LINE
  5
1D1
100
AcDbEntity
100
AcDbLine
  8
contour
 62
256
370
-1
  6
ByLayer
 10
110.325890445859855
 20
130.8632866242037949
 30
0.0
 11
107.4456458598725845
 21
130.2371464968152566
 31
0.0
  0
LINE
  5
1D2
100
AcDbEntity
100
AcDbLine
  8
contour
 62
256
370
-1
  6
ByLayer
 10
107.4456458598725845
 20
130.2371464968152566
 30
0.0
 11
106.1933656050955221
 21
128.7344101910827874
 31
0.0
  0
LINE
  5
1D3
100
AcDbEntity
100
AcDbLine
  8
contour
 62
256
370
-1
  6
ByLayer
 10
106.1933656050955221
 20
128.7344101910827874
 30
0.0
 11
104.0644891719745004
 21
128.98486624203818
 31
0.0
  0
LINE
  5
1D4
100
AcDbEntity
100
AcDbLine
  8
contour
 62
256
370
-1
  6
ByLayer
 10
104.0644891719745004
 20
128.98486624203818
 30
0.0
 11
102.9374369426751343
 21
130.1119184713375603
 31
0.0
  0
LINE
  5
1D5
100
AcDbEntity
100
AcDbLine
  8
contour
 62
256
370
-1
  6
ByLayer
 10
102.9374369426751343
 20
130.1119184713375603
 30
0.0
 11
101.5599286624203614
 21
131.2389707006369122
 31
0.0
  0
LINE
  5
1D6
100
AcDbEntity
100
AcDbLine
  8
contour
 62
256
370
-1
  6
ByLayer
 10
101.5599286624203614
 20
131.2389707006369122
 30
0.0
 11
99.5562802547770502
 21
129.9866904458598356
 31
0.0
  0
LINE
  5
1D7
100
AcDbEntity
100
AcDbLine
  8
contour
 62
256
370
-1
  6
ByLayer
 10
99.5562802547770502
 20
129.9866904458598356
 30
0.0
 11
98.0535439490445668
 21
128.4839541401273664
 31
0.0
  0
LINE
  5
1D8
100
AcDbEntity
100
AcDbLine
  8
contour
 62
256
370
-1
  6
ByLayer
 10
98.0535439490445668
 20
128.4839541401273664
 30
0.0
 11
96.9264917197452007
 21
126.3550777070063447
 31
0.0
  0
LINE
  5
1D9
100
AcDbEntity
100
AcDbLine
  8
contour
 62
256
370
-1
  6
ByLayer
 10
96.9264917197452007
 20
126.3550777070063447
 30
0.0
 11
97.1769477707006217
 21
122.5982369426751433
 31
0.0
  0
LINE
  5
1DA
100
AcDbEntity
100
AcDbLine
  8
contour
 62
256
370
-1
  6
ByLayer
 10
97.1769477707006217
 20
122.5982369426751433
 30
0.0
 11
100.4328764331209953
 21
121.972096815286605
 31
0.0
  0
LINE
  5
1DB
100
AcDbEntity
100
AcDbLine
  8
contour
 62
256
370
-1
  6
ByLayer
 10
100.4328764331209953
 20
121.972096815286605
 30
0.0
 11
100.5581044585987058
 21
119.467536305732466
 31
0.0
  0
LINE
  5
1DC
100
AcDbEntity
100
AcDbLine
  8
contour
 62
256
370
-1
  6
ByLayer
 10
100.5581044585987058
 20
119.467536305732466
 30
0.0
 11
98.5544560509553946
 21
116.8377477707006165
 31
0.0
  0
LINE
  5
1DD
100
AcDbEntity
100
AcDbLine
  8
contour
 62
256
370
-1
  6
ByLayer
 10
98.5544560509553946
 20
116.8377477707006165
 30
0.0
 11
95.1732993630573105
 21
115.5854675159235398
 31
0.0
  0
LINE
  5
1DE
100
AcDbEntity
100
AcDbLine
  8
contour
 62
256
370
-1
  6
ByLayer
 10
95.1732993630573105
 20
115.5854675159235398
 30
0.0
 11
92.29305477707004
 21
113.7070471337579392
 31
0.0
  0
LINE
  5
1DF
100
AcDbEntity
100
AcDbLine
  8
contour
 62
256
370
-1
  6
ByLayer
 10
92.29305477707004
 20
113.7070471337579392
 30
0.0
 11
91.2912305732483844
 21
111.8286267515923385
 31
0.0
  0
LINE
  5
1E0
100
AcDbEntity
100
AcDbLine
  8
contour
 62
256
370
-1
  6
ByLayer
 10
91.2912305732483844
 20
111.8286267515923385
 30
0.0
 11
91.0407745222929776
 21
110.8268025477706828
 31
0.0
  0
LINE
  5
1E1
100
AcDbEntity
100
AcDbLine
  8
contour
 62
256
370
-1
  6
ByLayer
 10
91.0407745222929776
 20
110.8268025477706828
 30
0.0
 11
86.9082496815286447
 21
110.9520305732483934
 31
0.0
  0
LINE
  5
1E2
100
AcDbEntity
100
AcDbLine
  8
contour
 62
256
370
-1
  6
ByLayer
 10
86.9082496815286447
 20
110.9520305732483934
 30
0.0
 11
84.5289171974522162
 21
111.7033987261146279
 31
0.0
  0
LINE
  5
1E3
100
AcDbEntity
100
AcDbLine
  8
contour
 62
256
370
-1
  6
ByLayer
 10
84.5289171974522162
 20
111.7033987261146279
 30
0.0
 11
81.0225324840764216
 21
110.2006624203821445
 31
0.0
  0
LINE
  5
1E4
100
AcDbEntity
100
AcDbLine
  8
contour
 62
256
370
-1
  6
ByLayer
 10
81.0225324840764216
 20
110.2006624203821445
 30
0.0
 11
77.1404636942674955
 21
109.6997503184713167
 31
0.0
  0
LINE
  5
1E5
100
AcDbEntity
100
AcDbLine
  8
contour
 62
256
370
-1
  6
ByLayer
 10
77.1404636942674955
 20
109.6997503184713167
 30
0.0
 11
76.5143235668789714
 21
111.3277146496815107
 31
0.0
  0
LINE
  5
1E6
100
AcDbEntity
100
AcDbLine
  8
contour
 62
256
370
-1
  6
ByLayer
 10
76.5143235668789714
 20
111.3277146496815107
 30
0.0
 11
77.7666038216560338
 21
114.5836433121018842
 31
0.0
  0
LINE
  5
1E7
100
AcDbEntity
100
AcDbLine
  8
contour
 62
256
370
-1
  6
ByLayer
 10
77.7666038216560338
 20
114.5836433121018842
 30
0.0
 11
77.8918318471337443
 21
116.8377477707006165
 31
0.0
  0
LINE
  5
1E8
100
AcDbEntity
100
AcDbLine
  8
contour
 62
256
370
-1
  6
ByLayer
 10
77.8918318471337443
 20
116.8377477707006165
 30
0.0
 11
79.5197961783439382
 21
118.7161681528662172
 31
0.0
  0
LINE
  5
1E9
100
AcDbEntity
100
AcDbLine
  8
contour
 62
256
370
-1
  6
ByLayer
 10
79.5197961783439382
 20
118.7161681528662172
 30
0.0
 11
81.2729885350318284
 21
119.217080254777045
 31
0.0
  0
LINE
  5
1EA
100
AcDbEntity
100
AcDbLine
  8
contour
 62
256
370
-1
  6
ByLayer
 10
81.2729885350318284
 20
119.217080254777045
 30
0.0
 11
83.5270929936305606
 21
119.7179923566878728
 31
0.0
  0
LINE
  5
1EB
100
AcDbEntity
100
AcDbLine
  8
contour
 62
256
370
-1
  6
ByLayer
 10
83.5270929936305606
 20
119.7179923566878728
 30
0.0
 11
87.1587057324840657
 21
121.2207286624203562
 31
0.0
  0
LINE
  5
1EC
100
AcDbEntity
100
AcDbLine
  8
contour
 62
256
370
-1
  6
ByLayer
 10
87.1587057324840657
 20
121.2207286624203562
 30
0.0
 11
86.0316535031846996
 21
123.8505171974522057
 31
0.0
  0
LINE
  5
1ED
100
AcDbEntity
100
AcDbLine
  8
contour
 62
256
370
-1
  6
ByLayer
 10
86.0316535031846996
 20
123.8505171974522057
 30
0.0
 11
87.534389808917183
 21
126.2298496815286342
 31
0.0
  0
LINE
  5
1EE
100
AcDbEntity
100
AcDbLine
  8
contour
 62
256
370
-1
  6
ByLayer
 10
87.534389808917183
 20
126.2298496815286342
 30
0.0
 11
89.2875821656050732
 21
129.3605503184713257
 31
0.0
  0
LINE
  5
1EF
100
AcDbEntity
100
AcDbLine
  8
contour
 62
256
370
-1
  6
ByLayer
 10
89.2875821656050732
 20
129.3605503184713257
 30
0.0
 11
91.4164585987260949
 21
131.3641987261146369
 31
0.0
  0
LINE
  5
1F0
100
AcDbEntity
100
AcDbLine
  8
contour
 62
256
370
-1
  6
ByLayer
 10
91.4164585987260949
 20
131.3641987261146369
 30
0.0
 11
88.0353019108280108
 21
133.8687592356687617
 31
0.0
  0
LINE
  5
1F1
100
AcDbEntity
100
AcDbLine
  8
contour
 62
256
370
-1
  6
ByLayer
 10
88.0353019108280108
 20
133.8687592356687617
 30
0.0
 11
85.1550573248407545
 21
137.1246878980891495
 31
0.0
  0
LINE
  5
1F2
100
AcDbEntity
100
AcDbLine
  8
contour
 62
256
370
-1
  6
ByLayer
 10
85.1550573248407545
 20
137.1246878980891495
 30
0.0
 11
84.9046012738853335
 21
141.3824407643311929
 31
0.0
  0
LINE
  5
1F3
100
AcDbEntity
100
AcDbLine
  8
contour
 62
256
370
-1
  6
ByLayer
 10
84.9046012738853335
 20
141.3824407643311929
 30
0.0
 11
88.0353019108280108
 21
144.262685350318435
 31
0.0
  0
LINE
  5
1F4
100
AcDbEntity
100
AcDbLine
  8
contour
 62
256
370
-1
  6
ByLayer
 10
88.0353019108280108
 20
144.262685350318435
 30
0.0
 11
90.4146343949044393
 21
147.5186140127388228
 31
0.0
  0
LINE
  5
1F5
100
AcDbEntity
100
AcDbLine
  8
contour
 62
256
370
-1
  6
ByLayer
 10
90.4146343949044393
 20
147.5186140127388228
 30
0.0
 11
88.0353019108280108
 21
150.7745426751592106
 31
0.0
  0
LINE
  5
1F6
100
AcDbEntity
100
AcDbLine
  8
contour
 62
256
370
-1
  6
ByLayer
 10
88.0353019108280108
 20
150.7745426751592106
 30
0.0
 11
89.9137222929936115
 21
154.0304713375795984
 31
0.0
  0
LINE
  5
1F7
100
AcDbEntity
100
AcDbLine
  8
contour
 62
256
370
-1
  6
ByLayer
 10
89.9137222929936115
 20
154.0304713375795984
 30
0.0
 11
93.2948789808916956
 21
155.6584356687897923
 31
0.0
  0
LINE
  5
1F8
100
AcDbEntity
100
AcDbLine
  8
contour
 62
256
370
-1
  6
ByLayer
 10
93.2948789808916956
 20
155.6584356687897923
 30
0.0
 11
95.7994394904458488
 21
159.0395923566878764
 31
0.0
  0
LINE
  5
1F9
100
AcDbEntity
100
AcDbLine
  8
contour
 62
256
370
-1
  6
ByLayer
 10
95.7994394904458488
 20
159.0395923566878764
 30
0.0
 11
99.9319643312101675
 21
162.9216611464967741
 31
0.0
  0
LINE
  5
1FA
100
AcDbEntity
100
AcDbLine
  8
contour
 62
256
370
-1
  6
ByLayer
 10
99.9319643312101675
 20
162.9216611464967741
 30
0.0
 11
105.066313375796156
 21
165.5514496815286236
 31
0.0
  0
LINE
  5
1FB
100
AcDbEntity
100
AcDbLine
  8
contour
 62
256
370
-1
  6
ByLayer
 10
105.066313375796156
 20
165.5514496815286236
 30
0.0
 11
108.9483821656050822
 21
169.1830624203821287
 31
0.0
  0
LINE
  5
1FC
100
AcDbEntity
100
AcDbLine
  8
contour
 62
256
370
-1
  6
ByLayer
 10
108.9483821656050822
 20
169.1830624203821287
 30
0.0
 11
110.4511184713375656
 21
170.8110267515923226
 31
0.0
  0
LINE
  5
1FD
100
AcDbEntity
100
AcDbLine
  8
contour
 62
256
370
-1
  6
ByLayer
 10
110.4511184713375656
 20
170.8110267515923226
 30
0.0
 11
109.1988382165604889
 21
172.9399031847133301
 31
0.0
  0
LINE
  5
1FE
100
AcDbEntity
100
AcDbLine
  8
contour
 62
256
370
-1
  6
ByLayer
 10
109.1988382165604889
 20
172.9399031847133301
 30
0.0
 11
109.0736101910827784
 21
174.6930955414012487
 31
0.0
  0
LINE
  5
1FF
100
AcDbEntity
100
AcDbLine
  8
contour
 62
256
370
-1
  6
ByLayer
 10
109.0736101910827784
 20
174.6930955414012487
 30
0.0
 11
110.075434394904434
 21
177.9490242038216365
 31
0.0
  0
LINE
  5
200
100
AcDbEntity
100
AcDbLine
  8
contour
 62
256
370
-1
  6
ByLayer
 10
110.075434394904434
 20
177.9490242038216365
 30
0.0
 11
111.3277146496815107
 21
179.3265324840764094
 31
0.0
  0
LINE
  5
201
100
AcDbEntity
100
AcDbLine
  8
contour
 62
256
370
-1
  6
ByLayer
 10
111.3277146496815107
 20
179.3265324840764094
 30
0.0
 11
110.2006624203821445
 21
180.7040407643311823
 31
0.0
  0
LINE
  5
202
100
AcDbEntity
100
AcDbLine
  8
contour
 62
256
370
-1
  6
ByLayer
 10
110.2006624203821445
 20
180.7040407643311823
 30
0.0
 11
109.0736101910827784
 21
184.2104254777069627
 31
0.0
  0
LINE
  5
203
100
AcDbEntity
100
AcDbLine
  8
contour
 62
256
370
-1
  6
ByLayer
 10
109.0736101910827784
 20
184.2104254777069627
 30
0.0
 11
111.3277146496815107
 21
186.5897579617833912
 31
0.0
  0
LINE
  5
204
100
AcDbEntity
100
AcDbLine
  8
contour
 62
256
370
-1
  6
ByLayer
 10
111.3277146496815107
 20
186.5897579617833912
 30
0.0
 11
113.7070471337579392
 21
188.8438624203821234
 31
0.0
  0
LINE
  5
205
100
AcDbEntity
100
AcDbLine
  8
contour
 62
256
370
-1
  6
ByLayer
 10
113.7070471337579392
 20
188.8438624203821234
 30
0.0
 11
116.4620636942674992
 21
187.7168101910827716
 31
0.0
  0
LINE
  5
206
100
AcDbEntity
100
AcDbLine
  8
contour
 62
256
370
-1
  6
ByLayer
 10
116.4620636942674992
 20
187.7168101910827716
 30
0.0
 11
118.9666242038216382
 21
189.7204585987260828
 31
0.0
  0
LINE
  5
207
100
AcDbEntity
100
AcDbLine
  8
contour
 62
256
370
-1
  6
ByLayer
 10
118.9666242038216382
 20
189.7204585987260828
 30
0.0
 11
122.7234649681528396
 21
191.8493350318470902
 31
0.0
  0
LINE
  5
208
100
AcDbEntity
100
AcDbLine
  8
contour
 62
256
370
-1
  6
ByLayer
 10
122.7234649681528396
 20
191.8493350318470902
 30
0.0
 11
125.7289375796178064
 21
195.2304917197451744
 31
0.0
  0
LINE
  5
209
100
AcDbEntity
100
AcDbLine
  8
contour
 62
256
370
-1
  6
ByLayer
 10
125.7289375796178064
 20
195.2304917197451744
 30
0.0
 11
127.4821299363057108
 21
199.3630165605095215
 31
0.0
  0
LINE
  5
20A
100
AcDbEntity
100
AcDbLine
  8
contour
 62
256
370
-1
  6
ByLayer
 10
127.4821299363057108
 20
199.3630165605095215
 30
0.0
 11
130.8632866242037949
 21
200.2396127388534524
 31
0.0
  0
LINE
  5
20B
100
AcDbEntity
100
AcDbLine
  8
contour
 62
256
370
-1
  6
ByLayer
 10
130.8632866242037949
 20
200.2396127388534524
 30
0.0
 11
133.1173910828025271
 21
202.6189452229299093
 31
0.0
  0
LINE
  5
20C
100
AcDbEntity
100
AcDbLine
  8
contour
 62
256
370
-1
  6
ByLayer
 10
133.1173910828025271
 20
202.6189452229299093
 30
0.0
 11
135.9976356687897976
 21
204.2469095541401032
 31
0.0
  0
LINE
  5
20D
100
AcDbEntity
100
AcDbLine
  8
contour
 62
256
370
-1
  6
ByLayer
 10
135.9976356687897976
 20
204.2469095541401032
 30
0.0
 11
136.3733197452229149
 21
206.751470063694228
 31
0.0
  0
LINE
  5
20E
100
AcDbEntity
100
AcDbLine
  8
contour
 62
256
370
-1
  6
ByLayer
 10
136.3733197452229149
 20
206.751470063694228
 30
0.0
 11
140.6310726114649299
 21
211.0092229299362714
 31
0.0
  0
LINE
  5
20F
100
AcDbEntity
100
AcDbLine
  8
contour
 62
256
370
-1
  6
ByLayer
 10
140.6310726114649299
 20
211.0092229299362714
 30
0.0
 11
142.8851770700636621
 21
212.6371872611464653
 31
0.0
  0
LINE
  5
210
100
AcDbEntity
100
AcDbLine
  8
contour
 62
256
370
-1
  6
ByLayer
 10
142.8851770700636621
 20
212.6371872611464653
 30
0.0
 11
143.2608611464967794
 21
218.2724484076432816
 31
0.0
  0
LINE
  5
211
100
AcDbEntity
100
AcDbLine
  8
contour
 62
256
370
-1
  6
ByLayer
 10
143.2608611464967794
 20
218.2724484076432816
 30
0.0
 11
148.5204382165604784
 21
221.6536050955413657
 31
0.0
  0
LINE
  5
212
100
AcDbEntity
100
AcDbLine
  8
contour
 62
256
370
-1
  6
ByLayer
 10
148.5204382165604784
 20
221.6536050955413657
 30
0.0
 11
150.1484025477706723
 21
223.5320254777069522
 31
0.0
  0
LINE
  5
213
100
AcDbEntity
100
AcDbLine
  8
contour
 62
256
370
-1
  6
ByLayer
 10
150.1484025477706723
 20
223.5320254777069522
 30
0.0
 11
147.7690700636942438
 21
225.0347617834394498
 31
0.0
  0
LINE
  5
214
100
AcDbEntity
100
AcDbLine
  8
contour
 62
256
370
-1
  6
ByLayer
 10
147.7690700636942438
 20
225.0347617834394498
 30
0.0
 11
144.763597452229277
 21
224.5338496815286078
 31
0.0
  0
LINE
  5
215
100
AcDbEntity
100
AcDbLine
  8
contour
 62
256
370
-1
  6
ByLayer
 10
144.763597452229277
 20
224.5338496815286078
 30
0.0
 11
143.3860891719745041
 21
223.4067974522292559
 31
0.0
  0
LINE
  5
216
100
AcDbEntity
100
AcDbLine
  8
contour
 62
256
370
-1
  6
ByLayer
 10
143.3860891719745041
 20
223.4067974522292559
 30
0.0
 11
137.5003719745222668
 21
224.5338496815286078
 31
0.0
  0
LINE
  5
217
100
AcDbEntity
100
AcDbLine
  8
contour
 62
256
370
-1
  6
ByLayer
 10
137.5003719745222668
 20
224.5338496815286078
 30
0.0
 11
138.6274242038216187
 21
226.78795414012734
 31
0.0
  0
LINE
  5
218
100
AcDbEntity
100
AcDbLine
  8
contour
 62
256
370
-1
  6
ByLayer
 10
138.6274242038216187
 20
226.78795414012734
 30
0.0
 11
142.0085808917197312
 21
229.1672866242037685
 31
0.0
  0
LINE
  5
219
100
AcDbEntity
100
AcDbLine
  8
contour
 62
256
370
-1
  6
ByLayer
 10
142.0085808917197312
 20
229.1672866242037685
 30
0.0
 11
143.1356331210190831
 21
231.9223031847133427
 31
0.0
  0
LINE
  5
21A
100
AcDbEntity
100
AcDbLine
  8
contour
 62
256
370
-1
  6
ByLayer
 10
143.1356331210190831
 20
231.9223031847133427
 30
0.0
 11
146.5167898089171672
 21
233.5502675159235366
 31
0.0
  0
LINE
  5
21B
100
AcDbEntity
100
AcDbLine
  8
contour
 62
256
370
-1
  6
ByLayer
 10
146.5167898089171672
 20
233.5502675159235366
 30
0.0
 11
146.0158777070063536
 21
237.9332484076432763
 31
0.0
  0
LINE
  5
21C
100
AcDbEntity
100
AcDbLine
  8
contour
 62
256
370
-1
  6
ByLayer
 10
146.0158777070063536
 20
237.9332484076432763
 30
0.0
 11
150.6747611464967349
 21
238.2384554140126056
 31
0.0
  0
LINE
  5
21D
100
AcDbEntity
100
AcDbLine
  8
contour
 62
256
370
-1
  6
ByLayer
 10
273.4036624203820338
 20
255.238853503184572
 30
0.0
 11
277.9937237822940688
 21
255.739633033317773
 31
0.0
  0
LINE
  5
21E
100
AcDbEntity
100
AcDbLine
  8
contour
 62
256
370
-1
  6
ByLayer
 10
277.9937237822940688
 20
255.739633033317773
 30
0.0
 11
282.3715777001254992
 21
254.5722053218960639
 31
0.0
  0
LINE
  5
21F
100
AcDbEntity
100
AcDbLine
  8
contour
 62
256
370
-1
  6
ByLayer
 10
282.3715777001254992
 20
254.5722053218960639
 30
0.0
 11
285.2901469786797293
 21
253.6236703063659377
 31
0.0
  0
LINE
  5
220
100
AcDbEntity
100
AcDbLine
  8
contour
 62
256
370
-1
  6
ByLayer
 10
285.2901469786797293
 20
253.6236703063659377
 30
0.0
 11
289.3761439686556969
 21
252.748099522799663
 31
0.0
  0
LINE
  5
221
100
AcDbEntity
100
AcDbLine
  8
contour
 62
256
370
-1
  6
ByLayer
 10
289.3761439686556969
 20
252.748099522799663
 30
0.0
 11
294.4106759741618475
 21
250.3402798679923649
 31
0.0
  0
LINE
  5
222
100
AcDbEntity
100
AcDbLine
  8
contour
 62
256
370
-1
  6
ByLayer
 10
294.4106759741618475
 20
250.3402798679923649
 30
0.0
 11
296.161817541294397
 21
248.2243171410405296
 31
0.0
  0
LINE
  5
223
100
AcDbEntity
100
AcDbLine
  8
contour
 62
256
370
-1
  6
ByLayer
 10
296.161817541294397
 20
248.2243171410405296
 30
0.0
 11
299.6641006755594958
 21
247.6406032853296892
 31
0.0
  0
LINE
  5
224
100
AcDbEntity
100
AcDbLine
  8
contour
 62
256
370
-1
  6
ByLayer
 10
299.6641006755594958
 20
247.6406032853296892
 30
0.0
 11
301.7800634025113595
 21
245.8164974862332599
 31
0.0
  0
LINE
  5
225
100
AcDbEntity
100
AcDbLine
  8
contour
 62
256
370
-1
  6
ByLayer
 10
301.7800634025113595
 20
245.8164974862332599
 30
0.0
 11
301.6341349385836565
 21
242.9708924396428529
 31
0.0
  0
LINE
  5
226
100
AcDbEntity
100
AcDbLine
  8
contour
 62
256
370
-1
  6
ByLayer
 10
301.6341349385836565
 20
242.9708924396428529
 30
0.0
 11
304.5527042171378866
 21
241.0738224085825721
 31
0.0
  0
LINE
  5
227
100
AcDbEntity
100
AcDbLine
  8
contour
 62
256
370
-1
  6
ByLayer
 10
304.5527042171378866
 20
241.0738224085825721
 30
0.0
 11
307.3983092637283221
 21
239.3226808414500226
 31
0.0
  0
LINE
  5
228
100
AcDbEntity
100
AcDbLine
  8
contour
 62
256
370
-1
  6
ByLayer
 10
307.3983092637283221
 20
239.3226808414500226
 30
0.0
 11
309.3683435267524828
 21
238.1552531300283135
 31
0.0
  0
LINE
  5
229
100
AcDbEntity
100
AcDbLine
  8
contour
 62
256
370
-1
  6
ByLayer
 10
309.3683435267524828
 20
238.1552531300283135
 30
0.0
 11
311.4843062537042897
 21
239.5415735373415771
 31
0.0
  0
LINE
  5
22A
100
AcDbEntity
100
AcDbLine
  8
contour
 62
256
370
-1
  6
ByLayer
 10
311.4843062537042897
 20
239.5415735373415771
 30
0.0
 11
313.5273047486923019
 21
238.8848954496668853
 31
0.0
  0
LINE
  5
22B
100
AcDbEntity
100
AcDbLine
  8
contour
 62
256
370
-1
  6
ByLayer
 10
313.5273047486923019
 20
238.8848954496668853
 30
0.0
 11
316.5188382592104404
 21
239.1767523775222912
 31
0.0
  0
LINE
  5
22C
100
AcDbEntity
100
AcDbLine
  8
contour
 62
256
370
-1
  6
ByLayer
 10
316.5188382592104404
 20
239.1767523775222912
 30
0.0
 11
317.7592302025959725
 21
237.8633962021728792
 31
0.0
  0
LINE
  5
22D
100
AcDbEntity
100
AcDbLine
  8
contour
 62
256
370
-1
  6
ByLayer
 10
317.7592302025959725
 20
237.8633962021728792
 30
0.0
 11
319.2814490445858269
 21
237.5398089171973197
 31
0.0
  0
LINE
  5
22E
100
AcDbEntity
100
AcDbLine
  8
contour
 62
256
370
-1
  6
ByLayer
 10
257.2684555414011243
 20
106.9948249681527983
 30
0.0
 11
260.6647186908780895
 21
109.9023743955591641
 31
0.0
  0
LINE
  5
22F
100
AcDbEntity
100
AcDbLine
  8
contour
 62
256
370
-1
  6
ByLayer
 10
260.6647186908780895
 20
109.9023743955591641
 30
0.0
 11
264.221724999116077
 21
111.6352749047007649
 31
0.0
  0
LINE
  5
230
100
AcDbEntity
100
AcDbLine
  8
contour
 62
256
370
-1
  6
ByLayer
 10
264.221724999116077
 20
111.6352749047007649
 30
0.0
 11
266.7754731178511065
 21
113.9154071535712802
 31
0.0
  0
LINE
  5
231
100
AcDbEntity
100
AcDbLine
  8
contour
 62
256
370
-1
  6
ByLayer
 10
266.7754731178511065
 20
113.9154071535712802
 30
0.0
 11
268.4171683370378787
 21
111.9088907745652222
 31
0.0
  0
LINE
  5
232
100
AcDbEntity
100
AcDbLine
  8
contour
 62
256
370
-1
  6
ByLayer
 10
268.4171683370378787
 20
111.9088907745652222
 30
0.0
 11
265.7722149283480348
 21
110.1759902654236214
 31
0.0
  0
LINE
  5
233
100
AcDbEntity
100
AcDbLine
  8
contour
 62
256
370
-1
  6
ByLayer
 10
265.7722149283480348
 20
110.1759902654236214
 30
0.0
 11
262.124003330155233
 21
107.895858016553106
 31
0.0
  0
LINE
  5
234
100
AcDbEntity
100
AcDbLine
  8
contour
 62
256
370
-1
  6
ByLayer
 10
262.124003330155233
 20
107.895858016553106
 30
0.0
 11
260.7147308025477059
 21
105.5521981146496557
 31
0.0
  0
LINE
  5
235
100
AcDbEntity
100
AcDbLine
  8
contour
 62
256
370
-1
  6
ByLayer
 10
279.0681502165604684
 20
101.7051931719744999
 30
0.0
 11
275.8960021133331679
 21
98.5929184411613733
 31
0.0
  0
LINE
  5
236
100
AcDbEntity
100
AcDbLine
  8
contour
 62
256
370
-1
  6
ByLayer
 10
275.8960021133331679
 20
98.5929184411613733
 30
0.0
 11
274.7103333439205244
 21
92.755779884052842
 31
0.0
  0
LINE
  5
237
100
AcDbEntity
100
AcDbLine
  8
contour
 62
256
370
-1
  6
ByLayer
 10
274.7103333439205244
 20
92.755779884052842
 30
0.0
 11
272.6126116749596235
 21
91.4789058246853415
 31
0.0
  0
LINE
  5
238
100
AcDbEntity
100
AcDbLine
  8
contour
 62
256
370
-1
  6
ByLayer
 10
272.6126116749596235
 20
91.4789058246853415
 30
0.0
 11
272.5214063850048092
 21
94.4886803931944286
 31
0.0
  0
LINE
  5
239
100
AcDbEntity
100
AcDbLine
  8
contour
 62
256
370
-1
  6
ByLayer
 10
272.5214063850048092
 20
94.4886803931944286
 30
0.0
 11
273.6158698644626384
 21
97.4072496717487013
 31
0.0
  0
LINE
  5
23A
100
AcDbEntity
100
AcDbLine
  8
contour
 62
256
370
-1
  6
ByLayer
 10
273.6158698644626384
 20
97.4072496717487013
 30
0.0
 11
270.0588635562246509
 21
94.3974751032396142
 31
0.0
  0
LINE
  5
23B
100
AcDbEntity
100
AcDbLine
  8
contour
 62
256
370
-1
  6
ByLayer
 10
270.0588635562246509
 20
94.3974751032396142
 30
0.0
 11
271.6093534854566087
 21
89.7460053155437549
 31
0.0
  0
LINE
  5
23C
100
AcDbEntity
100
AcDbLine
  8
contour
 62
256
370
-1
  6
ByLayer
 10
271.6093534854566087
 20
89.7460053155437549
 30
0.0
 11
276.2608232731524822
 21
90.6580582150919554
 31
0.0
  0
LINE
  5
23D
100
AcDbEntity
100
AcDbLine
  8
contour
 62
256
370
-1
  6
ByLayer
 10
276.2608232731524822
 20
90.6580582150919554
 30
0.0
 11
277.7201079124295688
 21
96.7688126420649581
 31
0.0
  0
LINE
  5
23E
100
AcDbEntity
100
AcDbLine
  8
contour
 62
256
370
-1
  6
ByLayer
 10
277.7201079124295688
 20
96.7688126420649581
 30
0.0
 11
280.9122930608482989
 21
97.7720708315679872
 31
0.0
  0
LINE
  5
23F
100
AcDbEntity
100
AcDbLine
  8
contour
 62
256
370
-1
  6
ByLayer
 10
280.9122930608482989
 20
97.7720708315679872
 30
0.0
 11
285.2393873121018828
 21
98.7397935286624033
 31
0.0
  0
LINE
  5
240
100
AcDbEntity
100
AcDbLine
  8
contour
 62
256
370
-1
  6
ByLayer
 10
96.9264917197452007
 20
126.3550777070063447
 30
0.0
 11
94.2697876973028741
 21
122.725838163206987
 31
0.0
  0
LINE
  5
241
100
AcDbEntity
100
AcDbLine
  8
contour
 62
256
370
-1
  6
ByLayer
 10
94.2697876973028741
 20
122.725838163206987
 30
0.0
 11
93.6131096096281681
 21
119.9531973485804315
 31
0.0
  0
LINE
  5
242
100
AcDbEntity
100
AcDbLine
  8
contour
 62
256
370
-1
  6
ByLayer
 10
93.6131096096281681
 20
119.9531973485804315
 30
0.0
 11
91.5701111146401701
 21
117.9101988535924477
 31
0.0
  0
LINE
  5
243
100
AcDbEntity
100
AcDbLine
  8
contour
 62
256
370
-1
  6
ByLayer
 10
91.5701111146401701
 20
117.9101988535924477
 30
0.0
 11
90.402683403218461
 21
118.4939127093033022
 31
0.0
  0
LINE
  5
244
100
AcDbEntity
100
AcDbLine
  8
contour
 62
256
370
-1
  6
ByLayer
 10
90.402683403218461
 20
118.4939127093033022
 30
0.0
 11
90.402683403218461
 21
121.8502673796407123
 31
0.0
  0
LINE
  5
245
100
AcDbEntity
100
AcDbLine
  8
contour
 62
256
370
-1
  6
ByLayer
 10
90.402683403218461
 20
121.8502673796407123
 30
0.0
 11
91.8619680424956044
 21
125.3525505139058254
 31
0.0
  0
LINE
  5
246
100
AcDbEntity
100
AcDbLine
  8
contour
 62
256
370
-1
  6
ByLayer
 10
91.8619680424956044
 20
125.3525505139058254
 30
0.0
 11
95.291286944796866
 21
128.490012488351681
 31
0.0
  0
LINE
  5
247
100
AcDbEntity
100
AcDbLine
  8
contour
 62
256
370
-1
  6
ByLayer
 10
95.291286944796866
 20
128.490012488351681
 30
0.0
 11
95.1453584808691488
 21
131.4085817669059395
 31
0.0
  0
LINE
  5
248
100
AcDbEntity
100
AcDbLine
  8
contour
 62
256
370
-1
  6
ByLayer
 10
95.1453584808691488
 20
131.4085817669059395
 30
0.0
 11
97.4072496717487155
 21
134.7649364372433354
 31
0.0
  0
LINE
  5
249
100
AcDbEntity
100
AcDbLine
  8
contour
 62
256
370
-1
  6
ByLayer
 10
97.4072496717487155
 20
134.7649364372433354
 30
0.0
 11
101.201389733869263
 21
137.8294341797253253
 31
0.0
  0
LINE
  5
24A
100
AcDbEntity
100
AcDbLine
  8
contour
 62
256
370
-1
  6
ByLayer
 10
101.201389733869263
 20
137.8294341797253253
 30
0.0
 11
103.5362451567126811
 21
141.4046815459543041
 31
0.0
  0
LINE
  5
24B
100
AcDbEntity
100
AcDbLine
  8
contour
 62
256
370
-1
  6
ByLayer
 10
103.5362451567126811
 20
141.4046815459543041
 30
0.0
 11
107.4763136827609316
 21
140.8939319222073152
 31
0.0
  0
LINE
  5
24C
100
AcDbEntity
100
AcDbLine
  8
contour
 62
256
370
-1
  6
ByLayer
 10
107.4763136827609316
 20
140.8939319222073152
 30
0.0
 11
111.3434179768453447
 21
142.1343238655928758
 31
0.0
  0
LINE
  5
24D
100
AcDbEntity
100
AcDbLine
  8
contour
 62
256
370
-1
  6
ByLayer
 10
111.3434179768453447
 20
142.1343238655928758
 30
0.0
 11
113.8242018636164659
 21
145.1258573761109858
 31
0.0
  0
LINE
  5
24E
100
AcDbEntity
100
AcDbLine
  8
contour
 62
256
370
-1
  6
ByLayer
 10
113.8242018636164659
 20
145.1258573761109858
 30
0.0
 11
121.4124819878575749
 21
145.2717858400387172
 31
0.0
  0
LINE
  5
24F
100
AcDbEntity
100
AcDbLine
  8
contour
 62
256
370
-1
  6
ByLayer
 10
121.4124819878575749
 20
145.2717858400387172
 30
0.0
 11
125.571443209797394
 21
143.8125012007615737
 31
0.0
  0
LINE
  5
250
100
AcDbEntity
100
AcDbLine
  8
contour
 62
256
370
-1
  6
ByLayer
 10
125.571443209797394
 20
143.8125012007615737
 30
0.0
 11
130.2411540554842304
 21
141.4046815459543041
 31
0.0
  0
LINE
  5
251
100
AcDbEntity
100
AcDbLine
  8
contour
 62
256
370
-1
  6
ByLayer
 10
130.2411540554842304
 20
141.4046815459543041
 30
0.0
 11
133.5245444938577748
 21
140.091325370604892
 31
0.0
  0
LINE
  5
252
100
AcDbEntity
100
AcDbLine
  8
contour
 62
256
370
-1
  6
ByLayer
 10
133.5245444938577748
 20
140.091325370604892
 30
0.0
 11
138.4861122674000455
 21
138.3401838034723141
 31
0.0
  0
LINE
  5
253
100
AcDbEntity
100
AcDbLine
  8
contour
 62
256
370
-1
  6
ByLayer
 10
138.4861122674000455
 20
138.3401838034723141
 30
0.0
 11
140.3102180664964465
 21
134.9838291331349183
 31
0.0
  0
LINE
  5
254
100
AcDbEntity
100
AcDbLine
  8
contour
 62
256
370
-1
  6
ByLayer
 10
140.3102180664964465
 20
134.9838291331349183
 30
0.0
 11
137.7564699477614738
 21
134.0352941176047921
 31
0.0
  0
LINE
  5
255
100
AcDbEntity
100
AcDbLine
  8
contour
 62
256
370
-1
  6
ByLayer
 10
137.7564699477614738
 20
134.0352941176047921
 30
0.0
 11
133.5245444938577748
 21
133.9623298856409122
 31
0.0
  0
LINE
  5
256
100
AcDbEntity
100
AcDbLine
  8
contour
 62
256
370
-1
  6
ByLayer
 10
133.5245444938577748
 20
133.9623298856409122
 30
0.0
 11
132.1155668789808715
 21
133.7435312101910654
 31
0.0
  0
LINE
  5
257
100
AcDbEntity
100
AcDbLine
  8
contour
 62
256
370
-1
  6
ByLayer
 10
123.7473374107009789
 20
171.4659451150632776
 30
0.0
 11
126.5929424572914002
 21
174.895264017364525
 31
0.0
  0
LINE
  5
258
100
AcDbEntity
100
AcDbLine
  8
contour
 62
256
370
-1
  6
ByLayer
 10
126.5929424572914002
 20
174.895264017364525
 30
0.0
 11
131.335617534942088
 21
179.5649748630513614
 31
0.0
  0
LINE
  5
259
100
AcDbEntity
100
AcDbLine
  8
contour
 62
256
370
-1
  6
ByLayer
 10
131.335617534942088
 20
179.5649748630513614
 30
0.0
 11
136.5160780043759132
 21
185.1832207242683239
 31
0.0
  0
LINE
  5
25A
100
AcDbEntity
100
AcDbLine
  8
contour
 62
256
370
-1
  6
ByLayer
 10
136.5160780043759132
 20
185.1832207242683239
 30
0.0
 11
138.9968618911470344
 21
186.4965768996177644
 31
0.0
  0
LINE
  5
25B
100
AcDbEntity
100
AcDbLine
  8
contour
 62
256
370
-1
  6
ByLayer
 10
138.9968618911470344
 20
186.4965768996177644
 30
0.0
 11
140.091325370604892
 21
189.1232892503165886
 31
0.0
  0
LINE
  5
25C
100
AcDbEntity
100
AcDbLine
  8
contour
 62
256
370
-1
  6
ByLayer
 10
140.091325370604892
 20
189.1232892503165886
 30
0.0
 11
143.6665727368338707
 21
190.8744308174491664
 31
0.0
  0
LINE
  5
25D
100
AcDbEntity
100
AcDbLine
  8
contour
 62
256
370
-1
  6
ByLayer
 10
143.6665727368338707
 20
190.8744308174491664
 30
0.0
 11
147.2418201030628495
 21
190.8014665854853149
 31
0.0
  0
LINE
  5
25E
100
AcDbEntity
100
AcDbLine
  8
contour
 62
256
370
-1
  6
ByLayer
 10
147.2418201030628495
 20
190.8014665854853149
 30
0.0
 11
148.9199974382315474
 21
188.7584680904973027
 31
0.0
  0
LINE
  5
25F
100
AcDbEntity
100
AcDbLine
  8
contour
 62
256
370
-1
  6
ByLayer
 10
148.9199974382315474
 20
188.7584680904973027
 30
0.0
 11
145.0528931441471343
 21
184.9643280283767695
 31
0.0
  0
LINE
  5
260
100
AcDbEntity
100
AcDbLine
  8
contour
 62
256
370
-1
  6
ByLayer
 10
145.0528931441471343
 20
184.9643280283767695
 30
0.0
 11
139.5076115148940232
 21
180.8053668064369219
 31
0.0
  0
LINE
  5
261
100
AcDbEntity
100
AcDbLine
  8
contour
 62
256
370
-1
  6
ByLayer
 10
139.5076115148940232
 20
180.8053668064369219
 30
0.0
 11
136.0782926125927759
 21
178.0327259918103664
 31
0.0
  0
LINE
  5
262
100
AcDbEntity
100
AcDbLine
  8
contour
 62
256
370
-1
  6
ByLayer
 10
136.0782926125927759
 20
178.0327259918103664
 30
0.0
 11
132.3571167824360657
 21
174.3115501616536847
 31
0.0
  0
LINE
  5
263
100
AcDbEntity
100
AcDbLine
  8
contour
 62
256
370
-1
  6
ByLayer
 10
132.3571167824360657
 20
174.3115501616536847
 30
0.0
 11
127.6144417047853921
 21
172.9252297543404211
 31
0.0
  0
LINE
  5
264
100
AcDbEntity
100
AcDbLine
  8
contour
 62
256
370
-1
  6
ByLayer
 10
127.6144417047853921
 20
172.9252297543404211
 30
0.0
 11
125.8633001376528284
 21
171.3929808830994261
 31
0.0
  0
LINE
  5
265
100
AcDbEntity
100
AcDbLine
  8
contour
 62
256
370
-1
  6
ByLayer
 10
125.8633001376528284
 20
171.3929808830994261
 30
0.0
 11
123.7473374107009789
 21
171.4659451150632776
 31
0.0
  0
LINE
  5
266
100
AcDbEntity
100
AcDbLine
  8
contour
 62
256
370
-1
  6
ByLayer
 10
152.4952448044605262
 20
195.9819270549191401
 30
0.0
 11
155.1219571551593788
 21
194.4496781836781452
 31
0.0
  0
LINE
  5
267
100
AcDbEntity
100
AcDbLine
  8
contour
 62
256
370
-1
  6
ByLayer
 10
155.1219571551593788
 20
194.4496781836781452
 30
0.0
 11
158.3323833615690717
 21
195.8359985909914087
 31
0.0
  0
LINE
  5
268
100
AcDbEntity
100
AcDbLine
  8
contour
 62
256
370
-1
  6
ByLayer
 10
158.3323833615690717
 20
195.8359985909914087
 30
0.0
 11
159.0620256812076434
 21
198.9004963334733986
 31
0.0
  0
LINE
  5
269
100
AcDbEntity
100
AcDbLine
  8
contour
 62
256
370
-1
  6
ByLayer
 10
159.0620256812076434
 20
198.9004963334733986
 30
0.0
 11
161.6157737999426161
 21
201.4542444522083713
 31
0.0
  0
LINE
  5
26A
100
AcDbEntity
100
AcDbLine
  8
contour
 62
256
370
-1
  6
ByLayer
 10
161.6157737999426161
 20
201.4542444522083713
 30
0.0
 11
158.4053475935329232
 21
200.9434948284613824
 31
0.0
  0
LINE
  5
26B
100
AcDbEntity
100
AcDbLine
  8
contour
 62
256
370
-1
  6
ByLayer
 10
158.4053475935329232
 20
200.9434948284613824
 30
0.0
 11
155.7056710108702191
 21
199.192353261328833
 31
0.0
  0
LINE
  5
26C
100
AcDbEntity
100
AcDbLine
  8
contour
 62
256
370
-1
  6
ByLayer
 10
155.7056710108702191
 20
199.192353261328833
 30
0.0
 11
152.4952448044605262
 21
195.9819270549191401
 31
0.0
  0
LINE
  5
26D
100
AcDbEntity
100
AcDbLine
  8
contour
 62
256
370
-1
  6
ByLayer
 10
154.8301002273039444
 20
186.7154695955093189
 30
0.0
 11
150.9629959332195313
 21
185.9858272758707471
 31
0.0
  0
LINE
  5
26E
100
AcDbEntity
100
AcDbLine
  8
contour
 62
256
370
-1
  6
ByLayer
 10
150.9629959332195313
 20
185.9858272758707471
 30
0.0
 11
147.9714624227014212
 21
183.4320791571357745
 31
0.0
  0
LINE
  5
26F
100
AcDbEntity
100
AcDbLine
  8
contour
 62
256
370
-1
  6
ByLayer
 10
147.9714624227014212
 20
183.4320791571357745
 30
0.0
 11
149.2848185980508333
 21
181.4620448941116422
 31
0.0
  0
LINE
  5
270
100
AcDbEntity
100
AcDbLine
  8
contour
 62
256
370
-1
  6
ByLayer
 10
149.2848185980508333
 20
181.4620448941116422
 30
0.0
 11
152.7871017323159606
 21
183.1402222292803401
 31
0.0
  0
LINE
  5
271
100
AcDbEntity
100
AcDbLine
  8
contour
 62
256
370
-1
  6
ByLayer
 10
152.7871017323159606
 20
183.1402222292803401
 30
0.0
 11
154.8301002273039444
 21
186.7154695955093189
 31
0.0
  0
LINE
  5
272
100
AcDbEntity
100
AcDbLine
  8
contour
 62
256
370
-1
  6
ByLayer
 10
246.4002113419441287
 20
225.0216913765341076
 30
0.0
 11
246.2542828780163973
 21
220.0601236029918368
 31
0.0
  0
LINE
  5
273
100
AcDbEntity
100
AcDbLine
  8
contour
 62
256
370
-1
  6
ByLayer
 10
246.2542828780163973
 20
220.0601236029918368
 30
0.0
 11
250.4132440999562448
 21
215.4633769892688804
 31
0.0
  0
LINE
  5
274
100
AcDbEntity
100
AcDbLine
  8
contour
 62
256
370
-1
  6
ByLayer
 10
250.4132440999562448
 20
215.4633769892688804
 30
0.0
 11
254.4262768579683609
 21
213.3474142623170167
 31
0.0
  0
LINE
  5
275
100
AcDbEntity
100
AcDbLine
  8
contour
 62
256
370
-1
  6
ByLayer
 10
254.4262768579683609
 20
213.3474142623170167
 30
0.0
 11
258.4393096159804486
 21
210.3558807517989067
 31
0.0
  0
LINE
  5
276
100
AcDbEntity
100
AcDbLine
  8
contour
 62
256
370
-1
  6
ByLayer
 10
258.4393096159804486
 20
210.3558807517989067
 30
0.0
 11
261.6497358223901415
 21
211.0855230714374784
 31
0.0
  0
LINE
  5
277
100
AcDbEntity
100
AcDbLine
  8
contour
 62
256
370
-1
  6
ByLayer
 10
261.6497358223901415
 20
211.0855230714374784
 30
0.0
 11
267.0490889877155496
 21
210.3558807517989067
 31
0.0
  0
LINE
  5
278
100
AcDbEntity
100
AcDbLine
  8
contour
 62
256
370
-1
  6
ByLayer
 10
267.0490889877155496
 20
210.3558807517989067
 30
0.0
 11
269.2380159466312648
 21
210.8666303755458955
 31
0.0
  0
LINE
  5
279
100
AcDbEntity
100
AcDbLine
  8
contour
 62
256
370
-1
  6
ByLayer
 10
269.2380159466312648
 20
210.8666303755458955
 30
0.0
 11
266.6842678278962921
 21
212.6177719426784449
 31
0.0
  0
LINE
  5
27A
100
AcDbEntity
100
AcDbLine
  8
contour
 62
256
370
-1
  6
ByLayer
 10
266.6842678278962921
 20
212.6177719426784449
 30
0.0
 11
263.6197700854143022
 21
213.0555573344616107
 31
0.0
  0
LINE
  5
27B
100
AcDbEntity
100
AcDbLine
  8
contour
 62
256
370
-1
  6
ByLayer
 10
263.6197700854143022
 20
213.0555573344616107
 30
0.0
 11
258.8041307757997629
 21
213.2744500303531652
 31
0.0
  0
LINE
  5
27C
100
AcDbEntity
100
AcDbLine
  8
contour
 62
256
370
-1
  6
ByLayer
 10
258.8041307757997629
 20
213.2744500303531652
 30
0.0
 11
255.1559191776069326
 21
215.4633769892688804
 31
0.0
  0
LINE
  5
27D
100
AcDbEntity
100
AcDbLine
  8
contour
 62
256
370
-1
  6
ByLayer
 10
255.1559191776069326
 20
215.4633769892688804
 30
0.0
 11
251.507707579414074
 21
217.8711966440761501
 31
0.0
  0
LINE
  5
27E
100
AcDbEntity
100
AcDbLine
  8
contour
 62
256
370
-1
  6
ByLayer
 10
251.507707579414074
 20
217.8711966440761501
 30
0.0
 11
248.7350667647875184
 21
220.8627301545942601
 31
0.0
  0
LINE
  5
27F
100
AcDbEntity
100
AcDbLine
  8
contour
 62
256
370
-1
  6
ByLayer
 10
248.7350667647875184
 20
220.8627301545942601
 30
0.0
 11
247.7865317492573922
 21
224.8757629126063762
 31
0.0
  0
LINE
  5
280
100
AcDbEntity
100
AcDbLine
  8
contour
 62
256
370
-1
  6
ByLayer
 10
247.7865317492573922
 20
224.8757629126063762
 30
0.0
 11
246.4002113419441287
 21
225.0216913765341076
 31
0.0
  0
LINE
  5
281
100
AcDbEntity
100
AcDbLine
  8
contour
 62
256
370
-1
  6
ByLayer
 10
231.5884722532811963
 20
196.9304620704492663
 30
0.0
 11
231.5884722532811963
 21
195.4711774311721229
 31
0.0
  0
LINE
  5
282
100
AcDbEntity
100
AcDbLine
  8
contour
 62
256
370
-1
  6
ByLayer
 10
231.5884722532811963
 20
195.4711774311721229
 30
0.0
 11
233.1936853564860428
 21
193.9389285599311279
 31
0.0
  0
LINE
  5
283
100
AcDbEntity
100
AcDbLine
  8
contour
 62
256
370
-1
  6
ByLayer
 10
233.1936853564860428
 20
193.9389285599311279
 30
0.0
 11
234.2881488359439004
 21
192.9174293124371502
 31
0.0
  0
LINE
  5
284
100
AcDbEntity
100
AcDbLine
  8
contour
 62
256
370
-1
  6
ByLayer
 10
234.2881488359439004
 20
192.9174293124371502
 30
0.0
 11
233.6314707482691801
 21
191.6770373690515896
 31
0.0
  0
LINE
  5
285
100
AcDbEntity
100
AcDbLine
  8
contour
 62
256
370
-1
  6
ByLayer
 10
233.6314707482691801
 20
191.6770373690515896
 30
0.0
 11
231.9532934131004822
 21
190.436645425666029
 31
0.0
  0
LINE
  5
286
100
AcDbEntity
100
AcDbLine
  8
contour
 62
256
370
-1
  6
ByLayer
 10
231.9532934131004822
 20
190.436645425666029
 30
0.0
 11
232.1721861089920651
 21
189.19625348228044
 31
0.0
  0
LINE
  5
287
100
AcDbEntity
100
AcDbLine
  8
contour
 62
256
370
-1
  6
ByLayer
 10
232.1721861089920651
 20
189.19625348228044
 30
0.0
 11
233.0477568925583398
 21
188.0288257708587594
 31
0.0
  0
LINE
  5
288
100
AcDbEntity
100
AcDbLine
  8
contour
 62
256
370
-1
  6
ByLayer
 10
233.0477568925583398
 20
188.0288257708587594
 30
0.0
 11
234.5800057637993348
 21
188.9043965544250341
 31
0.0
  0
LINE
  5
289
100
AcDbEntity
100
AcDbLine
  8
contour
 62
256
370
-1
  6
ByLayer
 10
234.5800057637993348
 20
188.9043965544250341
 30
0.0
 11
236.1122546350403297
 21
190.1447884978105947
 31
0.0
  0
LINE
  5
28A
100
AcDbEntity
100
AcDbLine
  8
contour
 62
256
370
-1
  6
ByLayer
 10
236.1122546350403297
 20
190.1447884978105947
 30
0.0
 11
236.914861186642753
 21
191.0203592813768694
 31
0.0
  0
LINE
  5
28B
100
AcDbEntity
100
AcDbLine
  8
contour
 62
256
370
-1
  6
ByLayer
 10
236.914861186642753
 20
191.0203592813768694
 30
0.0
 11
237.5715392743174448
 21
191.2392519772684523
 31
0.0
  0
LINE
  5
28C
100
AcDbEntity
100
AcDbLine
  8
contour
 62
256
370
-1
  6
ByLayer
 10
237.5715392743174448
 20
191.2392519772684523
 30
0.0
 11
238.5930385218114509
 21
191.2392519772684523
 31
0.0
  0
LINE
  5
28D
100
AcDbEntity
100
AcDbLine
  8
contour
 62
256
370
-1
  6
ByLayer
 10
238.5930385218114509
 20
191.2392519772684523
 30
0.0
 11
239.3956450734138741
 21
191.0203592813768694
 31
0.0
  0
LINE
  5
28E
100
AcDbEntity
100
AcDbLine
  8
contour
 62
256
370
-1
  6
ByLayer
 10
239.3956450734138741
 20
191.0203592813768694
 30
0.0
 11
240.4171443209078518
 21
190.0718242658467432
 31
0.0
  0
LINE
  5
28F
100
AcDbEntity
100
AcDbLine
  8
contour
 62
256
370
-1
  6
ByLayer
 10
240.4171443209078518
 20
190.0718242658467432
 30
0.0
 11
241.8764289601849953
 21
188.1747542347864623
 31
0.0
  0
LINE
  5
290
100
AcDbEntity
100
AcDbLine
  8
contour
 62
256
370
-1
  6
ByLayer
 10
241.8764289601849953
 20
188.1747542347864623
 30
0.0
 11
245.8894617181971114
 21
187.6640046110394735
 31
0.0
  0
LINE
  5
291
100
AcDbEntity
100
AcDbLine
  8
contour
 62
256
370
-1
  6
ByLayer
 10
245.8894617181971114
 20
187.6640046110394735
 30
0.0
 11
247.129853661582672
 21
187.882897306931028
 31
0.0
  0
LINE
  5
292
100
AcDbEntity
100
AcDbLine
  8
contour
 62
256
370
-1
  6
ByLayer
 10
247.129853661582672
 20
187.882897306931028
 30
0.0
 11
248.9539594606791013
 21
188.6125396265695997
 31
0.0
  0
LINE
  5
293
100
AcDbEntity
100
AcDbLine
  8
contour
 62
256
370
-1
  6
ByLayer
 10
248.9539594606791013
 20
188.6125396265695997
 30
0.0
 11
249.9754587081731074
 21
189.1232892503165886
 31
0.0
  0
LINE
  5
294
100
AcDbEntity
100
AcDbLine
  8
contour
 62
256
370
-1
  6
ByLayer
 10
249.9754587081731074
 20
189.1232892503165886
 30
0.0
 11
249.829530244245376
 21
184.6724711005213351
 31
0.0
  0
LINE
  5
295
100
AcDbEntity
100
AcDbLine
  8
contour
 62
256
370
-1
  6
ByLayer
 10
249.829530244245376
 20
184.6724711005213351
 30
0.0
 11
249.829530244245376
 21
182.5565083735694998
 31
0.0
  0
LINE
  5
296
100
AcDbEntity
100
AcDbLine
  8
contour
 62
256
370
-1
  6
ByLayer
 10
249.829530244245376
 20
182.5565083735694998
 30
0.0
 11
251.1428864195947881
 21
181.3161164301839392
 31
0.0
  0
LINE
  5
297
100
AcDbEntity
100
AcDbLine
  8
contour
 62
256
370
-1
  6
ByLayer
 10
251.1428864195947881
 20
181.3161164301839392
 30
0.0
 11
252.5292068269080801
 21
182.6294726055333513
 31
0.0
  0
LINE
  5
298
100
AcDbEntity
100
AcDbLine
  8
contour
 62
256
370
-1
  6
ByLayer
 10
252.5292068269080801
 20
182.6294726055333513
 30
0.0
 11
251.6536360433418054
 21
186.350648435690033
 31
0.0
  0
LINE
  5
299
100
AcDbEntity
100
AcDbLine
  8
contour
 62
256
370
-1
  6
ByLayer
 10
251.6536360433418054
 20
186.350648435690033
 30
0.0
 11
251.6536360433418054
 21
190.2907169617382976
 31
0.0
  0
LINE
  5
29A
100
AcDbEntity
100
AcDbLine
  8
contour
 62
256
370
-1
  6
ByLayer
 10
251.6536360433418054
 20
190.2907169617382976
 30
0.0
 11
249.5376733163899416
 21
191.1662877453045724
 31
0.0
  0
LINE
  5
29B
100
AcDbEntity
100
AcDbLine
  8
contour
 62
256
370
-1
  6
ByLayer
 10
249.5376733163899416
 20
191.1662877453045724
 30
0.0
 11
245.3787120944501225
 21
190.8744308174491664
 31
0.0
  0
LINE
  5
29C
100
AcDbEntity
100
AcDbLine
  8
contour
 62
256
370
-1
  6
ByLayer
 10
245.3787120944501225
 20
190.8744308174491664
 30
0.0
 11
241.8764289601849953
 21
191.8959300649431441
 31
0.0
  0
LINE
  5
29D
100
AcDbEntity
100
AcDbLine
  8
contour
 62
256
370
-1
  6
ByLayer
 10
241.8764289601849953
 20
191.8959300649431441
 30
0.0
 11
241.0008581766187206
 21
193.1363220083287047
 31
0.0
  0
LINE
  5
29E
100
AcDbEntity
100
AcDbLine
  8
contour
 62
256
370
-1
  6
ByLayer
 10
241.0008581766187206
 20
193.1363220083287047
 30
0.0
 11
239.3226808414500226
 21
194.0848570238588593
 31
0.0
  0
LINE
  5
29F
100
AcDbEntity
100
AcDbLine
  8
contour
 62
256
370
-1
  6
ByLayer
 10
239.3226808414500226
 20
194.0848570238588593
 30
0.0
 11
237.7174677382451762
 21
194.4496781836781452
 31
0.0
  0
LINE
  5
2A0
100
AcDbEntity
100
AcDbLine
  8
contour
 62
256
370
-1
  6
ByLayer
 10
237.7174677382451762
 20
194.4496781836781452
 30
0.0
 11
239.6145377693054286
 21
196.7115693745576834
 31
0.0
  0
LINE
  5
2A1
100
AcDbEntity
100
AcDbLine
  8
contour
 62
256
370
-1
  6
ByLayer
 10
239.6145377693054286
 20
196.7115693745576834
 30
0.0
 11
238.8119312177030054
 21
198.4627109416902613
 31
0.0
  0
LINE
  5
2A2
100
AcDbEntity
100
AcDbLine
  8
contour
 62
256
370
-1
  6
ByLayer
 10
238.8119312177030054
 20
198.4627109416902613
 30
0.0
 11
237.1337538825343074
 21
196.6386051425938319
 31
0.0
  0
LINE
  5
2A3
100
AcDbEntity
100
AcDbLine
  8
contour
 62
256
370
-1
  6
ByLayer
 10
237.1337538825343074
 20
196.6386051425938319
 30
0.0
 11
235.1637196195101751
 21
194.6685708795696996
 31
0.0
  0
LINE
  5
2A4
100
AcDbEntity
100
AcDbLine
  8
contour
 62
256
370
-1
  6
ByLayer
 10
235.1637196195101751
 20
194.6685708795696996
 30
0.0
 11
233.3396138204137742
 21
195.6171058950998543
 31
0.0
  0
LINE
  5
2A5
100
AcDbEntity
100
AcDbLine
  8
contour
 62
256
370
-1
  6
ByLayer
 10
233.3396138204137742
 20
195.6171058950998543
 30
0.0
 11
231.5884722532811963
 21
196.9304620704492663
 31
0.0
  0
LINE
  5
2A6
100
AcDbEntity
100
AcDbLine
  8
contour
 62
256
370
-1
  6
ByLayer
 10
188.1747542347864623
 20
166.4314131095571554
 30
0.0
 11
189.1232892503165886
 21
163.5858080629667484
 31
0.0
  0
LINE
  5
2A7
100
AcDbEntity
100
AcDbLine
  8
contour
 62
256
370
-1
  6
ByLayer
 10
189.1232892503165886
 20
163.5858080629667484
 30
0.0
 11
191.7500016010154411
 21
162.1265234236896049
 31
0.0
  0
LINE
  5
2A8
100
AcDbEntity
100
AcDbLine
  8
contour
 62
256
370
-1
  6
ByLayer
 10
191.7500016010154411
 20
162.1265234236896049
 30
0.0
 11
194.8874635754612825
 21
160.0835249287016211
 31
0.0
  0
LINE
  5
2A9
100
AcDbEntity
100
AcDbLine
  8
contour
 62
256
370
-1
  6
ByLayer
 10
194.8874635754612825
 20
160.0835249287016211
 30
0.0
 11
197.3682474622324037
 21
158.9890614492437635
 31
0.0
  0
LINE
  5
2AA
100
AcDbEntity
100
AcDbLine
  8
contour
 62
256
370
-1
  6
ByLayer
 10
197.3682474622324037
 20
158.9890614492437635
 30
0.0
 11
199.9949598129312562
 21
160.2294533926293525
 31
0.0
  0
LINE
  5
2AB
100
AcDbEntity
100
AcDbLine
  8
contour
 62
256
370
-1
  6
ByLayer
 10
199.9949598129312562
 20
160.2294533926293525
 30
0.0
 11
200.6516379006059481
 21
161.4698453360149131
 31
0.0
  0
LINE
  5
2AC
100
AcDbEntity
100
AcDbLine
  8
contour
 62
256
370
-1
  6
ByLayer
 10
200.6516379006059481
 20
161.4698453360149131
 30
0.0
 11
196.7115693745576834
 21
160.7402030163763413
 31
0.0
  0
LINE
  5
2AD
100
AcDbEntity
100
AcDbLine
  8
contour
 62
256
370
-1
  6
ByLayer
 10
196.7115693745576834
 20
160.7402030163763413
 30
0.0
 11
194.814499343497431
 21
161.9805949597619019
 31
0.0
  0
LINE
  5
2AE
100
AcDbEntity
100
AcDbLine
  8
contour
 62
256
370
-1
  6
ByLayer
 10
194.814499343497431
 20
161.9805949597619019
 30
0.0
 11
191.8959300649431441
 21
164.680271542424606
 31
0.0
  0
LINE
  5
2AF
100
AcDbEntity
100
AcDbLine
  8
contour
 62
256
370
-1
  6
ByLayer
 10
191.8959300649431441
 20
164.680271542424606
 30
0.0
 11
188.1747542347864623
 21
166.4314131095571554
 31
0.0
  0
LINE
  5
2B0
100
AcDbEntity
100
AcDbLine
  8
contour
 62
256
370
-1
  6
ByLayer
 10
204.8105991225457956
 20
162.1994876556534564
 30
0.0
 11
206.415812225750642
 21
163.8776649908221827
 31
0.0
  0
LINE
  5
2B1
100
AcDbEntity
100
AcDbLine
  8
contour
 62
256
370
-1
  6
ByLayer
 10
206.415812225750642
 20
163.8776649908221827
 30
0.0
 11
209.7721668960880379
 21
166.2854846456294524
 31
0.0
  0
LINE
  5
2B2
100
AcDbEntity
100
AcDbLine
  8
contour
 62
256
370
-1
  6
ByLayer
 10
209.7721668960880379
 20
166.2854846456294524
 30
0.0
 11
211.1584873034013299
 21
167.671805052942716
 31
0.0
  0
LINE
  5
2B3
100
AcDbEntity
100
AcDbLine
  8
contour
 62
256
370
-1
  6
ByLayer
 10
211.1584873034013299
 20
167.671805052942716
 30
0.0
 11
214.3689135098110228
 21
167.525876589015013
 31
0.0
  0
LINE
  5
2B4
100
AcDbEntity
100
AcDbLine
  8
contour
 62
256
370
-1
  6
ByLayer
 10
214.3689135098110228
 20
167.525876589015013
 30
0.0
 11
214.8066989015941601
 21
166.3584488775933039
 31
0.0
  0
LINE
  5
2B5
100
AcDbEntity
100
AcDbLine
  8
contour
 62
256
370
-1
  6
ByLayer
 10
214.8066989015941601
 20
166.3584488775933039
 30
0.0
 11
211.2314515353651814
 21
164.0965576867137372
 31
0.0
  0
LINE
  5
2B6
100
AcDbEntity
100
AcDbLine
  8
contour
 62
256
370
-1
  6
ByLayer
 10
211.2314515353651814
 20
164.0965576867137372
 30
0.0
 11
208.09398956091934
 21
163.002094207255908
 31
0.0
  0
LINE
  5
2B7
100
AcDbEntity
100
AcDbLine
  8
contour
 62
256
370
-1
  6
ByLayer
 10
208.09398956091934
 20
163.002094207255908
 30
0.0
 11
204.8105991225457956
 21
162.1994876556534564
 31
0.0
  0
LINE
  5
2B8
100
AcDbEntity
100
AcDbLine
  8
contour
 62
256
370
-1
  6
ByLayer
 10
283.7835742543757647
 20
204.2043641726954775
 30
0.0
 11
285.897855850641804
 21
204.8503946604434418
 31
0.0
  0
LINE
  5
2B9
100
AcDbEntity
100
AcDbLine
  8
contour
 62
256
370
-1
  6
ByLayer
 10
285.897855850641804
 20
204.8503946604434418
 30
0.0
 11
289.9502289101517363
 21
204.3805543057176521
 31
0.0
  0
LINE
  5
2BA
100
AcDbEntity
100
AcDbLine
  8
contour
 62
256
370
-1
  6
ByLayer
 10
289.9502289101517363
 20
204.3805543057176521
 30
0.0
 11
294.4137122800466955
 21
204.9678547491248821
 31
0.0
  0
LINE
  5
2BB
100
AcDbEntity
100
AcDbLine
  8
contour
 62
256
370
-1
  6
ByLayer
 10
294.4137122800466955
 20
204.9678547491248821
 30
0.0
 11
295.6470432112018898
 21
204.5567444387398268
 31
0.0
  0
LINE
  5
2BC
100
AcDbEntity
100
AcDbLine
  8
contour
 62
256
370
-1
  6
ByLayer
 10
295.6470432112018898
 20
204.5567444387398268
 30
0.0
 11
295.8232333442240929
 21
203.0884933302217235
 31
0.0
  0
LINE
  5
2BD
100
AcDbEntity
100
AcDbLine
  8
contour
 62
256
370
-1
  6
ByLayer
 10
295.8232333442240929
 20
203.0884933302217235
 30
0.0
 11
291.6534001960326918
 21
202.4424628424737875
 31
0.0
  0
LINE
  5
2BE
100
AcDbEntity
100
AcDbLine
  8
contour
 62
256
370
-1
  6
ByLayer
 10
291.6534001960326918
 20
202.4424628424737875
 30
0.0
 11
287.248646870478467
 21
203.0884933302217235
 31
0.0
  0
LINE
  5
2BF
100
AcDbEntity
100
AcDbLine
  8
contour
 62
256
370
-1
  6
ByLayer
 10
287.248646870478467
 20
203.0884933302217235
 30
0.0
 11
283.7835742543757647
 21
204.2043641726954775
 31
0.0
  0
ENDSEC
  0
SECTION
  2
OBJECTS
  0
DICTIONARY
  5
C
100
AcDbDictionary
280
0
281
1
  3
ACAD_GROUP
350
D
  3
ACAD_LAYOUT
350
1A
  3
ACAD_MLINESTYLE
350
17
  3
ACAD_PLOTSETTINGS
350
19
  3
ACAD_PLOTSTYLENAME
350
E
  3
AcDbVariableDictionary
350
2C0
  0
DICTIONARY
  5
D
100
AcDbDictionary
280
0
281
1
  0
ACDBDICTIONARYWDFLT
  5
E
100
AcDbDictionary
281
1
  3
Normal
350
F
100
AcDbDictionaryWithDefault
340
F
  0
ACDBPLACEHOLDER
  5
F
  0
DICTIONARY
  5
17
100
AcDbDictionary
280
0
281
1
  3
Standard
350
18
  0
MLINESTYLE
  5
18
100
AcDbMlineStyle
  2
STANDARD
 70
0
  3

 62
256
 51
90.0
 52
90.0
 71
2
 49
0.5
 62
256
  6
BYLAYER
 49
-0.5
 62
256
  6
BYLAYER
  0
DICTIONARY
  5
19
100
AcDbDictionary
280
0
281
1
  0
DICTIONARY
  5
1A
100
AcDbDictionary
281
1
  3
Layout1
350
1E
  3
Layout2
350
26
  3
Model
350
22
  0
LAYOUT
  5
1E
100
AcDbPlotSettings
  1

  2
C:\Program Files\AutoCAD 2002\plotters\DWF ePlot (optimized for plotting).pc3
  4

  6

 40
0.0
 41
0.0
 42
0.0
 43
0.0
 44
0.0
 45
0.0
 46
0.0
 47
0.0
 48
0.0
 49
0.0
140
0.0
141
0.0
142
1.0
143
1.0
 70
688
 72
0
 73
0
 74
5
  7

 75
16
147
1.0
148
0.0
149
0.0
100
AcDbLayout
  1
Layout1
 70
1
 71
1
 10
0.0
 20
0.0
 11
420.0
 21
297.0
 12
0.0
 22
0.0
 32
0.0
 14
100000000000000000000.0
 24
100000000000000000000.0
 34
100000000000000000000.0
 15
-100000000000000000000.0
 25
-100000000000000000000.0
 35
-100000000000000000000.0
146
0.0
 13
0.0
 23
0.0
 33
0.0
 16
1.0
 26
0.0
 36
0.0
 17
0.0
 27
1.0
 37
0.0
 76
0
330
1B
  0
LAYOUT
  5
22
100
AcDbPlotSettings
  1

  2
C:\Program Files\AutoCAD 2002\plotters\DWF ePlot (optimized for plotting).pc3
  4

  6

 40
0.0
 41
0.0
 42
0.0
 43
0.0
 44
0.0
 45
0.0
 46
0.0
 47
0.0
 48
0.0
 49
0.0
140
0.0
141
0.0
142
1.0
143
1.0
 70
1712
 72
0
 73
0
 74
0
  7

 75
0
147
1.0
148
0.0
149
0.0
100
AcDbLayout
  1
Model
 70
1
 71
0
 10
0.0
 20
0.0
 11
12.0
 21
9.0
 12
0.0
 22
0.0
 32
0.0
 14
0.0
 24
0.0
 34
0.0
 15
0.0
 25
0.0
 35
0.0
146
0.0
 13
0.0
 23
0.0
 33
0.0
 16
1.0
 26
0.0
 36
0.0
 17
0.0
 27
1.0
 37
0.0
 76
0
330
1F
  0
LAYOUT
  5
26
100
AcDbPlotSettings
  1

  2
C:\Program Files\AutoCAD 2002\plotters\DWF ePlot (optimized for plotting).pc3
  4

  6

 40
0.0
 41
0.0
 42
0.0
 43
0.0
 44
0.0
 45
0.0
 46
0.0
 47
0.0
 48
0.0
 49
0.0
140
0.0
141
0.0
142
1.0
143
1.0
 70
688
 72
0
 73
0
 74
5
  7

 75
16
147
1.0
148
0.0
149
0.0
100
AcDbLayout
  1
Layout2
 70
1
 71
2
 10
0.0
 20
0.0
 11
12.0
 21
9.0
 12
0.0
 22
0.0
 32
0.0
 14
0.0
 24
0.0
 34
0.0
 15
0.0
 25
0.0
 35
0.0
146
0.0
 13
0.0
 23
0.0
 33
0.0
 16
1.0
 26
0.0
 36
0.0
 17
0.0
 27
1.0
 37
0.0
 76
0
330
23
  0
DICTIONARY
  5
2C0
100
AcDbDictionary
281
1
  3
DIMASSOC
350
2C2
  3
HIDETEXT
350
2C1
  0
DICTIONARYVAR
  5
2C1
100
DictionaryVariables
280
0
  1
2
  0
DICTIONARYVAR
  5
2C2
100
DictionaryVariables
280
0
  1
1
  0
IMAGEDEF
  5
45
100
AcDbRasterImageDef
 90
0
  1
swiss-map.png
 10
300.0
 20
202.0
 11
1.0
 21
1.0
280
1
281
0
  0
ENDSEC
  0
EOF
